<mxfile host="Electron" modified="2024-05-02T08:40:49.853Z" agent="Mozilla/5.0 (Windows NT 10.0; Win64; x64) AppleWebKit/537.36 (KHTML, like Gecko) draw.io/24.2.5 Chrome/120.0.6099.109 Electron/28.1.0 Safari/537.36" etag="Ydkj4xogi4hZk4OVuQbC" version="24.2.5" type="device">
  <diagram name="Pagina-1" id="2yr45nH_88J4hQATVm3x">
    <mxGraphModel dx="1434" dy="844" grid="1" gridSize="10" guides="1" tooltips="1" connect="1" arrows="1" fold="1" page="1" pageScale="1" pageWidth="827" pageHeight="1169" math="0" shadow="0">
      <root>
        <mxCell id="0" />
        <mxCell id="1" parent="0" />
        <mxCell id="cvI-DJmk5nsDpkG_RvR8-10" value="" style="shape=image;verticalLabelPosition=bottom;labelBackgroundColor=default;verticalAlign=top;aspect=fixed;imageAspect=0;image=data:image/png,iVBORw0KGgoAAAANSUhEUgAABZEAAAOLCAYAAAAhKs0BAAAAAXNSR0IArs4c6QAAAARnQU1BAACxjwv8YQUAAAAJcEhZcwAADsMAAA7DAcdvqGQAAP+lSURBVHhe7P0JnCTnfd55Pnln3Xd1VVffdzcaaNwXcREgSIAkeGMkiodEmrLHY3lH452x1jufkSjNjG2Ndz8rrrSmaVkiJUq2JVikKF4gQYI4CQIg7gbQ991d1XXflWfkxhv5ZlXW2VlVmdWVVb9vI5BvvBEZmRl1ZMSTb/3Dd//tN2cEAAAAAAAAAMAc/PYWAAAAAAAAAIBZCJEBAAAAAAAAAPMiRAYAAAAAAAAAzIsQGQAAAAAAAAAwL0JkAAAAAAAAAMC8CJEBAAAAAAAAAPMiRAYAAAAAAAAAzMt3/+03Z2x7XfAHAopGKxWpiCoUjijsTsFQSIGgO7nLfH6/fD6ft24mk1HGcZROp5VOJZVKJpVIxJV0p/hETLHYuBx3GQAAAAAAAACsVWs+RA4EgqqqrVVlVY07VSkcrbBLiiMRm9D42Jg7jWhseFjpdMouAQAAAAAAAIDytyZD5GAorJq6em+qrK6xvStjfHREI0OD3pRKJmwvAAAAAAAAAJSnNRUi19TWq66xSdV19bbn6hodGtRQf59GhgdtDwAAAAAAAACUlzURIjc0t6ihqaXopSqKxZS8GOjr0UBvj+0BAAAAAAAAgPJQ1iGyCY8bW9oUCodtz+qWTCTU39NFmAwAAAAAAAAUwS2f+E3tqHMbiUt6/a+/r6PXfEifuHWjQm7X8PE/1Q+f81bDMpVliGzKVjS1bVS0YnWOPL6S2MSE+rouUeYCAAAAAABgtckLIWdKdr6obz3+pp3DarCaQuRgICj57EwB0um0MpnyiGbLKkQ2F8xrbe9QbUOj7SlvwwP96u68yAX4AAAAAAAAVosFQmTP0FH9zbeesTPFco8e/sJe1Squyy/9pZ5623avJpP7ZVCnvv6YXrbdV9tqCZG3bN+l2++9Tz5f4SlybHxcT3zvOxofG7U9q5ff3q56dQ1N2rH3wJoJkA3zWsxrMq8NAAAAAAAAq4sJIf/m62Y6qmHbp4oa7bXNorlrg2ptc7Xau7lp/mB9nQuGQrrlrruVSqU00Nurgb4rT/29PV6J3h17iv7dVBJlMRK5bdNW1Tc127m1adD95um6cNbOAQAAAAAA4KqYayRrXt/MkhaTI2Gt/OXTRsm+7m5mcoTz1IjjmffPyh/tmxulnGfaaOip5cnOo+pv2qsN4exzP1X9eV3fHnGXmO1dVnPedvJH6c71HKZex3W67zO3educJjfy123ufSj3ODkLjajO217eNvL7F3zsafcpYCSyHtWv7K731s1/zbor17/8kdXhcEQf/fRn1d/Toyd/8F3bu7CM+++jn/6czpw4pjdeftH2rl6reiRyJFqhbbv3rfkA2TCv0bxW85oBAAAAAABw9dXu/k39yhfcyQslTTD6p3kBsgk4Z4evofbb9ImHrrNzOU15AbIR0YbrP3TlEc0m6JwZIBt1e/Urn5l9/1B7NkCerUKbPzN9O7W7H9UtXus6Vc0RR839OmbK7oPpAbLhvr5bf1MP32Vnp3lTnX3xbDPcpPZrsk1ds1mN3nOPq/+8u49NGPyFOcLr8EZd/4Xccy/Ac5cnR5HXtt5jW9ItrdlgWUOXi1eaw5cNh/P/VVZXeyOO8/vMP7t62Vi1IXJVbZ227tqraGWV7Vn7zGs1r9m8dgAAAAAAAKwmM4LRu3KBbTZc9speHB/0FoWaNk8PeMMRTRzPrnNqKNeXDVBf/tbU/aa2ZUbGXqf7ttqg04yy9cpq5K0b3qgds0JaM6o2u970WsARqe9Fr//1Thvgql7N3v3f1FN/bbdtp9xzzL6O7PKp+9nHMKN+J/dBdpRv9v4v6rK9/Fft1rmD8qOPn7HBbkSNm7NB9WS5jESfOs0I7b250H3qNf3NS5eU9PrqtfmKAXfOMzqVe+51G2z4fI+abfw23F2c+tZz1UKurKrW+z/ycT38yUe90crlbFWGyKZG8Obtu+QPBGzP+mFes3nt1EkGAAAAAAC4uuYMRu0I3r3VueG72XDZG7FsyyYoXDl99HDikk7ZUPfl7lxgfCX1qrABbbLv/GT5hvyRtRXVM4LUeUfVDuq8HUF99HyfDWKnmHIU3vO30+zyGnOb2geD6p0MrfNHGs/YD5OeUe+0oPo6tTdlQ9bhs6ZURd7o6PzX9PZ59duvQ6jS7usCTL1mG5znalDnfV2WI5lMeBfIe/m56YH0xNiY3nr1l16AfM+DHyjrCgSrLkRuaG5R+5Ztdm79MvvA7AsAAAAAAABcbXnBqCpUdY1UW7nQyNLsOstyTY27lcVJjhcaUOe569GpchSm1vLX80ZLX8HC+2BhLx+1o4pN0DxZyiIXRk8F6EXx9vd13r4mE7znSllMC+eXy3G8waH1jU2TU11jo/q6L6vr4gUv57vj3vcqVKYjkldViGx25oaOLXYOZl8QJAMAAAAAAFxtUyNlc4bHc6FyXjmLyWm+i8otQv6o2/zyGLlRtK6J0Vx95qWbHE08ebG+uWskz2VqVHWuNIaRt68S45OjpmeZfH312ny9LWUxOep4aqTyVAkK12TYvPjAPPdcQ03Xa7M30trWXi6CUCis9z3yMT04x2T62zo2eeUuWts36q7732fvVV5WTYhsyjcQIM9m9gmlLQAAAAAAAFbe5IX18i/wNnTGC4jz6/pOlrOw09wXlFvAwLgtt5DblimZ8aaeOmuDUu9icnb7uZIZRSrFMMlcrM97jDkuZuc6OjphW/XaYdYzF/Z77mhemQ/7/PLuny1NMZ+p0d250bn59YknRyrnHs9MkxcnnCrPUbBcGRD3sfJrLxdDOp3S4Vd/6ZWumGs6efRdb71kIqE3XynaZfxW1KoIkc2F5ChhMT+zb7jYHgAAAAAAwNWV7HzRjtY1ntEP82olL8vb39fbkxeuy/PcY3kXk5viPQ9zYTs7vxxHH//LaeUrzLbnLGfhPpfZ/dmL7s3uz14Mb/rF/WabCuJdM0Nxd5986+tHZ49k9kpumAsPLlbeBfZcCwfci5NOp3XkrTd1dI7p4tkz2rpjl1LJpH7+1E/V19Nt71VefPfffnPGtq8KU1B666696/IieovhuN+MZ08cVTyW+9QHAAAAAAAAKGf36OEv7PXKc5jw+luLHV28SOYCgtn6zybkXkoQPTdTzuL+D31EQ/19+sUzP7O9JveM6iO/8hk5TlrP/Phx9VzuskuyPvbpz+n0iWN64+UXbc/qddVHIrdv3kqAXACzj8y+AgAAAAAAANaCvQ9ts/Wdi1efeH73aMfkBQRztZeLw9Q7rq2rU1VNje3JSsTjev2lX+jpHz+u3suXbW95uqohctumrYpWVtk5XInZV2afAQAAAAAAAOXqlk9kaxxnRwWbUcivL/9ChPO55kP6hFdTOTvi2RuFPFmSpLQymYyOv/u2ei93KeP+K2eB7Zs2ftm2V5S5WFxL+0Y7tzIcx1EymVQsHlcsFtO4O42Nj2tkdEyjY6PurZnG7G22PTo25q0zNj7h3i+meCLhbSOVTpvvBO+TBjOtlGhlpVeEm7IWAAAAAAAAKEcd+29SQzTbLnkZi9Y92t9Ro2wdhOKWscgxFQT2XXtIqVRKY6Ojqqmtu/JUU6vN27ZroK9Xly9dtFtava5KTeRgKKwdew+UrIyFKWY9EYspFot7wa8JjZMJE/ym7BrFFQwEFQqHFI1E3CmqaDSiimhUgRK9PlMf+dTRd5RKFqNyOwAAAAAAAIDleO/DH1Zz6wZv9HEhzHp+v1+/ePpJnT9z2vauXlclRN64ZbtqGxrtXHGYkcMDA4NeeJxYJeFqJBJRbXW1amtrVVlRYXuLY3igX5fOrf5vMAAAAAAAAGCtM4Nmm1pa7FxhTLWBgd7esih1seIhck1tvTq277Rzy9c/MKjzFy9qYiKmcDisUGh1XqTPjFDesKHVC5WL5eLpkxoZHrRzAAAAAAAAAFB8K35hvaa24tVBvtzdo+MnT3oBsuH3r1xt4sUyZTXOnjun/oEB27N8xdyXAAAAAAAAADCXFQ2RG5pbFC1iWYf+wQFzbbtJhdYcuZqGRkZsa/nMvjT7FAAAAAAAAABKZUVD5MaWNtsqjkAgaFtZZZAhK+AvbrmNYu9TAAAAAAAAAMi3YiGyGTEbCoftXHEEAzOfvmNvV69ih8hmnzIaGQAAAAAAAECprFyI3FT8oDMYDNlWVlmMRA4W/8J/pdi3AAAAAAAAAGCsSIhcU1uvcLR4tZBzgrMC2dWfIgf8xd/lZt+afQwAAAAAAAAAxbYiIXJdY5NtFVewHGsiB4o/Etko1T4GAAAAAAAAsL6VPEQOhsKqrivNKNmZgWymDFLkYIlCZLOPzb4GAAAAAAAAgGIqeYhcU6IA2QgFZ45ELoNyFiWoiZxTyn0NAAAAAAAAYH0q6xC5VKUhSqmUz5kQGQAAAAAAAECx+e6//eaSDd8NBILaffCQnSu+RCKhV994y865L8YnVVYW/wJ+xbRv926FQiE7V3zHD7+hdDpl51aZ2r267f7rtaUhW3bDGe3SiV88oTfOe7PFs/km3Xv7XrVWZwP75MBpHX7yOZ0Y9mZXiWrtuud+Hdxep5D5KCc5qu6jL+nply9mFwMAAAAAAACrRElD5NqGRm3cst3OFV86ndbLr75u57KqqlZ3iHzN/v3ym7S7RC6dO63hgX47tzx7HvoVHWpfZp3loRN67FsveM39H/w1HdwwYyT28Gk9/XfPqdvOSnfoA1/YpVo7V5ghnf76P+iXXrtNt33yQW2ZsQHn8uv6ux9MfeBw1R16SJ+8sWXGnwKM6tyPvq0XL9lZAAAAAAAAYBUoaTmLyqoa2yoNUxrC758eyK7mssg+n6+kAbJR6n2+HFXROUp5VDeqwzaLo1HRqG3m8de2qHQfZyxBTXiOH75q1W+1TQAAAAAAAGCVKHGIXGVbpTOzxnAm49jW6rMSNZxXYp8v1VgsbVt5RvtV3AIO/YrFbDOPM9yj07a9KowkNPs7dVSDZ20TAAAAAAAAWCVKFiL7AwGFo6UvLREMzgyRbWMVWokQ2exzs+9Xh4S6j02VkHj3uRd0ojdh57I1kY+9lF/Kohi69OLTr6trdCqwNjWR33huFZWyMN54Ti8f6VcylySbmsiHX6KUBQAAAAAAAFadktVENmUVtuzaY+dK5+13j2hkdMzOSdFoeEXC2qWorKzUzm3b7FzpnDtxTONjI3Zu6aratqip6sr7MtB6QDfua5z1iUSy8xU98fg7mvrqFGKumsgJ9R1+SSfmLfWc0PDJixq0cwAAAAAAAACKp2QhckNzizZ0bLFzpXPk2AkNDg3ZOSkSCc8anbxa1NbUaOvmzXaudC5fPKeB3h47V2K1B3Tvh25S68w6xLEuvfH9J3Rs2M4XbO4Qufulv9HTb9tZAAAAAAAAACumZOUsQuGIbZVWKDQ9MM6s4noWfv/KhNsrte/NheAO3n397ADZhL5vLiVABgAAAAAAALDalGwk8qZtO1VdV2/nSufMufPqujxVVTccDioUCtm51aW5qUntGzbYudIZHRrUhTMn7VzptN/1Ed25u27WJxFjZ57UD342+3J5ex76FR1qD9u5LFPy4u8ff8fOGcsfiXzzJz6n7XV2xho+/k396Dk7M1PzLh28bpc6mutUXRGWP+8FOcmEJvq7dO74Wzp8fJ56Gtc8qI/d2qZp33WJLr3x10+oe/9duu36LaqNZj9AGD7mPo/n3cYC9zlmZxdcp3a7Dt12rba312nyc5R0QrGBi3r3hed0otf2zWe5rxkAAAAAAADrRslGIgdXKMgNBYO2lbWqL6y3QiORV2Tfb75D1+2YHSBr+LRemyNAXp2qteuej+hjH7pD+7e2qLZqephq+ENhVW3Yov13fUgf+9hd2jU93V7YwQd13+3bJwNkj8/eLsfmW/XgI3dpz6a8ANkIhBVt3q4bPvgR3Txv1ZQSv2YAAAAAAACsOSULkQPBlQmRZ15EbzWXs1ipC/6Vft936M7bd6l25stJD+n0S8+p086ubtXa89CHdMPOOoUK/CkINZiA9kHtKShUrdau62eMIi6Kam2/a6/qpw/oni5Qp6033qQqOzul1K8ZAAAAAAAAa1HpQuQVCkxnXkRvVY9EXqkQuaSPY4LIu9RRbWcnpTV86hX98rydLaqwWm/9nB79wtzTB+6yqy1C63vu17UzSmvkOMl0dnJsR76KNl179/VzBLQzhKtVVYos391ura1B7T3HdLY9k7+xQ/tnBL8lf80AAAAAAABYk0oWIvtm/o18iQRnlLOQVvNI5JXZJ6Xc91UH79CBOYJIZ+C0XnuuXMpYXKuD22eX4nDGLurdH35bf/dX/zk7ffsJvXthQjNzVX/rLh3aaWcWlFas86h++d1v6rGvf1NP/OR1nbxsFy1HrEfHnrbP8y+/rRdPDs16jlKdGvbZpmelXjMAAAAAAADWmpKljT5fMYq/XhnlLGYr2b6vvV63zVWiIdmjo0++oKnLG65yN3aoYeaLcPp16vEndbhr1Ha4hrt0+InndGHYzk+qUNP27bY9v2Tn63ry8Zd02l7kbvD8WzpxPNteurT63nlcb5zKPc9RnXvmHXVP2Nk8/vysf4VeMwAAAAAAANaelRkaW0KzL6y3ekPk4AqFyKXRppvvP6CmWQlyQt2vP6fDs0LH1WtLY/XsEbm9F/XanK+hS4d78kJWK1rdZlvzGVX3m+9ozM4VTaJHF96w7UknNDxHiJxvZV4zAAAAAAAA1qKShcgrFebOHolsG6vQSo1ELsW+b7/rVm1tmP38k51v6ZeHZweOxZVQ90vZkhBzTT96zq5WoOiMOtrGxHiXbc021j+qpG1PutJPTmJUvZdsewVMxBO2NbcVec0AAAAAAABrlM/9N5Ppm6t/LSpdiDznFbqKb3ZN5NUbJK9YiFzsfb/5Xt2we3Y9XcW69M7PSzDadrUJB7QyX7lVZD2+ZgAAAAAAgDzZgNgnv9+vYCikcCSiSCSqSNSd3NtQOKyA229Ky671MNl3/+03lyRy3bn/Wm9HroSXX31N6fRUcFpREXW/uKvrC+f3B3TNvr12rrSSiYROvvuWnVuuA7r30zepNWpnJ02o67n/pmcXUeN3z0O/okMzLsqX7HxFf//4O3bOuEMf+MIu1dq5LDMS+W/09Nt29gpu/sTntL3OzljDx6dGLG9536d02+aK7IzldL+lv/v+63Zuutb3flz3bqu2c1nT1r/mQX3s1hm1ohNdeuOvn9AxOztLIfdZxHbn2rclfc0AAAAAsMZUVFWrrqFJldXVCkdmnQQDuMoS8ZjGR0c1NNCnibFS/lV8LlPMqLWtXVt27tKG9o1ezmnyPW+p+V/GDGTNyHEcjbvP59zpkzp9/JjisZgXKGfMCmtIyUYip1Oz/hi+ZGaPRl59X6TgHOUESqV4+75aex66do4AWRo788KiAuTV5Fz/qGaO1fY3tOng9OTa6tCu5ulhqjE6dMK2ysN6fM0AAAAAUKi2TVu1ddde1Tc1EyADq5T52TQ/o+Zn1fzMloIJf0PhkPZde60+8LFP6t4PfFA7du9VVXWNQqGwl0EGzBTI3prRySZcrm9s0nU33aoPP/pp3ffQh9Sxbdvk9taKkoXIqeTKhcjXNw+oMRqzc+ZTANtYJerCCe1vXLkrzxVr31cdvEMHZoxu9Qyf1ms/u2hnytCrFzUwcxeFWrT3wXu1q9nOG7XbdehDd6ljZp7qDKnvVKnrQBfZenzNAAAAAFCAzTt2e8EUgPJhfmbNz26x5MLeLTt36qGPf8oLhOvqG7JlKuxkSlrkz+f355hStq1tbbrzvgd03wc+pNoGdxtrJEgObN+08cu2XVTRyirvT0FWwibfSR2ovqjttcOqDiYUCAaUdEJyrtIXKehz1FI5oR3u87mhpU8HmgZUEY1qyL/JrlFaoyNDGhtZZmi98Q7d/54tqpzrY4ZIg7bccEjXFDJds0Gpt06pz71b066DaquZPiLbGe3UkRM9ds7YrF03NCpi57LSGrv4ts7mr7aAjfsPqWHGB8fx/jd18pydUbdiTTu1pX56QO6L1Kl97yHtP3hQB667VgcObFNz9ewR5MnOt/Xk63lPpnWn9nVUT68hnB7VZfu651TIfRax3bn2bUlfMwAAAACsAWY0Y219g50DUE5MfeJgKKzR4SHbszQm5A2EgrrrgQ9o/7WHvFHGuWDYhMSFyA+Vc/OVVVXauXe/RtznZyZT+qKclWwkcjIRt63Sc3zZchY1waT21w/q3o2X9NGdp/Xw1nO6s71L1zb1eQFzW+W4asIJhf1pb/3lMNuodbdltmnC4mub+r3HMo/5Mfex7+no1L7GQdVGEt76ad+0yrYlVZR9v6NFtbOzxDWj82cv6fTA3N8H/lAgO83x0+EMndCLP8qv4Vw+1uNrBgAAAID5mIFvjEAGypv5GV7OIFYTIFdUVenhjz+qDRs3ekFvfhC8FPn3N9Pt975XN9x2p9dXzkoWIscnpspLlFraN33casYxX3CpOpxUR/WYF+bevKFHd3d06qGt5/XRnWf0qV0n9dEdZ/TBref0/i3ndf+mi7qv46Lu7bikezZmJ9M2fQ+4y8w6H9p2zruPd193Gx9wt2W2eZO77X2NA95jmcec63ssrTnKQpTISu778nVRv/z7x3X4wuxawXNLa6zzHf38Wy+o0/aUn/X4mgEAAABgbuYiegDK31J/lk2AXF1bq/s+8LAqKiunhb85udHDuQvomSmTmbo1/fONMM7fzs69+3TznXd7j1muShYix2LjtlV6zowQuZAL65mvYziQVlU4qbpIQk0VMbVUxtRaOaENVdnJtE1fo7vMrFMZSnr3mSskvpK0Vm4k8kru+/LWr3ef+LYe/+ErOt3Zr7FY2v0lYBcZjjufmNBw5wm98cN/0A8ef2UNhKnr8TUDAAAAwGyV1StTghNAaS31Z9nn9+uuB96v6to62zMV/OaHw7n2xNiYRoaGNNQ/oLHRUaVSKW+5kb9+vvwgeceevdp77XXT+sqJ7/7bb75y4rpEO/YeUDhaYedKpzH2thon3rBz7osKhRWIzAyWr65u/wH1B3baudJJxCZ06iilBwAAAAAAWMi+QzfZFoByd+SNV2yrMGZE8F3ve1BtHZsnQ938ANm0zW06ndbp40f17puva2J8+qBNfyCgTVu26Ybb71AkMnVxrrlC4vyA+Sff+476e8vvulMlG4lsjI+N2VZppf0zAuNMYX+sv5Ic38qUs1ipfQ4AAAAAAACUo5b2dm3cvHXOADl3e+StN/W9x/6rXvvFC5oYn/D68znptM6fOaXv/e1/0QtPPalUMjktLM43FSxndOd9DygYzF7frZyUOEQesa3ScmaWiijZ2OqlS61QOYuV2ucAAAAAAABAOTEjkEOhsG6+8y6vrrHXNyNANmUqTCj81qu/VCIWU8b9l4uAzf1z/8ycuY+TdnThzGn99Aff1fjYqNeXm/JlH8fnld/Ye821dhvlo6Qh8tjwsG2VhhlSPjA0pM7+maNvV1+K3Ds4ptHRUfc5l3aUdKn3OQAAAAAAAFCuNm/fruqaWi/UnRkgG4dfe8ULhb0L55kA2edXTX299hw4qNvuuU933v8+XXvTLWpta/NGFJt1zL/hgQE99fgPlEol7Zbmt3XXHq8mczkJbN+08cu2XXRmZ1dW1ygULl594tHRMV3u6dG5Cxd05twF9fX1q380oY6qUVUE0t465uvvD61M+YhCDMQierWzQgNDw+rp69PI6KiSqZQCgYBCRRy+Pj46osG+8qupAgAAAADASmtu22hbAMpd7+VO27qy62+9Q5VVVdNCZMMEyefPnNabL7/khcKGWX7znXfr1rvuUVvHJtXWN6imrk4trRu0fc9ebd25SyePHjF39u5jSloMDfRry44d5t7Ttm/k5sORiEaHhzU0OODNl4OShsiGKTKdf5XDpTAjjjsvd+vUmTO61HVZIyOjSianroDoZHw6PVKnlONXbTihkD8jf/jqh8jjiZDe6W/QK90tcvIGfZth8WPj4+ofGNDg0LAyTkbRaFT+Gd9Yi9Xf063YODWRAQAAAAC4EkJkYO0oJEQ25SMqq6p1/c23eqOAc4FubhSy3+178emfKR6LefPGHffery07dtq57Dr5wXAwFNKufQd07vRJJZMJr29keMirtxytqPDmZwbJOdHKSp0+fszOrX4lD5FNAt/YssHOLY75Il7q7NKxk6c0ODSkVCo70nguJkjuTVTq+GiLepN1Gk1GvM8MTKAcdKeVEE8F1DsR1amhWr3V16g3+5rUF4u6z2P+cNgE5KNjY+rrH/DWqnS/web75rqSrgvn5Djz7yMAAAAAAJBFiAysHYWGyDv27lVbx+bsvM3fzK3JILs7L+no2295I4rNunuuuTZbuzhvvZz8PjOAtrllg86eOuFtx9w3EAypfdOmyXXy5eZNhYITR97xBpeWg5KHyCbUjFZUKhyN2p7CmNG67x49pt6+/slPBOYTCPgViYS8wtjBYEAxJ6y+WIXOjdTo6GC9Tg7VqWusQn0TFRqMRzSeCiqeDijpTmnHjhB2v35ea/rXVSaJTrudZpTzhHu/sWRIwwl3+xNRXRqt8h7j+GCd3uxt1jv9jd68eexYenFlKsxrNGHy6Ni46mprvE82FmN0aFCD/b12DgAAAAAALIQQGVg7Cg2RD1x/o1cP2Zu3Ya4X/LptcyE9U9fYrGlyuTvue6+CwZC3bGYQbOT6zK0pj9Hf2+OVqDAS8Zh277/Ga891X8OEyKYURm4E82rnu//2m0sed9fU1qtj+9TQ70IcO3FS/QODdm5ufr9P4XDYC5GLxaeM/L7sLjGjmxcaRVwqdbW12mI/rSjUxdMnNTK88P4CAAAAAABZ+w7dZFsAyt2RN16xrfmZYPgDH/2EaurqpwW7ucGrP/jWYxodHvLa0WiFHvmVX/PWmy8EzsmF0MfePqzXXnrB9koffvRXVVlZNecF9HKP+fOf/VQXz57xRj+vdsVLXxdgws1EbMLOFcaUr1iICY5NHeFiBsiGCY3TGb83XY0A2RgeGbGtwph9S4AMAAAAAAAAzGZGIctnykzMXTnAVFJIJ5Ne26xrLp53pfA4x6xnQuGKqirbk2VqKy8UDZv71NbXmwcsCysSIhsDfT22VRhTG3g+5msYiUS827WoYpGlPxa7bwEAAAAAAID1xITDPp9/chRwPtOfGzFsRgXHJgofDJvbnrkuXD6vFIZtz5QLqEOhkHdbDlYuRO7tUTJReI2Pndu3uTty7k8HsldCtDNrTDAY1KaODjt3ZWafmn0LAAAAAAAAYD4m7M2WnpjJ9FXX1HhBszExPpbNMecInOcz2N9nW1IwFFJFZWV2JOwccsGz4zjebTlYsRDZ6O/psq0rq6io0LUH9quhrnbW/jY72CmTKxcuRk11jXbv2KFIOGx7rmwx+xQAAAAAAABYj0xum5knTzShbsfWbXZOSqfSGhzo90LguUYu5+Qvu3jurB3t7FNz6wYvSL6SRCLubsTOrHIrGiKbEbOLGQ5uLpq3d89u7d+7Rw31phZJtt98fcxOXuBrWEZ8qq2p0c7t27Vty2ZvJHKhzL5kFDIAAAAAAAAwP1OiIpNxsqHtHEzwu2P3XoXCYS8INuu/+MxT2brGGXPf7JQzc/6VF57T2OiIfZyMt60rMY850Ds1enm1W9EQ2ejrumRbhTMh697du3TDdddq25ZNqq2t9r4gMfcLmUql7VrlwxsiX1mljW1t2rdnt7Zu3rxgDej5LGVfAgAAAAAAAOuNyRIH+/sn2zkmpzPMRfc2bdvutY2JsTH94pmnpgbEuvcx98tNRjqd1rG3D+v0iePunDcOWZVV1dqwsWPaY8zFce87PDjgBc/lILB908Yv2/aKSMRjCkeiiiwhNA0EAqqurlZLc7PaNmzw2qbPSTvuFy1bQyQ3Wnk18fsDqqqoVH1dvffcO9rb1djQ4AXHAVu0e7GGB/rV100pCwAAAAAAlqK5baNtASh3vZc7bWt+Jiw20+btOybn85nQt3lDm86eOqF0MuWFu2MjIzpz/JiXY0YiUe8+Zj3vGmV9vXr558/q1LEjk4GxCZG37dqttk2bvWu6eX3zhJXxeExHDr/lhdPlwHf/7Tev+DMNhsLasfeA/IGA7SmOuPsFTLhTPB53J7edSiqZTHp9V0r/l8t8Q5jyG+aqiuFgyP3GCrtTxJvCRb7Sovmk4tTRd5RKFn6hQgAAAAAAMGXfoZtsC0C5O/LGK7a1MBPsfuRXP6NwODJniGym4aFB/ejv/84LhPNHCfvc+5r7eP1mXXtRvLlGEh+84SYdOHTDZOg812N1Xjiv537y4znvvxpdlRDZqGtoUvuWqYLVpZZ2v7CpVMqbzFBzM3I57aS9L7jjfuHMxfrcG5f5hvHu4n6Bvf97t+abzG++UdzbgD+gQMC9DQS8GsZmWuqI4qXoPHdGQwPlUzMFAAAAAIDVhhAZWDsKDZGNO+69f8HRyMbw4KCeeeJxjY+N5oXJZt3pMWpumbmInhm9bJh507/n4EEduvk2r8/IPVbuMX72+PfV29XlrV8OVrycRU48NuGNSI5WVtqe0jIBcDAQ8EYFm9HBFdGoV06iyn386qoq1VRXT061Ndkpv8+sY9Y19zH3zY0wNts0214pg3296uu+8hB9AAAAAAAwP8pZAGtHIeUsDBPumooFpuSENz9PpheORLyL45kBpGOjo0olku49s8w2zD+jorJSW3fs0p3vfUBVNTXe6GKzzATD/d09SqdSamlr9x7HTF6A7E59vT06/FrhwfdqcNVCZGN0eEjVtXVemIwri42P6cKZk3YOAAAAAAAsFSEysHYUGiIbY6Mjat6wQVXVNd58fpCcC3sNEyC3trVr974Dqm9q9gbCVlRWqaGpSe2bt+jg9Tfohtvu1Ea3bcrbNja3qLKqSpfOnzNb8mLmvp5ubdy0RRVu/yR3+2/88kWNDA7ajvJwVUNkY2J8THUNjV6ZCMzP1EE2AbL5BAMAAAAAACxPbUOjAsGgnQNQrhLxmAZ6e+zclZl4t7+vV7v3H7A904NkY2awXFNbp/aOTdqyY6c2bdvuhcuV1TXeMm9dM8LYva1vbHJ/tzTowplTXtZpRh53bN3m3d8w810XL3ijkMuljEXOVU9uTVmLi+dO2znMx+wjs68AAAAAAMDyjY+O2haAcrbYn2UT3o4MDeq1F1+wPVN1ivNNBsQuc600w6znrev2m77c8tzgWDO/edt2r7xFY1Ozdh+4Rm0bO7xlhln+6i9+bp5E2bnqI5GNZDyuZCKhmrp624N85kJ6I0MDdg4AAAAAACyXueh+fWOznQNQri5fOq9UMmHnCtff26vqmlr390Cj7cmGvDNNBsXubf40U35fbX2DduzZq/aOzZP9Jvt8+kc/0PDAQNmNQjZWTQ2JoYE+Xb5oaoYgn9knZt8AAAAAAIDimRgb9S5eD6B8mZ9h87O8NBm9+OxTunj2zORI5LlGJC9GLjCeGTKb8rSvvPC8ersvl2WAbKyqQsSmfglB8hSzLxZT0wUAAAAAABSu68JZjY0M2zkA5cT87Jqf4eV64emf6dzpk5PBbzGCZLON/Ntnf/Ij7zHK2aooZ5EvNj5OaQuXKWEx2M8nogAAAAAAlNLwQL+CobCilZW2B8BqZ0YgXzp7ys4tjwl6O8+f19joiFra2hUIBOwSyYuVZ4wqXsjMAHqwv18/e/z77vMt/yoDvvtvv3lVjqGuqq1Tx5bt8ud94dYDJ532LqI3NjxkewAAAAAAQKlVVFWrrqFJldXVCkeithfAapGIx7yL6Jmyr0svYTE/n/uvuq5O1910izq2bLW9080sU5EzMzyeGB/TyaNH9M4br3nbLdcSFvlWbYhsRKIVat+8VdHKKtuztsXcb7DO82cVj03YHgAAAAAAAAArIRf41tbV6/pb71BTS4tC4XC2LIW3wuwQOVeyIuM4mhgf1/Ej7+jEu+94A0XXQnics6pD5Jy2TVtV37S2r5hqhuEXo44LAAAAAAAAgKUzYbIRDIdUXVunrdt3qqm11QuXff6pS8wlYjH19nSr6+J5dXd2Khab8MLkmSOT14KyCJEN8yclGzo2r7nyFuZTicvuN5oZig8AAAAAAABgdcldJM8/GSCbkDmTDYttspoddZztX4vKJkQ2TKH71vYO1TY02p7yZor3d3deVCqZsD0AAAAAAAAAsLpMjb8uAyZsvXTutC6ePqnYRPnWDTbP3bwG81oIkAEAAAAAAACsZmU1EnmmhuYWNba0eQWuy0EykVB/T5cGentsDwAAAAAAAACsbmUdIueYMLmhqUXhaIXtWV0SsQkN9PUQHgMAAAAAAAAoO2siRM6pqa1XXWOTquvqbc/VNTo0qKH+Po0MD9oeAAAAAAAAACgvaypEzjEX4Kupq/emyuoa27syxkdHNDI06E3UOwYAAAAAAABQ7tZkiJwvEAiqqrZWlVU17lRV9JIXplTF+NiYO41obHhY6XTKLgEAAAAAAACA8rfmQ+SZ/IGAotFKRSqiCoUjCrtTMBRSIOhO7jKf3y+fz+etm8lklHEcpdNppVNJpZJJJRJxJd0pPhFTLDYux10GAAAAAAAAAGvVuguRAQAAAAAAAACF89tbAAAAAAAAAABmIUQGAAAAAAAAAMyLEBkAAAAAAAAAMC9CZAAAAAAAAADAvAiRAQAAAAAAAADzIkQGAAAAAAAAAMyLEBkAAAAAAAAAMC9CZAAAAAAAAADAvAiRAQAAAAAAAADzIkQGAAAAAAAAAMyLEBkAAAAAAAAAMC9CZAAAAAAAAADAvAiRAQAAAAAAAADzIkQGAAAAAAAAAMyLEBkAAAAAAAAAMC/fV7/2lYxtAwAAAAAAAAAwDSEyAACr0NjomPr7BzU8PKrYREypVEqZDG/ZAIDy5/P5FAwGFa2Iqra2Wo2N9aqqrrJLAQDAakSIDADAKnLu7AVdutjlhccAAKwXJkze2NGmLVs32R4AALCaECIDALAKmOD45IkzmpiI2R4AANafioqodu7a5gXKAABg9eDCegAAXEWO4+itN9/V4beOECADANY9815o3hPNe6N5jwQAAKsDITIAAFdJPB7Xyy++ps5Ll20PAAAwzHujeY8075UAAODqI0QGAOAqSKfTeu2VtzQ0NGJ7AABAPvMead4rzXsmAAC4ugiRAQC4Csyf6XLxPAAAFmbeK817JgAAuLoIkQEAWGFnz5xX9+VeOwcAABZi3jPNeycAALh6CJEBAFhBiURCJ46fsXMAAKAQ5r3TvIcCAICrgxAZAIAVdPbMBWo7AgCwSOa907yHAgCAq4MQGQCAFXTxQqdtAQCAxeA9FACAq4cQGQCAFdLT3atEImnnAADAYpj3UPNeCgAAVh4hMgAAK6Svb8C2AADAUvBeCgDA1UGIDADAChkZHrUtAACwFLyXAgBwdRAiAwCwQsbHJ2wLAAAsBe+lAABcHYTIAACsEOohAwCwPLyXAgBwdRAiAwCwQjKZjG0BAICl4L0UAICrgxAZAAAAAAAAADAvQmQAAAAAQMGCmYxa02ntTiZ1MJHQte5k2hvcPrMMAACsPb6vfu0rvMsDALACfvz4U7YFAED58bnTgURC/3JwUDXZrlkmMhn9u/p6vRGJqFQnmu9/6D7bAgAAK4WRyAAAAACABZnw+N/29ekPFgiQjQqfT//b0JD+nbvuDfG47QUAAOWOEBkAAAAAMCcz+viOWEy/Ozio3em0N38lZp0d7rr/j6Eh3TcxwUknAABrAO/nAAAAAIA57Ugm9dvDwwrbefkKiZGzQu70WyMj2ptIZDsAAEDZIkQGAAAAAMzSlE7rXw0OemGwZ8cO6T//Z+l977Mdc7jzTumv/kq67jpv1pxwmhHJm1Ipbx4AAJQnQmQAAAAAwCwfHR9XYyZ7eTynvl7pP/szafNm6X/5X6R77vH6p7npJul//V+lbdvk/PEfK71pk9dd427jI+62AABA+SJEBgAAAADMckNeGQr/4KDif/iHctJpqapK+j//T+n977dLXe95j/RHfyTV1clxHE38p/8k/4ULdqF0ExfZAwCgrBEiAwAAAACm6UgmtdEExnkqfvQjJf/Nv1HalKYwtZH/1b+Sfv3XpU9+Uvryl72+tHufxB//sSr/6q+mXYSvPpPRPmojAwBQtgiRAQAAAADT7EmlpoXAhi+TUeTxx5X+P/4POcmkFApJX/qS9Nu/LVVUeH2pP/ojRR97zFs3n9mW2SYAAChPhMgAAAAAgGnCM0LgfKGf/ESpL33JG3XsjUh2J1PCIv7lLyv87W/btWarctcBAADliRAZAAAAAFAwM6o49OCD004mfT6foocOebfzIUIGAKB8ESIDAAAAAKaZsLezmJD4s5+V79d+Tb5AQOnxcaVGR73w2PepT0lf/KJ7ljn3aeboAqObAQDA6ub76te+UrR38vHxlBLJ0h8YpJIJxSbGlXEcVVZF1dRcZ5cAwPIkk0l1nrug7q4uDfYNaMw9KUrGE8q4/4DlqmvfbFsAAKxuzYmEvjY4OKsusv7ZP5N+9Ve9MDmVSin1P/6P8rvr6c//XOFIRDJB8Xe/K/27f5dtW6b1L2tqdLKiItuxDEOd520LWDqf+y8UCauqulr1TQ1qbWtT+5ZNCpla3wCAWQIffuThL9v2sqTTjmLxlfkDpYx7MJJOJrxbc+ASjUYUCAbsUgBYvKGBAR1+9XW9+LNndeHsOQ329Ss2MZGt9QcUSbSGDz0BAOVhIhDQrePjarDzGb9fvv/5f5Y+9jH3LDKgVDKpzL/4F4q8/roCQ0NyXn5Z6QcfVMAEcLt2SZs3K/Pzn8tn6yB3u+duf11Xp8wC5S4KFR8dti1gecyxvjnmN8f+F91zgKNvvq3x8TFV1VQrWoQPPABgLSlaOYuVzFn8AfcAxh58mA+3E4mk1waApXjj5Vf047//nk4fO8GIYwAAAJc5Ino5b0SmU1enxF13ScGgkj09cv7JP1HotdfsUin07rvyfelLSnZ2eiFz4rbblG5vt0ulF8NhOUUIkIFSMucC5pzAnBuYcwQAKJlMRk4mrXQm6U2ON6Xc7tV7BYHilLNwtzA2nlIq7f7KddtmgzH3xQ+kx5Uq8PIJycT8BxSOk1Eqmd1O2D0gaa2oVCiZcO+T8PqiFWGvpIV/ntpbADAXM/r45Wdf0EBfn+0BSotyFgCAclKZTuurFy+qJhr15tM1NYr/p/+k4O/8jsJnznh9MyU3blTij/5IkX/6TxW0x1gT8bj+WVubBotUJoByFlgpDU1NuuXuO1TXkBuTDwBLY4LipBPXYPy8Lk+ccG87NZEa8oLkfCF/VJXBBjVHt6ilcqeqQ00K+iLy+4J2jaunKCFyIukoFkvL/qWS4pmU3kl06YK7M9zebOcVjA3Pf0BhSmVMjKaUcW+Dfr921dXrpsYWKZa93EMg4Fd9Q40qKyNebS4AuJLey916/qdPKeGe1AArhRAZAFBudk1M6H8bGlKNHbDjVFbKPz7utefjRKPyx2Jee8w9Sfy3NTV6u6rKmy8GQmSsJFPr+z0P3KfmDa22BwAKlMloJNWt13u+r5FktzubWUJs6ZPfvVNb5V4daHhQ4UCl13c1LDtE9gLeWFqpVHbe/PlHV2pYz8dOKz4jTV/I6FDYtubgPsNEPKXYWNJrRwIBfXjrTrUFgl5tZCMcDauhvtr9BU8RfAALMyOQn/rhEwTIWHGEyACAcmNOU28ZHNSXJibU7J6HLUZ/Oq2/jEb1bEOD99eqxUKIjJVmguT7Hn6QEckACpJ2Enp34EldGn9XKSf7oWpx+BT2R7W97jbtrL3NnV/ZigzLejRTZiIWz0yrh5zKOHoncXlRAfIVuUcuwVBAwWD26cbdB3zx8iX53V/kPvuJeCKW0PDQmJJJm2YDwDxMCQsCZAAAgCsz4e9L9fX63xoa1DM87J4DXvkvTZ1MRv3uul927/dMkQNk4Gow5w7mHAIAFmLqGh/uf1w/vfAnOjf6WpEDZCOjhDOhowNP6ckL/z+dHn7J61spgQ8/8vCXbbtw7kFB2snYEchTT9Zxn7gpY3Eqtfj6oomYXwuN6fb53WXu8rStjTzsjUD2aXtdg9LplPecUqm0EomUwqHAtIvvAUCOuUCGufIycDVEa+psCwCA8jIWDOpH9fU6YmZiMTVPZEsLerxzsZRX+/hl9xzsr6ur9fUNGzQQXuCvTZchPjpsW8DKibnf8+b7vK1jo+0BgJyMzo++oVd6vq3+2Fk5KuLA2nmkMgn1xk6rc/yIVze5Mlhvl5TOlctZuAcEJrw1nyabcDvjZJRIuVPC8RblpDJpnU716+XYucIy8HRGvoS7U+Pu5G4rNhaQEwoqEzK3ASkwe5C099gTKSViafexTR0Rn+7v2Kx9NfXKJOJy7JBoc4G9yqqIKiujCgQD7rzPy6d9vtnbBLB+mDIW5krLwNVCOQsAwFoRdc+9OiYmVG3PwcYCAV2KRjUeLP2Ffyhngavp/R/7MGUtAEwyF8x7vfcfdHn8uDtXUCJaZKZmckDbam7Svob7bV9pXHEkshn3m0hklEpmlHCneMKZNvrYiLk77FSyT28kLil9pR1mwt+JtPyXxuU/PSL/mTH5e+MKDUwo3DOq0EhM/nRGTsivjClfkTea2ITGZoSxCZBNtQxze2F0VOFQSE2VVQr7zQGLe1/H8UYkj4/HFY8nlXTbjrvNgLs9EzADWJ8Ov/q6Bvv67Ryw8hiJDABYK1LueZUZaXw5GvWmfredXKFzLUYi42oyecPGLQwMACDvYnnPd/6FhhKdtufqyMjRQPyiemNn1F653wuVS+GK7/LplKl7nLbh8fTRx16tq/S4Dsc7ddjdYckC6iD7RpLyHx2S/+yoN9rY2VYtZ0+tJrY0Kr6x3huFHL48rIqz/QqMxmeF+P6AT+GKkIKRgJcvJx1TH7lTL/Ze1kDGUThaoUhFpcKRqLtuQIl4UmOjExoaHPXaANanZDKpM8dO2jkAAAAAWDxzTmHOLQCsbwPx83r20p8pnh61PVffQPyCnr70HxRLl+bD1iV/VDzhJHQs2aNfujvtZKqvsAvpJdLyHx+WbzghZ0uVnP31cnbUyOmoUqKlRrGNdZrY2qR4W60CEwlVnB+Qb44L5QUCPkUqg+4U8kYWx9MpHe7v1ZOXzun1gT7F/L5smBytnLzwnvm0MD8AB7C+dJ67oMyV/lICAAAAABZgzinMuQWA9cvUPX6h66/t3OoST4/p6Uv/UeOpQdtTPIsOkU0JiWPJbj0dO6nDiUvqTY8qlbnyFXoN/4Ux+YYScjoq5WypVqYyOK1chWk70ZDiG2qVaM0GyZHOIbtwOlPnOBQNqKI25N4GvTIanWOj+kV3p/7+9Am90tvljUTOv7geARKwfnV3ddkWAAAAACwd5xbA+jUUv6RfXP4vbmv1ZoxpJ6nnO/9cCWfM9hTHokPkfmdcr8Yvqi897o0+LniXORn5z4x6wbEJkGXqHc8n4FesrUbpipAil4el1NyjnE1AbOocR6uCqqwNeyUuYumULo+P6dlLF3VxbMSuCWC9G+wbsC0AAAAAWDrOLYD1yYSyL3SbEcirf5Bq0onrF13/2W0VNvC3EIsOkUczcaULHHmczzcYly+dUaYpIoULKPAcCChZVykzjjg0NJHtm0cuTA5XBN27ZV+SGR09kkx4bQAYG109dYoAAAAAlC/OLYD16eXLj8lxZpfdXa1Gk716u/8Jt1Wc0HvRIfJS+cbcnWwS4epQtqMATmXYu/XHCvwC+XxeoAwAMyXjfKgEAAAAYPk4twDWn2ODT2soUX6lbM6OvK6u8WN2bnlWLESeHD0dKDzkzfjNuj75ljDyGQDyURMdAAAAQDFwbgGsLyOJyzo1/JLbKt7PfjhQpc3VN8w5tVUeKOLvGUfv9P9ETiZp55fO99WvfWXBZ5VMOhqfSCtj1zqb6tdzE6ezM4vgPzuqwPEhpa9rlNNaYXunjA5lRx3nCw5NqProZcU21iq2qdH2zi+dzig+mlQqma2h/OGtO7QlGJKTzs43Nteqqmr2YwNY+x77+jdtC7h66to321ZxpN33t66uLg0ODioWi3kXv11PzF8fRaNR1dfXq62tTYFAAeWyAABlb6jzvG0BV8+jX/icbQFY617o+isNxIv73tMQ3aI7W784Z0WFsWSfnrz0FTOs1vYs39aaG3VN4wfs3NIQIgNYFwiRsRoUM0Q+efKk3nnnHaVS5VOTq5SCwaAOHDignTt32h4AwFpFiIzVgBAZWB96Y6f10uW/cVvFHbCz0iFy0B/RfR3/vcL+StuzeIsuZ1HMF7DSyvm5AwCQ88Ybb+jNN98kQM5j9oXZJ2bfAAAAAMDyZbxSEGtByom7r8VcZG/pFh0i+xcRxAZGU4qcG1fFqTFFBlIKBUOKXE548zOnuovDs6aa/gmFAgGFB2OqON2r6Ll+d5sx92u4UPo/tYzQGACw1hw9elSnTp2yc5jJ7BuzjwAAAABgOcZTgxpN9rmt4o5Cvlp6Jk4ps4zrzi06RA77Cqs3GBhPKXp6XNGzEwpfjCk8kraBcCo7P2Oq7hubNVWOxBUOBVWZzCh6eVgVlwZVeaZPgbF5roSamV52uiIYtC33hfp9mmOEOAAAZWNsbMwrYVFs5t2y3n2TbJhjarRTbr66gA9oI+4qNe56Zt3cZObzp1z/1Dt18Zh9ZPYVAAAAACzVm30/cP+/NgJkI+nEdG7sdTu3eIsOkSt8s2sXz8WXzMgfX3q6nS/gn3qa/nhK/lS2xvGc8r62lcFQ3rwJkUmRAQDl68yZM7ZVXDcHQnqjolFvRGdPr9spN/98ZaOqrvB++n8LV+svw3X6Zt5k5vOnbH+trvO779UlUKp9BQAAAGA9yGgo0Wnba8eJwedsa/GuGCKb80R/3rlihS9YeEmLYob1BQTAGWdqJLLfXb82FHbnsz3ZkcgFPm8AAFahy5cv21ZxJdy3ymEnLfO3Rleamt11rwssPH7Yn8ko4K53xamoBwrTlWpfAQAAAFj7RpO9Sjtr7xo0SSfu/n9pg34LCpF9eSly0BdQlb+w0ciFMlsvRv1ir1Sykz0hrQ6FFA74lXGyO8bv9xMiAwDK2ujoqG0Vl3l7PGPfPwvx3sDCo4dXw/ttqfYVAAAAgLXv5NAL7v9LN+jlanEyafXHztu5xSkgRDbx7vSTwQZ/pW0tX0NdnW64/qBudKfmxgbbuzTeSGT79d1QUeXN5wQCfvndCQCAcpVOL1DOaRnMe2fSvZ3IvYlewUf9EQUXCIozBW6nlEq1rwAAAACsbZlMWp1jR+zc2nN6+GXbWpyCQuS8ksSelkCVbS1PwB/Q/r27tGPrZm3fukn79u5UKO9ieIthTlhzk7GxqlqOM3UCaQJkU9ICAABMZ94dzTSowoLXDvfw4b3mugPz4C9/AAAAAJSrVCbpnhmt1UEpGfXETiuTWXxJi4LLWeSfD24I1NjW8pjRwVWVFV6pCTNVVVQoFFriddozkpOeGvm0pbpm2iikYDDgPQYAAJjN58vobLqwA4mMHH06GLVzs139ccgAAAAAsDROJjWrKkMhzHXZCv2nK/71Zv7aV/63GKakhbOEkNz31a995YqPlEg6isXcB7Dnlkn3wR4ff1fDXjHmuQWHkqo4Nia/e7+F7Nu9U9fs3+22fDp6/JQOv3s0uyCf+wzHYzFvBzuhgMZ3tihZP72kRjrlPsfRpHdbF4no1/ccVDo2rnQyqUAgoPqGalVWzX/CC2Bte+zr37Qt4Oqpa99sW0vz7W9/27aK6yZ/SL8XrNCA+0Z/azCkWt+VP3S95B523DExoLkuNfEvw1W6K7Nw3WSPz9GXUxN61THFNIrv4x//uG0BANaSoc6l1XIEiunRL3zOtgCsNeaies9c+k9uq/Bw1gS51zV+RA2Rws75Ar6QKoMNc/4VpwmxR5N9du7K3h18Qj0Tx+1cYd63+bcV9lfYucIUNDQ34I1EnnpRfvnUHqy1c8tz5PhJjY1NKJFM6O13j9nexTOjkHMjkXfU1LlfDBMsZ09tzYhnMxIZAADML+rz61KBf9bU7h4N3ByaOyhe/Gf2AAAAALA6JJ0J9/+LG91rmFC4NryhoKkq1DhngGz4fcE57zPfFPJH7D0L5ZOp+7xYBYXIppZwfiUIv/si2wN1ChYwUqkw7hfG+2/xXyDD1EE2AbK5DbpPdFttnbxh03ZoeDAUUCi8xDIZAACsE2H3/b0376K0CzGHO78brJzzQGJp7+YAAAAAcPUtpV5wubliNY05FJQCm2A8GJiqi2zqgtT5o2ryTy8psVT9g0PqHxiyc4tnvrapRDZBb62oVHOkwitjYZgAPBwOzpvuAwCArEDGpxHH0YQKO2i6TkFt8c/+S5+C33MzxfowGgAAAACKwynwfKicLSUmLfjsLRj0T3uAqC+kjcE6dwPLD2ePHD2pw+/MUQu5QKYOspN2vBHSO2vrVRUKKWVDZFPKIlqx2GHdAACsT2G/T2+776uFMEcAtwTm+EufQj/W9q39gzMAAAAA5cVfeFxatko2EtkIBHwKBqaCZFPKojVQrfrA8i9WNzw6qqGRETu3OKaERTKR9l58U7RCm6pr3HNSR46THZkcCocUoh4yAAAFCbvTxUxaqQIPKj4RnH0csITjEQAAAABYFXxe+d7lD5pdrcwrW0qF4kXdJRyevgPr/RVqC9TOuZGM36dMsDg73KtFYiPyTDAgx912jqmFbEpZmD+d3VZTqw0Vle58wltmAu+q6opsAwAAXFHIvKu7b7mjBUbBdyuorYHpH9YSIgMAAAAoVyH/UgfMZq/XVug0n7nWXWhaLHMPU6p4sQIffuThL9v2FZnsNpXKKHfNHb/Pr4A7DTjjmsiksp05JnAO+ORPOMq4t5mQf8HJcU9AnaB7O2NKuw8azzjurbteJKTYhlql6quyT8YVG016QbKphXxTS5vqQiElYjFvJ4bd9evr3HUJkYF1753X37Qt4OqJ1tTZ1tIcOXLEtoproy+g+/wht2XeLzMyBaHM1Oa+917pHdQsH/Nl9Hw6W0bKeE8wrK0q4K+A3Ps95aTUWaILV+zfv9+2AABrSXx02LaAq+eaGw7ZFoC1xnHPT06PvGznCjeeGtDliWO6NH74itNI8rKaotu9QbEzxdOjer3vW3Peb65pMH5BqUzc3rsQPu2qu0t+9zxwMRY3eNl9YdFoYFom2xyoUkegXqEZ46Az7kqJ1ohGr6/T6M31V5wu722Zc+re36qB6zo0fMNmDbu3ibZaL5w2zAhkM4X8AW2vrdfGqmpvFLL5YpsdUldf7T1nAABQGPMBsfkc+EQ6pRkfD8/rbp8JoKcwEhkAAABAuQr4Q2ZMsZ0rjBnZOxA/r8sTRwqa+hJn7T1nS2cS6pp4d877zTXF0ov7cNU818UGyIbvq1/7yqLP9cbG00omp0YNjThxvRQ7q8vpkSWfOI4OmSqMhcs4GY0PJ7xRyJuqavSBzVtVFworNj6mdCqlioqImlvqCJEBeB77+jdtq7RC7u+hjVu2qLWtXQ1NzaqqrlEoHHZ/FZX37yLz1x3JREJjoyMa6OtVd1enLp07574XZMsHoTB17Ztta2m+/e1v21Zx3eQeJP1esML9Qmc/EJ6Qoy73ffaWYEBb/Vc+uEi4397XTvRp1B4E/Itwle5VyAw0XpjP0ZdTE3rVmRrFXEwf//jHbQsAsJYMdZ63LeDqefQLn7MtAGuNk0nr8XP/zm0tNeW8soboFt3Z+sU5s4KxZJ+evPQVL+wtPp8aIh26o23xv8MWNxLZikb8uWoSnhp/RHvDrYr45rhCewmYch+JWFpO2lE0ENCNLa2qD0eVSiaUTqcVCPhVSxkLACuorqFRt7znbn38M5/X7fe8Vzv27PNC5HAkUvYBsmFeg3kt5jWZ12Zeo3mt5jWb1461xfzBT4V7cHExV7/qCsLuav8y7L7v5nEYjwwAAACgDJlRui0V2+3cWpPRtpqbbHtxlhQiB9yzy3Bk+sikjYE67Q9vKElGPlM6mVYynvbC5JtaNmhHbb0yjiltkfQS5qrqSoXCix+WDQBLceiW2/TQxz7phasrFhi7v//Mh2axWExjY2MaGRnR6OioN+84pakvO5N5reY1m9du9gHWjqB7eBB2v76d7vdSqsAw+FcDEdXa0lbuO7TMd2GGz3IBAAAAlKGdtbfb1trid/+1V+6zc4uzpBDZBLWhkBQKTp0d+t2Tzd2hFu0INdme0kinM9lRyO6J7f6GJt3Y3KaAfEomk+6ylKLRsKqqo24PZ64ASsuMwH3/Rz6ufQevsz2lZUpKmN9958+f1w++/339x//wNX3tP/wH99advvY1b8rN/+THP1Z3d7d3n6VcrXWxzD4w+4JRyWuDz/2eifgcLww+X+CHEhUZn/baP1NKu/d336kZjQwAAACgLDVGtyiwQhUXVlIgEHVP+JYWBy/tXj6fAn6/wmG/3JtJIV9A14c71Baotj3FZYKQVCzljUTuqKzWezu2KBIIeKPxkvG4V8aiuqZCwWDAe44AUCrNG9p0/8Mf9so7lJr53WdGGL/5xhv62le/6k7/QT//+fO6ePGCerq71dfXp4H+fvW7t2b+woULeuqpp/SV/88f6Zt/+Zc6e+bMigTJZl+YfWL2DcqbGWUecKeIe5jwVspEyVdmDgc+ZA5IXCn5lLb1lQEAAACg/PhUEWzwbteSTVXX2NbiLesMz4xEDof80/LaqD+km6Jb1BioLOpuNvlHMuF4ZSxaopV63+ZtqgyGvGAkERt313BUXVOpaEUkewcAKBEz2vbuB97v1QguNfM7zpSp+OZf/IX+7r/9nS5evGh6swuvwPxuPnb0qL75l9/UU0/+bEXKXJh9YvYNI5LLX8D93ov4Moq5328TBX7PfTIQUZX7jee4902584xEBgAAAFCuDja93/3/2jmnCfhC2lN/r51bvOUNE3JPFMPh2UFynT+qG8Ob1BSoWuYDWO7Xy4w+Tk2kvAD5vo2b1RIxV5HPKBGfUDqVUkVlNFvGIv+JAEAJ3Hb3vSsWIA8NDekvv/ENnT17Vo6TtksWJx6P6dlnn9G777zjbbPUzL4x+whlzP02MWWqwvLJcafLBV5gr8Fd94Fg2BuJbELktHs36iIDAAAAKEeNkc2qCNbZufJXF9noBclLteyM1+/3KxL2eRfbyzH1iFuD1bou3K7mQLX7IMs7g0yl0kpOpNUaqdRdbR3aXF2b7U8klIjFFK0Iq7a20n0OXEwPQGmZC8itRAmLnB/98Ifq6uyyc0uXcH9ffu+733N/n5por/TMPuJie2XO53cPMLKjkV9PJW3nwsy7/YcCES9ATsrURc5eZA8AAGC53EMShdKOKpJpVSVSqk4k3dukKhNpRVKO/BxyACg6n3askQvs+X1BHWw0I6uXrigDhf0BvyoifgVnBMltgVodCm9Ue6BmyQ+USjpKjqfVEa32AuRtNXXe6KiUe0Ibj00oHA6prq5KIfcWAErJlGhYqYvoGcePH9dbb72lzBwhnPkdW1tbp0PXX6977rlX77nrbu3atXvBD9NGRoZ12N3eSjH7irIW5SvgftsF3e+ziDuNZnzqzxRWDuUWX0COu6779q20e1+vpMW8nyUv70NmAACw9gUdR03jcW0bHNHe3iFd0z2ga7v6vem6rgEd7O7Xvp5B7ewfVtvIhKKppf31HgDMZWv1DaoOr9xAslJpie5QdWh5r6MoIbIRCPpVURFQMJgXJPt8agnW6ProJu1wn+hiHyyVSCsxltLemgbdu3GzttTUZgPkpBmBPKFQKKCGxhqFI2F7DwAonT0Hll6AfrFM/eIXnv+5nZutvWOjvvilf6RPPfqo3v/QB/TwBx/WZz73WX30Yx+T3z9/kHzyxEnbWhkruc9QZJnsQULIfd8N+jK6WGBN7Vb3Xnf7Q0q4G0i42zAfgZhpbvMvAQAA65sZedw6GtPBywO6xp1MgLxlcNTtm1DTRFyNEwl3iqtlLKZNw2Pa1TekAz0DOtTVr63uembUMgAsm3s+tL/hfvemaBGqx3FSGk/1ayzZN2uaSA/atYoj5I/omsYH7dzSFXUPmJIWlRUB74J7OaZV76/QoUiHbopsVtRXWMkJcwE9xTO6e0OH7tm4Wa0V5kJ92RHIpoRFMBRQY5MJkBmBDKD0QqGwtu/ea+dKz1xMr7+/385NFwqG9MlPfUrNzc3T6sCHQiHtP3BAGza02p7ZBgYHVuQCezlmn5l9h/JkPrg177JmNPKFgmtyZ/SeQFApOUpwgT0AALAE4ZTjjTi+rqtf7cPjXumKgJPxAgwzmSPgmZP5KypT6qJpLKa9PUO6obNP9RMJL4wGgOVoie5Ue+U+O1ccg4mLevLSH805vXD5G3atYvBpZ92digazpYGXo7gxusvv9yk6I0g2or6gdoVadI+741sCVbZ3NnPRp0QspXqF9ZHNO3VD8wZVBbNBsbmAXmLClLAIqLGxmhIWAFbMxi1bpgW2pRYMBlVTUzNZnsJcD88c/5pp+86dam2dOyiORqNqWKCEhKmJnE6v3J/4mX1m9h3KkzlIMKOQzccAfe6J20ABYbD5wNcUsYr4Atm6yI4JkQEAAApTHU/qxku93qjjiHvcao6GCwkuzFGKOVr3jl8cR81jMd3Y2aumiRhBMoBlu7bpg4oEqu3c8pnzJp/7G2v+qTj5Q3N0a9HqOhc9RDYCfp8qKoKKhN0XnfeazYgmU97inoqdOhDeoAp/aPoTyGQUSPp0sLJJH9uyy7uAXsBuwAQf8YlxRaJB1TfWeCPuAGCltLa129bKqKys1D/6zS/p937/9/U7/+pfeW1TquL+Bx7QQw8/NG+gbfojkYidm818ULfSVnrfoXhyhy4h939B93vrSIEX2DOfI7e465sQ2X1bVzrjKDP3tywAAMCkmnhS13QPemUqjNzhg3cE63ePTDa0yte2YfZk+qsqJz/uNjmDuW80mdaNF/vUMjZBkAxgWQK+kG5u+eTk75lyEPJHdWPrJ+3c8pUkRDbc3++KRv1ekOyfceIYdXf89ZEOvSeyXR3BelX5w6rwBdTur9KDLVt0b/tmVds/fzaBh6mBnEpMqKo64tVADgYLK4kBAMXS0LTyhfRNIOx3f5maEck7duzQrbfeqgceeGByFLL5/TjXtNpcjX2HInG/nQLuoYIJkMPu1OXOpwv8FtsX8HulLBKO+33pnrWV08EWAABYeaaEhal73DQe8wLgmWGFr65W0d/4jCr+0ednTdEvfl7BG6+fDJ0N0zaTGZVs6iS3EiQDWKa6yEbd3PIJOzcj7Fx1fLqj7XPuuVzxykuWLEQ2TAASjfi98hbmgnvu7CQztmlDsEZ3Rrfplshmvad2oz7Qtk3bauq8EcuGqduZSiSUcZKqqa1UXV2VF6gAwEqrqq6xravMPfA1f5kxPDSko0eO6MUXXtBzzz2nnz35M33n23+vP/vT/6R33nnbrrw6rJp9hyUx77pmJHLIfd8ez2Q0XmBxilb3vbzGvU/Cbacy/rk/4HD7AQAA/O5xwp7eIe+ieV4aYAZHmBv3eMJMJkzwRSLyVVfPPdW6Rx2VlZPre5PZjstsz1xkb1ffsGoShf1VFQDMZ0PlHq+0RVY2v1yN7mz7nKpDxR3QFfjwIw9/2bZLw/3lbS64Z8p6mlDZMW8GeeeRfp9ftf6oGiNRBW1AbE400+mUMumkwmH3JLS2UtFo2NsWACzFO6+/aVtLc91Nt3i/w66meDyuZ596Wn/7N3+rF37+gt584w0dPXpUJ0+c0OnTp3Tp0iUNDg4uWPO4prZWN91002St5ZXgdx/r7ddftXPrW7SmzraW5siRI7ZVXBt9Ad3nN2WiZn+Pe+/d7r9UJlueYtjt2+oPFHC45NOEu353xlHEXTnibseUx5jG5+gpJ6VOd51S2L9/v20BANaS+Kh5N8Ja0j4yod19w96Rgpn8bW2KfORDCt5yo4I3XJedrtkvX0O9fCY3MMfl+ZO5j3ucG9i7e2r9Q9dJSffopa/fC6XD7jGy4/dpoCKSDaaX6ZobDtkWgPXFp7pQqypD9bo8fsz2rR7mrOs9bZ9XfaTD9hTPig0BCgT8ikQCqqgIKByaXis5X8ZxlE4lFPRnVF0d8QLkUCholwLA1XG1AmTzodrAwIB+8P0f6A//zb/RT5/8qcbGRhWPx1b0AnnLcbXDdyyP+er5lVHI/TqGfX79OJPU4OTYnoVtdE/yEu73cNJdPZX/CTIAAIBlRglvGxzxRiObgMI79mhpUmDXdnfaOTn5t24xB5be8fHMyfA1NkxbP7Bnl3wtLd59zDZNKQsz0tnUXQaAZXHPizoqD+qWDf+d/L7Vk1lGAzW6p+M3vbIbpbCif0dqcoRQ0O/VSq40JS4C00tcOGb0sZNUVWVINbVRRSsilK8AsG6ZA+L+vj59/c/+XD9//jklEqYwwPzM4TMxHYrO/abyK6CQ2zCHR2n3jfuX7nt1IVrcg6uo36e4+71sPvLg4noAAGCmpvG4KpJpL+jNyYyNy+kfUGYgb+rvv/I0bX13Gh83W/O2abZflUipeTwmPwfNAJbLPS9qie7Ue9p+XdWhFtt5tfi0oWKP7u34J6oKNtq+4vN99WtfuWq/Ps0HhsmUo9hEygtHKiqC7hTO1kTOT5cBYJke+/o3bWtpfuULv2lbK6evr09//c1vqru72/bM5FN9Q4P279+naLRCDY0N3kX4Xnj+5zp27KhdZ7qNHR36zX/8jxUKmdIFK+dvvv6ntrW+1bVvtq2l+fa3v21bxXWTP6TfC1a4b8xzf3DruG/J8Uxao+733PNKemUq/l/BKrt0YUedpF5PZtQSkKp9fgXyk2Sfoy+nJvRqgaH0Yn384x+3LQDAWjLUed62UO7M6ON9PYPaNjA6bYSbCSl8FRXyVRd2vDGLu4FMIi6NjSuTngqoTQEtU87ilx3NSgaWN2Dt0S98zrYArHsZR+8OPqlzo68r7ZjLi69c1Br2V2pX/V3aVnOjO1faLPWqDvM1ObEpbVFbG1Zzc7WqqqLZkccEyADWOVOq4h++8515A2TzR3kfeOgh/fb/9Nv64Ic+pAfe94BuvPFG7d69W9VLPdgG5mFG6wTc92ZzXV9TDfmH6bhGCry8+SZ/UBl33WTGXBfB7eAtHgAAWOG0o8rk7BJt5nAhE4spdN/dS5vuukP+psZpAbJh2rXxpCKp8igLB6BM+PzaX/+A7mr/R2qMbpLfi1tLe+LjV1Btlft0X8d/r201N7k9pT/RuqohMgBgbpe7LuvihYt2brZbb79dd77nTgWDQc2sOZyrCwcUk/kuM+UszIihQSej76YLGz1c4d7TTDH3fk6BwTMAAFgfTJhbkUzNHX24xw7BgwcUvPH6aVNoxvyc07UH5ItEZm3XzAccR9UJM1IQAIrIPS+vCjbo9g2f1V0bv6jqULP7O8dc0H7O33BLFvCF1FqxS/dv/h90Y8vHFfRH7JLSI0QGgFXo2PFjisUm7Nx0fp9fD3/wYQUC5g1ptnh84drJwFL43YMfc9AQcL//jL9PxQr6Iy1zyLQ34FdcjndxvemfcXAYAgDAehZ0HG808nwyPb3eX4Wnjx5X/K//RkqlvOOPzMio4n/3HWW6e7IruttJPfeC0m+97YXPGXebzvBwdtkcqhJcXA9A6Zgayfds/JI+sOVfaHvtze5ZjxmOs7wwOeAP62Djw3q/u82bWx9V2L/yf4HM2RsArDJmJPG5M2ft3GybN2+eN0BOuQfWIyPzHzAbjFTGUnghsnvcE7THPu86aS8YvhKz+k73+9XcP+62TWmLKVe+PwAAWLsC7qFAwKt3NV2uJ9152f1/RpmJCaVPnfbCYiMzMiLH/NVe7sLTZvnFi/ZCei73OMXUQ56LOTZZKLgGgGLx+4La3/A+L0x+cPP/qDvaPqutNTeqKtTgLjW/jXxzDMwx/X5Vh5q0vfZW3b3xi+59/yc9uOm3taXmenfp1YtyCZEBYBUaGOi3rdki0ahtzTYyPOxOI3ZutlQy6V3IFFgsk/3mgmSjP+PoB5nCRvGE3Pu1+v2KZzKiAiEAAJjJHl5Mys07XZfdGZ98dXXyRdxj4NxgiBl3yMTiygwOuQcd9uLRaRM8x7JtALjKfL6AQv4KNUQ265rGD+jejf9ED235v3vB8vs2/XPdv+mf6f4Od9r0W27fb3vL7tn4m9rf8IBqQhvc+0bd87C5B5KtJEJkAFiFMnOMyMjpvnx53tHE7777roaG3QPoeQwNDWlgYMDOAYtjLqqX/1n5/54YU7rQC+z5/Io7PqWIkQEAgOX43clnxhrPzbEXmfY31EkVEWXmGSyRSSSUGR2TL2IuA+xKJb3SF/NJBYhCAFxNZnBOyAuWI4FqRQO1igbdKVBjA+Pll78oBX5zAsAqVFlVaVuzDQwO6p133pkWJJv2xYsX9cMf/GDBchXxeFzPPfPsgiE1MB9zGBPITB3MdLvfR0ftn5VeSYffr6R7iphyDz2mNrH6DowAAMDKSfvc44N5yrSZo4SMrWvsq6hwD0ICSp+7YA58vb5pTI1jc0xiRiu7nKFh93h39jGKuaeZJoJXf0QfAJQbQmQAWGV8Pp86Nm2yc7O5i/W9735XTz/1tDo7O3X2zBn9+Ec/1l9+4y8WDJBz3n77bT3zzNMFrQvkM4OOMzPGCj1fYEmLsPuNuy3gU9wxW+B7DwAASPGAX7HQ3IGuOVqYLElhg+b0PNcNyaRTUiQiX0U2RM70mgvyzX28YXqHI7bsBQCgYITIALAK7d+/X37f/L+iR0dG9JMnfqw/+f/+sf70P/5HPfvM0xobG7VLrySjX/7yl15pC2Cx/OZTjDyPpQq5vF52NNG+QEgx9/svPXlSR5gMAMB6lgj6vVHBcx0ReEcc6XQ2DA4EvJrIztlz3oCLWRxHvurqbIjsLne6e+2C6czjjIdDigfNn4oDABaDEBkAVqG29nZ3arNz85vrGNqEz9dff4OCgbkPjv3+gO644w5VuwfawHK9nU7p9UxhdY6zRVoySs31jQsAANadlN+vwWjYq1E850fLjpOtg+weO/jqapUZypa3mMau46uqypa9MF09vXMfKLt6qyLu43IsAgCLRYgMAAVY6dIPlZWVeuQjH1VwkaMkIpGofu2zn9VHP/Yxbdm6xfZOiUYr9Llf/7zuuPPORW97qSibsbaYi+vN9Fh6wrYWFnJP5lp8ASX5ngAAAFZvZVTjoaAXIs86Qkg7cmxpikB7m3cBvVkcd53Oy/KFQ1IwW6YiMzQ064jFbDseDKjHfTyHEBkAFo0QGQAKkJzrgLXENm3epM//xm+ouaXF9szP5/7bv/+AFxDv3bfXPX4O6hOf+pS2bt1m15A2tLXrs5//nHbt2jXnnwGasDeTcfImM7/8sO9q7DuUjjPH98QvzJ+aFsB8110b9Cvufn/NkUUDAIB1aMI9bu2szo4gnsWMMu7t95r+je1emGyORHy+wLSRxpmBAckMkLDhcGZszLvNMfcxkwmsh6KR2WE1AOCKCJEBoABjoyO2tXheGOsk5aQTiwplTdC7fft2/bPf+i19+JFHVF9f741QrqioUNSdTLuqqlqbt2zRP/rHv6lPf+bXtHXrVu9+Zqqrq9Ov/tqnveWbNm3S5z//ucnlOSYsdpKjSvW/qeS7X1Pq9X+r1Kt/oNRr/7uSb/6/lep82n3uKbv20ixn32H1mesDiBOZlM74CqmMLNUooEp3G2lO3wAAgCvjHlqcq6vyLnaXC3tzMmaUcW+fFxj7OzYq8vGPeP2+5kaFH35QvsZGr15y+L67Fbr5hskL8Ckx/cK/ZpsToYAu1lZ6dZgBAIsX+PAjD3/ZtgFgzXrn9Tdta2kam1vU0NRs5xbPGT0r59x3vdBWFWZksX/OMG4ms07APRju2LRJt91+u266+WbdeNNNuuWWW3T7nXfqrrvv0m233aaGhgZv3fxtmnYkEtH1h67XDTfdqEpTJy5vuQm0Uz2/lHPyb5Tpf0s+c3m0QMTr9yVH5U+NS7Fe9+D8oHzBbDXbpei8cE6Xzp+zc+tbtKbOtpbmyJEjtlVcG30B3ec3f/555e/J80rr+fTsE7NL7vf2R9zvnytvQRpxv8fG3SnorvyUk1Kn+bkoAXOBSgDA2hMfnaMuLsqa4/erp6pCm4fG5LeDLnLHFP7GBgUPHvACYm80sjmeddc3/TIlLMwxcG2tfNVV2WUTE0o89ezk/XOh9OnGWl2sq5oWUi/HNTccsi0AWB8IkQGsC8sNkUPhsDZt3W7nFscLd8N1ckwoe/4HcvrekqrcA+BghbswMC3YnY9Zx+8eLIfd52FGIldUVnoBsalrfKX7+wN+L4ieiy/arEDb7Qp0vFf+De+Rv/UOd/4u9/ltVmbgsHzBqHwtt3i3S3X07bc0NJD9M8T1bk2EyD5nVohsnHHS+myoQlUFbCPkl845jirc711CZADAYhEir03m4nqj4ZCax2MKmEENtj8TjyvTN6D00eNKHzuRvZ3Znpw/puSLv1SmfyB7X3dy3OOOSzVVOtpS7416LhZCZADrDX/HAQAFuHTu3KJKUczk8/kV3PAe+XZ/zj0gTitz5E+VPvJnSl/6mZz40LK2vVReMG3CYTP6ODWhdNfzSnc+7R5tp+QLVrsr+JUJVLnteWrUFcC8LrPvsHbM96GFqYr8rvf/K6tzDz/MmOWV/64HAACrWU91VO+0Nnhhcu4j5szAoJIvvFjg9JLSJ05m7+dO8UBAZ+uqdXhDg5wiBsgAsB4RIgNAAZLJhE4fP2rnlsaEb4HaXQoc+GfKNB6UJi4qc/FHSr/5fyl17C+VGjlpA2VTg7iU8Vr2AnpOYkTp0fNKnvxbpd/4Q2XOf1+Z4VPmymnu8+iRzGjTup3uO0XY3m/xzD4z+w5rx3wfeJjev03FCvrONQcfO9yTulJ+lwMAgPLjuMfLXTWVere1Xj1VUe9YIXe8YDLgK02GWd8E0CORkE401+pEU53S9oJ7AIClI0QGgAIde+dt21q67OjfCoW2f0q+nZ+Rqra4R7kpafAdZczI5Hf+vVLHv6nUhSeUHjyuTDruhXbZ61AvnbeNTErO2AWlLj2j1In/ovS7X5XjTr7eV72g2LflEQV2/aoUCHs1ks1toOXWeUeeFqIY+wxTlvO1WAk/TMXV6yvse7XePdVzlvl9vZDVvq8AAMDczIjh3qqo3m5t0NsbGrwwOBcMm8m0c0cQuXZuublNBPw63VijtzY06kJdlZLuPABg+aiJDGBdWG5NZCMem1AwFFJz6wbbs3Q+Uws52ixf8/VSsEqKdUvphHzOhHyxXmnktDK9r8oxJSYG3lRm9KIyqTH3yDjl/peQk55w148rk465U8JOpj3hLh/31s3Eh+SMnVO65xU5l34q5/wPlXG35xs+7j7GZfnc9b26zI3XKbD7s/LX7pLfBMiJIWXOfVe+9vvkb7hmyWHckcNv6uzJE3YOxnJrIp85c0aplBmpXlyLqonsz+h59/ttLuaZbfIHdIMvmO1YQMj9vjK1kJ92kiWpiWxqh+/atcvOAQDWEmoirw8m/B2OhNVVU6Ghioh7TJpROJ1R0MkOrzBTjuP3aSga1qmGGr3b2qDu6gpNhILKlPBDZWoiA1hvfF/92lfyf/cCwJr02Ne/aVvL9/6PfFwNTc12bvm8UcKpETlDJ+X0virfyAn3SNhxD5TtClb2l7XbacI+f9BtBuxkR1d4R9Mpd3Lc+ydtO52NBc0yuz2vGoEJsFtukb9+n3wVre5jZbdhnkv6/OPKjJ1XYNdn3Ieq8voXa6CvVz/+h2/bOeTUtW+2raV5+eWXdeHCBTtXPDe531O/Zz5QyFxhpI578vackvq/EuO2Y7b7gmH9VaimgDhauuyk9aXUmF6d40J9y7Vp0ybdcsstdg4AsJYMdZ63LeDqefQLn7MtAFgfGIkMYF0oxkjknN7ubm3ZvlOB4JVHWxbCjPT1BSLyVbYp0HRIvoaDyphQNxWTzytDkQ2CJycz7yTdKeGNJvalJ6YmJ57t9+6Tvaq1Fz4HwlKoVqreIf+2jyiw+YPy126X34R909LqjJzUhAId97vLKm3f4iTicT330ye8kduYbrkjkf1+f0lC5I3u99u9/rDivoz63em8L62TSuuI+330tpJ6w23/0r39RSapV5yUuhcYOdzjLjvnrv+M+z36i0xKr7rrv+1u55jbvihHg+6Udr/ngu5U476eb6XjuliCkcgHDhxQTU2NnQMArCWMRMZqwEhkAOsNI5EBrAvFHIlsNG9o090PvF/hSMT2FJd38TJTmiLeLyfWI41dUmbsgjTRLSVHzRruZMPfyaQ49+vc7Qi4zyvaKlVvlK9yk1TR6nY1SJOhcX5wPFPethfJBMjP/vTH6r3cZXuQb7kjkY0XXnhBXV3F3b+V7vdErd+vQcdR3HxwYTpz31e522Jxt2c2WeFOzb6A+jOORr3h8cXT1tamO+64w84BANYaRiJjNWAkMoD1hhAZwLpQ7BDZqGto1G1331vU0hbz8WI977d1WpnUhBckm9rHMnWNnbTb71cmEJQvWCVfuMars+yzdWlX6gJjpoTFi88+raGBftuDmYoRIk9MTOjZZ5/V2NiY7UG+qqoq3X333V5NZADA2kSIjNWAEBnAesNlSgFgiUxYaur+mgvIlZrP/POZKeiVoPBXtitQu1OBhmsUaLrOnQ4qWL9PgerN8ofr5feH7PorEyCbfWD2BQFy6Zlw9D3veY+am0v/4UW5MfvE7BsCZAAAAAAoLmoiA1gXilkTeabLly7qwtkzXr3a+samFQturzZTcuP08aPe6OOzJ0/YXixkuTWRc8LhsLZu3eqFpYlEwhudvJ41NjZq3759OnTokLdvAABrGzWRsRpQExnAekM5CwDrQinKWcwlFApr45Ytam1r98pcVFXXKBQOl32wbALjZCKhsdERr2xFd1enLp07p2QyYddAIYpRzmIu5uvjOMW/OF05MB/erJcPbgAAWZSzwGpAOQsAxeBdDynPaj63IUQGsC6sVIgMLKRUITIAAOsJITJWA0JkAAUxIXFeMOy483EnrbFUSkkzWMttp+06puZwyO9X2OdXVSikqBkw412W3MoFzlcpaCZEBrAuECJjNSBEBgBg+QiRsRoQIgOYV8a7NH52VLHbNn8z2peI6/zEmC64U38ioUQ6bS6b7/1zcjmze+t3GwH5FQ741RSKqCUa1eaKSm2IVihoAuVcgGyD55VEiAxgXSBExmpAiAwAwPIRImM1IEQGMBdTniJXkmI0ldS7I0N6c6hfPbG4MrnM16xjbv3u/91On4mSvUzYa7l9jvt/v9vhre2tXx8O6UBtg651p8ZwxHZPPdZKMCOlAQAAAAAAAADLEHPSOjM2qh90XdSfnTmun1y+pO64CZBNcGzDY5c3otcMQc443khlExtnTHicMTGyWcv9vwmJTbrsGkwm9fPebv25u81vXzqrk2PDGkunvGUz6yqXCiEyAAAAAAAAACyWCXDdKeE4Oj02qp90d+rvO895o4/HU6nJ0Nisk13VBr4+nw2PTZbs/t9dMWNGFedNZs2peNjnjTpOuo9zdGRY37l0Xo9fvqgjI0NecL0SCJEBAAAAAAAAYDFsIDycSum53i49fvmCDg8PKmZGCHvLvOIU1vSA2DDL2qOVuramSeYSeumMkw2dvcDZXZq3rsdu0/xnLs53YnREP7p80QuuL8cn8tYpDUJkAAAAAAAAAChQLuTtScT095fO6uXBPg0lEu4CU5giO4rYXWEqBM4PgydltCFSqQc3bNUn2nZoY6RKSTMq2b2fucBe/qhlIztS2US55hF8ctzl4+m03hkZ0rcvntOJ0eF5Hqc4CJEBAAAAAAAAoBCZjFfD+NTYiP7zudO6FJvwBgBPBsfejQl85w90c0vM/cLutLuqTp/euEv3Nm5UNBDwAuL5LppnwmRzPy/UdRsZx9FgMqG/vXhGL/b32CC6+AiRAQAAAAAAAKAAMcfRa4P9+m8Xz2rCSXuBrgl9PQWMBDYjjM36U1GvTyl3m2F/QHc1tOtT7Tt1TU2Dou785Gjk3G2O+zDeyGTLLDajk5/q7dLzvd0aSyXtkuIhRAYAAAAAAACAhWQy3kXsTID8XG+30nbssbsgO7J4ngDZ9Jow2NQ8NreRQEAt4ai2V9SoNVJhlk7e11RR7ohU6eGWLd60s6rWK22RLXIxB3eZ9yx82edgwuRXB3v1Yn+vxoscJBMiAwAAAAAAAMA8vNHD7u3bQwP6RX+3JjJpL7H1Rgqb9HZGgGz6cz0Jx1HI79fOqjq9r3mT/ru2nfpk+059rG2Hrqtp8tbJD2hNkBzw+b0SFx9q2aYHmzapMRRxt5N9TG/K5z22O9n+hJPR60P9es19rrnguhgIkQEAAAAAAABgLiYQ9vl0bnxMT1y+5JWz8Poms9nZAbIZPWxqE5sQ94a6Zn2+Y68+3b5Lt9VvUEe0SrXBsCJ+v7feQkx95BvrWvQbm/bp1vpWb9Sx97BzBMNeeQtbDznuPsene7p0ZmzUe+5zrb9YhMgAAAAAAAAAMJMJX30+9cVj+l7Xea/tFZDIZbIzQ2ATLrs3Abd/X1W9Fx4/0rrVK1uRcpeZYNnc1azjd/9/pWDWrJfMpL3A+aGWrfpg6xavHMZ8kXDG57fLss/ju50XdDk24fUsN0gmRAYAoIz80z/+hh77Vnb6xh88ZHtzvqg/mncZAAAAAGBRfD7vInU/7enUSDKZDWJtCpx/YTvDjEw244BrQ2Hd3bhRH2zdqs0V1V54bC6kZ9aefo/CBORX3EnrndE+vTs64G7PWXg7uefoiqXT+knPJQ2nUt5rWQ5CZAAAylTVwY/o9x6xMwAAAACAonIyjt4aGvRKWXhlISaD2OmBrJlLyVFTOKqHWrboxrpmRf2ByfA4n8l3bQ7tTjOXZtkM2HMuNqIf9pzXD7vP6/T4iNKOu3ShQNhdZp5rdtsZXZqY0OtDfUqZMhzLQIgMAEDZqtTB/+53RI4MAAAAAMXXHY/rnZEBpRxzYb1s/DtzBLLpNqODW8MV+vTGXdpeUSNTqmImc8E802sushd0txFz0hpLJ7ML85ioN+TzexfSe7r/kr7VdVpHRge8UhheODzz8efgPVN3NfNcTeh8dGRYl+O2rMUS+b76ta/kh9sAsCY99vVv2hZw9dS1b7atpTPlLO7vcBtj4xqrqlSV27z45G/ot//ELDXlLO6Rt/jwf9Vv/O7jptPzyB/8e33+YKWdM8Z1+Ov/g37/u9m5qeWX9OQnTmiv3c7kevodfeML+73Hm3lfY9b2Lz6jR//5n9sZAACKZ6jzvG0BV8+jX/icbQFYq8xF8X7e16Of93YrY4bhOjYGzs9wM6ZPqg9F9Im27WqLVHrlK+aLeUdSSZ0YG9LJiSFdjI1rf3W93t+8RY77Lxc8m4HGp8aH9FT/JS/4NYGyWWQu2FdIgJxj1sy4r8G0zL/bmlp0V1OrF2AvZjs5jEQGAKAsndXfPXnJa3Xc/6/1T73WXB7S733zGzMCZKNSB7/wDf3Rb9nZSfW67Zu5ANkwo53/fV6AbEwfAW2C7Vnb77hHj/3xF+0MAAAAAJSRTEYDiYSOjA55I4gzJkA2uWte9mpCXfl8qgoEdU9ju1rCFUrOEyD3J2N6fqBL//nScf2w95yOjQ15o5BNuQvDhLxmpPG5iVF9r/u0/u7yKfUkJhT2m+jWrpMX/HqBcq5tl5vnnC87ZwJos2ZGx0eGNJCMLylANgiRAQAoV3/y/9STF01jo+6fL7D9rXt00Ka/ZsTyo58w03/V4bFsX8dtM8thVGrwxex62W27qiqlw/91Rl+dNpnbR35Ht9nEeXL7X39X3uY7di0QbgMAAADA6pMLh8+Mj6o/HrchrDE9fPW7/abnmppG7aqs80LbmUGrWef42JC+331OPx/o8kLcoM/vjS4265rlZiO9iZie7e/U93vO6t3RQbfLp4C7jhcETz6+ZQJkt8+U0DABcsBtm+c8PUK2zF3tsv5EQidHR7xu7zUuEiEyAABl7Ks/zgW298wxqlh6pLXeti7pqFfywnhcr54ezzZzYfCkqfUuDNh13L4XbWmMqT5ra93kCOWO+7+hx77lTpOjluvVSsFmAAAAAGUkF9m+PTzo1UHOhsq2M0/a7W8MRXRjbYs3YnjmKibcfWO4T9/rPqtL8TFvO7kgNhfhDqcSenHwsv5b10m9MtSj4WRiroealAuLzQX/tlbU6OHmLfpk2w7d17RRNcHQPOGwu0UTNLs3h0cGvTIdCz3GfAiRAQAoZ9/9Q/3d4Wyw23F/fhmKrE0NM8tYFNdUSD2XSjVstU0AAAAAKAc+n7piE7o44Z5nTWay02NXM2fKT9xU16KGcMS7GF4+Eym/OWIC5DPeiGFvzLK73dyoYhP2mj4zSvnHPee9WslTDzX9sfKZEcgmRj5Y06jPduzVje7j76io03uaNup9zZvtY81gOrzHk3picZ0ftwOD5gyc50eIDGBdyP6RCbA2ffd3/2GyPMVMXz2arZtsSl7snRyp/JBu3G7DZfeg5UK2tSTf7R60rfxyGVNT9oJ/AAAAawfnFsAal8no3ZFsSYn56geb0byt4QodqG60gfB052KjXnmKyZIUMwJbs10zmeVRf8Dr87azQIBsmHWigaAO1Ta7bUeJTNoLlZPptHZX1Xmjk024PSf3KZitmzrP7gNlp0UgRAawLoQiYdsC1qLH9ft/a8tazPQnz0zVP86Vm/jWr07VSX7xD/XdbHNp5tx+dvrGHzyUXQAAALCGcG4BrG0mlj0+ZmoH21IWMyJiM2di2kM1TaoMBKeNQjZrx5y0Xh3q0VAyke00FghscyHzlQLknID7DMxIZ3O//CIaptayGZk8Z9jrbtuEzebfqdFhJZ15guYFECIDWBeqqqttC1ij8spaTPe4fv9zeRfEm3RJTxZlpPB82wcAAFibOLcA1igTGLvTQCKhQXeajGdnZLuOu05VIKi91fVeXeT8xaYO8rmJUZ2aGLI9BSowQDZBswmpuxMT3kX5vADa9LuTqZO8vaJW9aGI156LCYJHUikN5AfcBfJ99WtfyT0eAKxZv3z+BZ0+dsLOAVdHXftm2wIAAEs11HnetoCrY/ueXbr5PXfYOQBriRl5fGR0WN+5eM5LZr2RyPkBrzublqNtFbX69Mbd3sje3FJzET4zGvjvu07r7dF+r12K0NWU0jCP/2sbd3mjoPMf35TH+I77+Ifdxw/NfHwTeJvX4nZ+ZONm7a+py84XiJHIANaF1rY22wIAAACApePcAli7TKg6mkpOJbMzQ1Y72xKOKuDPlojIMWUmRlIJnZkY8cpMlCJANvw+vy7GR9WdiHkjn3OPY2o4m6B3Q6TCey6zHt8LkN1e96Y/ETc32fkCESIDWBfat2zyfqECAAAAwFKZcwpzbgFg7RpLpbxbL1+dI2QNyK/mcNRblssZzFpmFPDF2LjG08lFjfBdLBPmJtLpybA6nym10RSKKug3o5BnPHd3WcauPuIF5e7MIp4nITKAdSEUCmnbnp12DgAAAAAWz5xTmHMLAGtXInfROV9mVshqYlm/X6oOhOSYxdnubFzrrns5Pq6UFy6Xlnk881je41rmMc18RSCosM99kvkLDfNa3D6Tiw+nkl5ZjMUgRAawbuw+sM+2AAAAAGDxOKcA1r5ZI3jzZTIK+QKK+ANmJtvn8kJjd9mIGYXs9ZSWGek85j6WuYDezMcL+f3eNBcvaPZlvAsCLhYhMoB1o66hQXsOHrBzAAAAAFA4cy5hzikArG2mJMRCTBA7dxWIjBfqrhQzYnquZ2rC3vmCbLN+tgQHITIALOjQLTepoanJzgEAAADAlZlzCHMuAWDtMxerW4iJX+fOmX1eXeSVYkpWzPVMveeXbc4yFR8v/BrnQogMYN255e47FI5E7BwAAAAAzM+cO5hzCADrQ9DWDvZi1plpsbssmUkr7qTNTLbP5a3lLqsNhr35Usu4z6s6GJLfZy6gN10q48xbrsK7FKC7zFx4b7EIkQGsO+ZP0N7zwH0EyQAAAAAWZM4ZzLkDZSyAdSKTUdjUO/aG7GZmla0ws+a6e6PppPzuTC6q9VZz198QrvBGMs8d4RaPKUnRFqmc8/lNpG3IPWNZLhA396kKBBY9apoQGcC61LyhVfc9/CClLQAAAADMyZwrmHMGc+4AYH0wMWtFwIbI8suZIw1Oy1FfIualsbmL8JnV0xlH7dFKVQVC3kjhUjFVlyPuc9xaUTOtfrNp+d3n1J+MK+k+8Wzt4zzusmy87fOe42IRIgNYt8xogvd95INcbA8AAADANOYcwZwrMAIZWH9qQuFsUuvLhsPT2Mz2cmJCacdxl0+tkXYX1gQj2l5Z697dXXEq3y0ed5vm4n0dkSq1hCu8shW5Z2ACbTPXFR/zgu7Zz929sx263OC+xsUG3YTIANY9c4GM93/sw9q+Z9e0NwAAAAAA64c5FzDnBObcgIvoAeuQDWRbIlEF/LmSFDMyAnfWXM6uJzGhgWTca+dk2xntq65XZSDoRbpF5z6EKbdxTU1j3iNnmcePpZO6FB/3At/5Ht3kyM3RqHs7cwsL8331a18pwSsCgPKUTCbVee6Curu6NNg3oLHRUSXjidL88se6U9e+2baKIxgMauf27WrbsEE11dWLPggAUDpmZMeI+x7SdfmyTp4+rVQqZZcAWK6hzvO2BSydCYxDkbCq3GOo+qYGtba1qX3LJoVCi/8TbwBrixnp+42zJ3U5HpMv4x7Xmf/lRbamlXTXeW9jh+5ubPfauaVmTVOP+Ine83pnZDDbX8TTNHOMaUY6f6h1iyoDoWmPay4I+M7ogP6+6/Tsc8O8Ucd17u+5f7R9jyKm9vMiECIDALBCfvz4U7a1fAf27tUNhw5xogOUAfMB5WtvvKF3jh61PQCW4/0P3WdbAAAUlwlpTQD7TE+Xnu/v8UJar+zDjFDW1CKuD4X1Gx37vBrKM8PVS/ExfffyWQ2lEtmOObZRMHtfc2/zWA+3bNXOytrssjzmOfyXS8d1ZmJEwZkXzTOvy/1n1rmurkEfat+U7V8EylkAAFBmbr/lFt16880EyECZMD+r5mfW/OwCAABg9cqN4N1bUyevxrAJcGdFxFLAXa87MaG3R/u9++SvYdodkWpvlHIqN0p5qQGy4d7X79494W7rtvoN2jUjQDaPZy6od2psWKfHhxWaGSBb2b+wzuhgXX22Y5EIkQEAKCPXHTyofXv22DkA5cT87JqfYQAAAKximYw2RCvUEa2USYCzlZKnB8lmLuIL6NXhHvUnYtMC1uzaGV1b06hHWrcp7Pdnw2gvw52+nSty1/dGR7v/Hmjq0K11rTOeSfbxxlJJvTh02QuTZz2CeUyzkrusJRrV5gr3dS32ebgIkQEAKBM1NTW68dAhOwegHJmfYfOzDAAAgNUpF68erK2XuVidCWbnCl1N/0AyoVeHe5VwnFnhbdq9z6HaJj2yYZs2V1R7o4kdu8xkuvPJLcuV0dgQqdTDLVt0R/2G2QGxK+1Ob4706VJszCtjkR09PYPbZ0o7H6hxX5NZx3YvBiEyAABlYs/OnbYFoJzxswwAALB6eSUtMhltraxWcySSTZXnCJJNXWTj7ZF+HR8f8sLfXEicY9bZUVGrD7Vs1V2N7WoOR70L9yUdx7s1gW8u9DW3Zn1zoT5TBqMuFNZt9a36cOtW7a9umBX85uYvTIzo9eE+775mmnZRPW/bZhyzT43hsHZVZQczTFunQITIAACUiY6NG20LQDnjZxkAAGCV8/nUEA5rT3WdTInhbAxrTEW5ubB5PJ3SM/2dupyYUMjtmxkkGyYQvr1+gz69cbc+1LrNC4XrQxEF/dlo1gTIAb9PNcGQ9lTV6eHmLfo1d917Gjd6wfPMyDcbDUuj6aSe6r+kwWTc688Ph6da7trutvfU1KohEpkMrReLEBkAgDJRVzv7CrwAyg8/ywAAAKtfwOfX7upatYSj3rwJh32ZGXGuLxsvDyRj+lbXSfUkJhRw5+eKaU2d5KpAUDfUNetT7Tv0pc379Zvu9Osde/RZd/rNTQf0jzcf0K+079ItDa2qC4btPWczgW7CSesfLp/xylh4EXdegJzlPgvT7f5rCUe0x30t5qJ7SxmFbBAiAwBQJgKBgG0BKGf8LAMAAJSH1khUB2rrFPSb2shuhy97mb1p3A5Ti3gwmdDfdp7UqYkhr6zETLmxzKaURcpdbgLd+mBEHRXV2uJODaGIdxE+s8ysY7YwV9xr+jtj495jnZkYydZB9nqn+LzHd+/t3gQDPu2rqfMuFrgchMgAAAAAAAAAMIO5eN7B2gYv5M2Gsr45y0GYnqCyQfLjPef08lC3JtJp7/4z1zbBsJlMv4mKzQX4zGTapi+3PJ/pN9sy4fKbw336fs9ZXTAX0nMfc2Yd5MlHNM/T7d8YrdS1dY3eyOrlIEQGAABYkjGdeeYx/fQ7r6nb9kzT85q77EmdGbfzBep+c+Z9uvXWd8zjuNMz7+iY+5i/ODU2bdlbPXYWAAAAQPFkMqoOhvS+De2qDYW8dDdXCzk72neKqXRhgtbhZFLPD3Tpez1ndH5iVEF3/VyYPP0eC8ut73cf1NRa7o5P6PHec3qy/6J6E/FsqJt7PnnM08reN3u/+1vc5x4IZhcsAyEyAADAspzQW2/OGSMvXs9reuu0bVvdbz6t7oYbdPtHH9UD92zV9MporbrW7b+2xc4CAAAAKB4T0GYyagxF9PGNWxQwYbDJbE13do3pbKBrRgefGBvSX1w8qm91nfLqFpv7hk1NYnNns467hbkms12zhil3YUpV9CVj+l73Wf35hSN6a7hPKcdxl7tr2cfK58u4y0y/eZ7uvw+1b1JbrozFHOsvBiEyAADAcp1+mtHAAAAAwFpkAtlMRhsiFXqgtV1RUxbCC2rdZW7/zBHJJsQ1PaZ8hAmCD4/2668vHdN/uXhczw506tzEiAaSCcUcR0kn49VANuUsUm477vYNpxK6GBvTS4Pd+pvO4/qLi0f0ylCv9xxC/oC37VmBsHkOZjLPzRXx+3VvS5t3Mb1s//ICZCPw4Uce/rJtAwCAEjp54oxtLc31111nW1gdkho8e1wD7Tdop69LF3oj2rC1cWqk8HiXTp+PqXHndtWHcn0n9Isf/FRHj76j02ZKtGjHhipv0dipJ/XsKxfd1oQGTr2j7nCrUm/9QEc63a6Yu313/bGm3Yr0Htdo7W5tajCPZMpZ/EDdTddog89uO2+bueWHu2c8N1x1r7/1lm0BWKydu7bZFgAAK8MEw2ZqCEe8EcWX4zEv/LWDir1l8zGjidPKqD8Z19mJUR0dG9TJ8WGdGh90J3M7pBNjwzoyNqC3R/r1xnCfXh/p1TF3vd5kTI77MEG/Da7nMBliu4vNKOew36cb6pt1c0OTIv7AvPdbLEYiAwAALEuttt18g6oGXtNbk7WK52AC5Cdek679oB4wpSk++kHtHHxaP33mhMy9qnbcrwfu3OW2mrTzwUd1+44WbbvnUV273e2y5SwWLFtRuUu3m/ufPjxZU9krhaFduvaeXcrFygAAAACWJuoP6Ib6Rt3e0CK/yWYzJrbNjlT2RvzOwfSadczI5NzF8foTMZ2bGNXxsSEdGR3Uu6MDOua2z06MqCcxoVg67QXTJoDOjWyek31Ms32zksmLb6pv0q0NTao0dZCLiBAZAABguSp3acd2aeytF+e9kF73idc01nCDrt2Ri3OrJsPnU8UqhdHibn97n07+8oTGbH3l1jtvUKtdDAAAAGB5KgJB3dLQpEfaNyvoJclTZpa2mEtuVLPfhspT87m+bHC8EG9p/mO5HX73uby/tUN3Nm1QVTD3p5DFQ4gMAABQBK3X3atW2QDX9k3p1uXTUtWm9ukjgivb1dYgjY0sMIJ5kVp3ZYPpX/z8hLT9Xi66BwAAABSZKWlxoKZev7ZpuzZEowr4TRBsBgPbkcELjExeFrvd7ONkvBHIPvexWyNRfdp9LmaUdOgKAfRSESIDAAAURauuNeUkFihrMfbWD/TT7zyWN/1AJwfswmKxo6K9shi7GIMMAAAAFJs3UjiTUUdFpT7WsUWH6hpVY0b/+kzUmgt5TdPJ3ubmlyQbHM8a5ew+Vk0oqBvqm/SJjq3aUlntreel2SVAiAwAAFAsXjkJExYfU7ftylc1WQ95+nT7ZImLIrBlLDTvqGgAAAAAy2bD2oZQRPe1tOkDGzq0v7bOq5vsLXMn889j8l8T8JowONtzZV5obO6TnXU3OHlT6Q/qmtp67zHva96g+lz5ihIFyAYhMgAAQBFly1qc0FumnMSkKtWYshWjMyPdbr31ncf0VrFqIpvt2TIWDzxYwMX+AAAAACydDW0j/oB2VdfqwZZ2fbxjq66pbVDY7zPX3XNlU2Bv9HIuiTVhci5UnnGbm7xayXnBsdurSMCva91tm9HPD7a2e48ZzoXWJUaIDAAAUFS2rMU09iJ6p5/WL/JC3e43n1Z3ww3aUaS6xWOnDqtbu3Ttda1eWYtrr21a8GJ/AAAAAIqnMhDUtspqfaR9s764bbfuatqgulDYW2ayYTk+99ZteIGyz6tnbOJZczG9yXmzzJ3M6mZdM3bZjHa+s6lFn9+6Sx92t73VfQxvxPMKIkQGAAAotpY92tlg2zmVu3T7gzdIeXWR3xq8Qbffs2vqYnve/fp08gl3+ZtzFcRYQM9r+sVbfaq6do9ylZCrdtxmt/fanOU1AAAAABRPrlayYYLfu5ta9Y+379Gvb9ulh9o6dHNjk7ZXVaslElFDMKy6YEg1oYCqgwGvXe/2NYcj2lRRqevqGvTe1nZ9bst2/eb23bq3eYOa3W16IbQ7eY+1gnxf/dpXsq8MAACU1I8ff8q2luY3PvMZ2wJQ7r7x139tWwAW6/0P3WdbAACsYjZM9kYW50llHI2lUoo7jtdOurdmzZDfp6DPr5A7VQdDCvtnjP2dZ3srhZHIAAAAAAAAAFBMJuydI/A1QbEpcdEajmhjtFJbKqq01Z06olXaEI6q0e2fFSAb82xvpRAiAwAAAAAAAMBKsoGwdwG9XDh8FUPiKyFEBgAAAAAAAADMixAZAIAy4V1AAUDZ42cZAAAA5YYQGQCAMjE+MWFbAMoZP8sAAAAoN4TIAACUie6eHtsCUM74WQYAAEC5IUQGAKBMnDpzxrYAlDN+lgEAAFBuCJEBACgT5y9c0IWLF+0cgHJkfobNzzIAAABQTgiRAQAoIy+89JKGR0bsHIByYn52zc8wAAAAUG4IkQEAKCNj4+N64skn1dXdbXsAlAPzM2t+ds3PMAAAAFBufF/92lcytg0A614ymVTnuQvq7urSYN+AxkZHlYwnlHH/ActV177Ztopjz65d2r1zp1qam20PgNWmp7dXx0+e1LETJ2wPgOUa6jxvW8DS+dx/oUhYVdXVqm9qUGtbm9q3bFIoFLJrAADyESIDgGtoYEDH3zmiM8dOEhijZIodIueEw+4JUGWl/H7+wAhYLRzH8UYdJxIJ2wOgWAiRUSomWN62Z6d2H9inuoYG2wsAMAiRAax7b7z8io4dfsfOAaVTqhAZAID1hBAZK2HPwQM6dMtNdg4AwJAlAOuWGX38k3/4AQEyAAAAgGnMOYI5VzDnDAAAQmQA61Tv5W499cMnNNDXZ3sAAAAAYIo5VzDnDObcAQDWO0JkAOuOGU3w/E+fUiIetz0AAAAAMJs5ZzDnDoxIBrDeESIDWHdefvYFAmQAAAAABTHnDuYcAgDWM0JkAOuKuYgeJSwAAAAALIY5hzDnEgCwXhEiA1g3zJ+gcRE9AAAAAEthziUoawFgvfJ99Wtfydg2AKxpv3z+BZ0+dsLOASuvrn2zbQEAgKUa6jxvW8DK275nl25+zx12DgAWKeNI6bQ7ZeQMDSlzsVNOd68yA4NyhkekiQkp5S43QkGpokL+mhr5Guvkb22Rb2O7/HW1UsDnTgHJt3LjgwmRAawLyWRS3/mrv1HG/QdcLYTIAAAsHyEyriaf+++jn/0VhUIh2wMAV5DJSKmUMmPjyvT0Kn36nJyz55UxofES+OpqFdi2Wf6tm+VraZavqlIKBt0FPrtGaQQ+/MjDX7ZtAFizLp45pwtnz9k54OqI1tTZFgAAWKr46LBtAVdHXX296hob7BwALCCVlHO5W+mjJ5R68RWlXz+sTFe3+2aWsCssQTzubrNH6ROn5Vzsym7L75OvIureBuxKxUdNZADrQneX+4sVAAAAAJaJcwsAV5TJKNPdo/SLryr5k2eU+vlLynRdzpayKBZ3W2abZtvJn7qP8YtXvMf0Rj6XACEygHVhsI8LYAAAAABYPs4tACwonlDqjcNK/PQZJV9+zSthIcexC0vA3Xamu1cp97FMmJx2H9uMVi42QmQA68LY6KhtAQAAAMDScW4BYD6ZwSEln35e6Z+/rMylruKOPL4Sx5HjPmbKfezk0z+XMzBoFxQHITKAdSG5nHpDAAAAAGBxbgFgFlu+IvnEz5R++4gyExN2wcozj22eQ+onT3kjlIuFEBnAuuD+OrctAAAAAFg6zi0ATJNxvIvlJR5/Us65i6UtXVEoMyrZfS6JH/1UTudl7zkuFyEyAAAAAAAAACyWGYHc1aPEj5/M1j5eZcxI5KR5bpd7bM/SESIDAAAAAAAAwCKZkDbxxFPK9PbbntXHPLfkT55edmkLQmQAAAAAAAAAWARnYMC7iN5qHIE8k3O5J/tcB4dsz+IRIgMAAAAAAABAoWIxpV96Tc7FTttRAhUV8nd0KLBzpwLbt8vf2ioFg3bh4jkXLin18qvKxOO2Z3EIkQEAAAAAAACgEJmM0u8ek3PyTEkuoudrblbo/vsV/eQnFXnoIYUfeEDh971P4Q9/WNFPfUrBm26SolG79iKYi+2dOC3nyHHbsTiEyAAArDtf1B996xt6zJ2+8QcP2T4AAAAAwJWY2sLpI8eVmZiwPUXi9yt4442KPvqoQocOyb9hg3z19fLV1MhXWyt/Q4P8GzcqdNddin7iE94o5cXKjE94AfhS6iMTIgMAUDYe0u99Mxv+PvbHX7R9OcUPhv/pH9vH+ubv6BHbBwAAAADrViqp9LETcrq6bUeRBAIK3X67QnfeKV9lpRcoz8nnky8YlL+9XeEHH/TKXJi+xTDP3Tlxyn0tKdtTGEJkAAAAAAAAAFhIJuNdoM45fa64ZSz8fgX27VPw4EH5IhHbeWX+piaFbrlF/pYW21OgdFrpU2fkmNHI7msqFCEyAAAAAAAAACwklVL6/CU5ff22Y5H8/mxZis2bsxfLcydTksK/aZOC+/Z5ZSsWy7vw3u7dUjhsewrj9PR5F9pbzGhkQmQAANaoR/7g32fLUXzrX+uf/ta/Ll5pity2Jqd/r9/L2+jU415pufu88spwmOmPfsuu5Josp5E3UcMZAAAAwNXgjI4ps9SL6VVUKHDggEL33uuVoQibC+aZybTvussrT7EkZhTz7t3yLzaANhfZO3lambFx23FlhMgAAKx5G3X//Rtte3m8AHjebWVrNn/+YKWdz6nUwS9MD4iz6nXbN+9R/uUgOu43wbLxkFrrvcY0VQd/lSAZAAAAwMrKOMqY0bs9i78gnQmQTdkJExYHTeDb0CBfNOpNpiSFCZAXU8ZiJm97zc2Lr43c3Zt9PQWWtCBEBgBgHRg7/F/16Cd+Q49+7g/1Xdu3aI/8jj6ZC4gvPpPdnpmePJvt+617dLAq27z4pF32if+qw2PZvo7bZo6Cdrd1Ovu8/vJw7hPwjdrrhc2P6/c/l9tGdnryoreCqrYf4kJ/AAAAAFZOOi3njHve494uit+v4DXXKHjddfJVuSdLiwx6C+I+RujuuxV+5BEFrr1WKjSQTqXknL3gvqbCSloQIgMAsOaN6/TLj9v2MmytUzYjHtfhH/+51/L8yR/q978rPTI5dPiSjv6JbepxvXraBsRVddqUbVmX9OLvZp/Xd18+K5s1T5pZFuP+/CHLAAAAALBS0pls4LpYlZXeKOTljDQuhL+uTsFduxS+/35FH31U/q1b7ZKFOWfOea+tEITIAACUjcfVPWib9S3TR+M+0qJchDvYPTMwHlT3kocfT5kKiee2qWFmGYtl+K1/PVUWw456zo1EBgAAAICVlBkaVmZ4xM4VLrhnj3yVRTxPWojPJ18wKP+GDYq8//0K7N/vjVJeiPe6Robt3MIIkQEAKCMXBnKjevfrgfyL0L1/vx0lnD8KuLimRgtX6uD7v+i1PL/1O96F87569JLtyJWkMB7SjdvtQdPYkAr97H4ysDYB8j83o57nrpEMAAAAAKWWvpg71ymA3++VrvA3NyuwfbvtXFm+2lqFbrtN/i1brlhCw7nYZVsLI0QGAKCMfPd3f6ncgNyO+2eXehg7/Iy+mm0W33f/UC9OPvg9U6Um7rd/KvUnz0zVP558br86VSf5xSXUY558nKntAAAAAMBKynQXeEG9igoFdu9W6L77FPnEJwouK1EK5qJ9wYMHs7WYF+Bc7rGthREiAwBQVv5cvz1PaQdzMbvfsDWGS+Wr/zz/Ing5uXIZ2YvhzX5ul/Sk+5x/exEjpL/7u//DtO2YCwNSzgIAAADA1eD0D9jW/ExYG7rhBoXvu0/BvXvlq6mRrxQX0luEwLZt8re0LDgaOTOQq5m4MN9Xv/aVwqonA0AZe+zr37Qt4Oqpa99sWwAAYKmGOs/bFnD1PPqFz9kWgPUg/qd/oczwqJ2bQyik4HXXeSUkfBUVtnN1SP7yl0o+95yUTtue6fx1tQp/6cq/0xiJDAAAAAAAAADzyIxP2Nbc/HV1Ch46VLIAOTMxocw8IfCVmAvtLXSBPecKry2HEBkAAAAAAAAA5pNaIMD1++XftEn++tJcCTx97pzi3/qWUq+8Mu9o4oV4wfZCZTUK3CYhMgAAAAAAAAAshQmRzWjfRdQ/dnp6NP61r2n8T/80O/3H/6j4j3+szJi9UrmRycjp7lby5Ze9oNeUpUgdOeLe2bErFCiZtI3lIUQGgDLh+AOaiFaqv6FJ5zu26tiu/XrzwA16/dqb9cbBm3R4/3U6sX2PLrVt0lBtveLhiDJXuYg/AAAAAABlLxiwjTmY8+5QyM4UxjFhcTyu8O23e1Ng8+ZsgJxKZVcwAfLAgBcc+6qrFf7IRxS66SYlnn1WqWPHFlXawunvXzh4Xui15SFEBoBVLh0IeMHwq9fdrFcP3aI3rrlRx3fu1YWNm9Xb3KL+hkb1NTapu6VN5zZv05E9B/TatTfrletv1esHb1RfQ7MyIkwGAAAAAGBJolHbmIPjeDWLF8091w9ee603BTo65HPnczKjo9nyFamUFx6bUhlB9zZ08KB3kbz0yZOFlaFw1zHlMBYKkf2Vlba1MEJkAFilzEji8xu36Bc33+UFw8O1dYpHIsr4rxwIOwG/YtEKDTQ06Y1rb9Qvb7xd3c1tSgWCdg0AAAAAAFAIf22Nbc3BjBru7Fx4tO9iuNtL/OIXSh09mh3h7M5PMplAKqXUCy8off687Zyfc/nylZ9bTZVtLIwQGQBWod7GFr123S06vmufFxwv10h1jd7ed63eOHijxiqrbS8AAAAAALgSX8MCF80zI5G7urw6x8XiC4cV2LZNmb4+Lwj2JJNKvvKK/I2N8m/enO1bgCmPkXzzTWWGh23P3HyNDba1MEJkAFhFUsGgTm3bpTevuUHjBf5JSaHMCOahunq9cuhWXW5pl+PnLQAAAAAAgCvxtTbb1tycof8/e38CH8d533n+3z5xNE6CAAHeNynxEiVRkiXrsC5LsmQ5duQ4lu1I9kwy9ji72ex/xrvJbK5XNjOZ7GSstdcazUxsJRp54jA+ZNmyrIOWKOs+SAkUKVIgwRsgDuJsAH3/66mqRncDaBLEDfbnLRXx1FNHVzeBRtWXT/+qR7F3351YWYuRPB4Frr5agR077HrIw6OIzYjkeFy+desU+MhH5F261OkfQ2poSPG9e5Voajpv2Qtv7bmfWxoJAgDMEebGee9v3KZjS1dZvzTczmkQD/h1YMMmHV222u0BAAAAAAD5+JYudlt5mNrDH3yg2OuvKzUw4HZOnKe42J40xuAvM0rZU1Iij3/scpWmnnJ09277pnzm5n3n41vS4LbOjRAZAOaAWCCo9zZdZt8gbzw1jyfLjEI+umK1Dq9aZ4fXAAAAwFzmSUmBRFIlsYRC0bjKojHra0yl0YSK4kl5s0qGAsBU81RWSueqi2zEYvbN8CI//rHi779vl5NIRSJjTmbdUVIppaz+4fXMOtn1kNPi8Zx9padkZ6dir76qwccfV6Kx0V7vfLzV1vMqP8/zcnkefuQh3moBXPR2fu8xtzU3vb9xq9pq65Wa/vw4hyeZ0oamA1rcetLtwXSqbDh/3SoAAHBuPS3nv5EQLh7+ZFKVQzFVRKJ2eFwcT8ifSMojE2V4lPB6FPH5NBD0qy8YUHdJUEP+6R8kcd+DX3RbAApCPKbYrpeUaDzgdoyD3y9PKCRZ71GjRKP2DfJK//W/tmfj771nB8D2uun1TRkKazKlK/xbt9ojnAe/+11nv9n3TjLh89CQNIFSGr5tmxW46Tp7n+dDiAygIMzVEDnl8ejYstU6snKN2zPzvMmUtu17R9XdnW4PpstUh8h+6xf9mlWrVL9okcrLyuSxvp8AzA0p62S+r79frWfO6HBzs+LjGAkCYHwIkQuDGXlcGx7S4r6wKoZiKrXeR815q73M/jNX0uqM+H0KBwNqLSvR6fJSxXzT9+FrQmSgwKSSSnzYrNhTz563xvC4FRfnhMjRl16STBiczVoneP31uSFy5PwlKsbFup4MfuI2edeYkprnv5YkRAZQEOZqiNxXVq69W3YoFjj/v/pNp1C4X9sb31YwOkW/jDCmqQyRL92wQdu3bVMgEHB7AMxVsVhMe959V/sPHnR7AEwGIfLFLxhPan1nj+r7BhVIJOzQOD2diwk3zBT3eu0RyYdqKtVTHJyWT/sRIgOFJ9nVrfgvnlOy5YzbM0mzHCJ7FtcreOet8lRVuj3nRk1kAJglKes0+MjK9bMeIBsDpWVqrRtfMX3Mvmt27NBVV15JgAzME+Zn1fzMmp9dAMC5lUViuvx0h5Z396sokZD5UPd4ggsTHpus2KxrSmAsDA/p8pYO1QwO2aOaAWCyvGUhZ9TuGDe7m3es5+CznosnVOp2nB8hMgDMkvbaRTq7oMadm11mdMaRFWvtG/xhbtu6ebM2rl/vzgGYT8zPrvkZBgCMrTwS06a2bi0YdEbZpQcQ2xmw1yvPojp56heNnkx/qNRZz6xqTWbb4lhCl5/qVG14kCAZwOT5/fIuWyxPzQK3YxICAXmKi90Zi8/n1DmeoRKFnoUL5F26eFy1kNMIkQFgFiS8Pp1cvHz4RHcuSPq8OrZ0lTuHuai8vFyXb9vmzgGYj8zPsPlZBgDkMiUsNnT0qGZgaHhEcTZPZYWKH7hfJV/50qip+Mtfkv/yy4ZDZ8O0zWRGJW9rPas6gmQAk+XxyFu3UL41K8e+Wd4F8FZWqvizn3XnrN1t2CD/pZfa4fK0s47dt3ql/VwuJLQmRAaAWTBYUqr+0jJ3bjTzNn5JSbH+Yvli/cWyxVpRNDMjhDsXLFSU0chz1vo1s3cDRgBTh59lAMjlTaW0vqNHdf2DThBszZu819yE2kwm5DAj9DzmRsJjTRXl8pSWDq9vT2Y/FrO/QCKptZ29Ko/GnE4AmCh/QL51a+RdVOt2TEyyo0PRZ59VKhJRKplUoqlJ8fffl6JRd40siYRSMev9a4pu1GyO3TyHCxmFbPjuvufOP3PbAHDR2r/3Pbc1N5ypq1fHwjp3LleFz6fP1y7QmuJifb/jrF7s7de/qq/TkaGIeqfqLrB5JKzHXni2Q8WREcX8MSWKy8d3w4J8dlx+uUpKStw5APOVqZF88MMP3TkAFyrS3+u2cLFo6BvUus7e4dHD3vp6FX3yE/LvuFz+7VudadMl8lRXyWNqkbrB8vBktqmokG/Dusz627aaO5sq1XnWDqWD1nl00utRV0mRE0xP0qbtfDoMKFSeUuuaLJlUqqVtUsFuqrdXqf5+e1/xN99U6qz1fjWSeZy+PiVPnFD88GFnHes9bcKs60n/5VvlXb1y+P1zvBiJDACzoGPB2AFykcer31u0UPXBgP6+rVOnojH1WCe83fGEls/AaOSkz6fuimp3DnNNpXVxBGD+42cZADLMKOGV3X32aGQTUJhIw1tbI9/aVda0ZnjyrlhuBx4pM0p5xGR4FlTnrO9bv1ae2lp7G7NPU8rCjHQ2dZcBYFKs9xXfxvXyWu9Tk7rJnhmB/MEHiu7apWRbm9s5grVOsr3dHqmcbG625yfM3ExvnfXeesl6+zlcKEJkAJhhSa9PPRVV7lyuGyvK3AD5rAZTzi+HYo9XNX6f2mNT89GV8+mumoKbBGBa+CZZdwvA3MDPMgBk1AxEVBJL2EFvWio8oOTZLqW6sqazZ88/5axvTQMDZm/2Ps3+Q9G4Fg4MyTuJQXwAYCsKyn/V5fIubXA7Jsh82th+r5p+5kZ65hMeMjfwmwDPw488xNsngIvezu895rZmX29Zpd66/Gp3LqPS59N/WLFEPz3bo19099h9fut09/fqF+pYJKqfd/XMyI34gtGoPvraC+4cplJlwzK3NTEP3H+/2wIw3z36+ONuC8CF6mk54bYw35nRxxvbu7Wyqz9nhJs55/WUlMhTFnI6LpS1g1Q0IoUHlEpkAmozRMOUs3hryULFfJMbU3ffg190WwAKWfJMu+LPmJHEHW7P3OSpW6jgx2+xv04UI5EBYIYNFY9d0/a2qgoNJFN6d2DQ7ZHi1hnw/9farp9NMEA2IfQO6+T7zqpKu9byeESDQcV9F1ZgHzMtrKO7d+q1I2F3Pp82Ne5ustbOaHtvl47OzD90K3xkV+4xtu/R8+/l+ZjWPGGe0/MjXtPpM/rv75zM6/vEHmurmXCBxzYLRn3/AQDmnGAiqdLY6Ht+mNA3NTSkwE3XT2z66EfkrVmQEyAbpl0RiakoPr33GQFQOLx1C+W/9SZ5Fs7dT/R6amsUuM06xkkEyAYhMgDMMBPSjmRKVmwoKdbZeFxnz1G2Ypm17X9csUR/unSxqtxQ+NqyMt1eVWHv4/9a2qD1xcV2/2dqqu1g2qy3oiio+kDA7r+hvEz/76pl+tSCsUtqGNHgxD7egrml7b0XcwPF9j1qbHbb0y6s9pNSfX1mBFFbS5PqGsauB47RRv39zSFz+dgco7//AABzjwlzS6xz3+ygd1gqJf/mS+W//LKcKTBifsxpy6XyFBWN2q+Z9yWTKovOTJk4AAXA45G3vlaB2z8mT+3kQtrp4FnkHJvX+jpZhMgAMMOSYxTeL/F5VWr1hxNJRdxayNnMCe8dVZW6e0Gl/vxEi05Go7qmPKRyn0+3VVdoa2mJPlNTpUXBgD1ieUkwqGvLy3QsEtHlZaUKWftPWCfiD9bVyG89jtnHVWWh4cB5pJR3zFN54AKE1ddVrdJSd9aaH+iukfVtC8yAkd9/AIC5yJ9M2qOR80m1d1h/SImDHyry+A+kuPmcntXV16/ID59Qqq3dWdHaT/zXryrR+L4dPqesfSZ7e51lYwhFubkegCnk8crbUK/gHbfIu3yJJnWzvaliHYN3xTIFb79Z3vpF9jFOlu/ue+78M7cNABet/Xvfc1uzr6+sQp0Lcv+Fstzr03UVIXVZJ8Zv9I+uNVDrD+jztdX67plOdScSOhWJ6oPBiB0i31hRri6rb294UCuKg3quu9fu31RarB91duvKspDWlRTp2ooyuw7cDzq6NJRK6sDAoJqjUecBRlh+6pgCcU6up1pxeaXbmpjLtm51WzF1H/tQ/RWLFW98Sm/v3a/mg9bUVqRFKxYoKFPu4gl90GKtOtSqkwfPKO5p1t49p6yOQXUd2a+24EotLTqu157aq3hNQh8897wOmn1YU7hmkxZlh72mTMJzv3YeI+dxHG3v7dRrZ2q1Onuj9kPa51+iLem+geP64HSlVq0t0mnr2N7uyV7fOd6cvoEm59hC3Xr7hQPWydgqVTmD6d3jye1LH8Oi8Ot6aXe3yjY2aHjvR3aN6HNfn4T1GlSP/mSA89iZ1yP7+ca6mnWyt1LVib16bfdb7mtyJvf4jJH7iI54fSz2Mb/mLs95nNF/f+n9j9zG/ntMP4eBVjWfkBbVtOq1rL+vUX+f4zi2/OvkP7axOK99+nUacbyWcy9vU+MTT6mtplZtzz2lfe46zrGE7WXpvtHfs+nvP2e95jH2m9Nnf0+12t8jYfd7qezMU5nXesT3fH7OvoeP9WA053vRLJc7t7ex0f4K4MJF+vOHg5hfyiNxLe4bkC+Vyhk1nC7j5l22TN7F9UqePKX4628qcN015u6kSnV2Kv7aG/JvWCdPRYX1e2tAsbffkScUknfJYut31JDir7xufbNE3D3l6i0KqiM09mCK8dq0fZvbAgCHJ1Rqv2cpFleqr8/+h6/Z4CktkW/jOvmvd0r7TBVGIgPADDM3rhvJhLpDyZSq/H6VjPEvhGU+r4q8XrXFY3bZi/918SK7b01xkfwejx5r69SWUIm64gn1JZLaaK1j+kutdXoSCf3p8Ra92hfWYCKlqPVYt1VW6Pbq/IHmWMeIuSfc+KL6LrlPt9xrTbdtV6hrjxrtGrAhrbzhPm1ZZTWrt+uae2/W+g0365Zr11odNVpz2326ZnU61urU4VeOq97qs/djrdP2yk41ugN77HDtlS57G3v5vXdpjfbotazaxnVbrf6tuWUqRpauCLcel5aaMC2k2qU1UnevhqvVDrSotcv6mt0X7rPa1SpdtkR11jFa377DzL7NcWf6zChn61mXWXuvX249QlfWDY5NWYNO62tuX5/1eKGxhkWb5/vsHoWuTT9f63Wssp5vdv1f8zr3b868HtXWa/hW1nITwFr70Ja7Mut0v5hTS9mEwY3d5u8m/Tg3qs7ar/O6jv77W1k6xjbW37kan8r8Xdma1HigfHgds4+2V7LqJI/j2M69ztjHNhY78G6s1hb3WMxzDFnHm65T7CxX5nvLfT4j6xi3vbJP5e4612yxvnearWN5Irev7ZXcWt+Z7786LbKONdyftc/2U/brkd0XNt8Q1eXWs3NZj9GoG93jdr/nz1cD2rxuT7yo8PDrZo6tS43pOtXucgDAaGOVnTCSrWesGY88lZXyFBXbo4xtIzZIDUWUMjemdsu3yTrnTQ0OOW0AmEGe6ioFbrxW/o9c5QTKMzkq2eeTd0mD/NdepcAN18lbNblBTCMRIgPADCseytw4L60vkdDxSFQNwYCWFmXGupnz45D1S+e3a6vtERkfqyjXpxdUKWidTH+ptkb3Lqi0tzMjkSt8Xvvmef/b4jotDPhVbG33QF2NftHVY4fPh62T6xqr/8pQSHdZ253OExSbANmXoE7cvLDqRm1Jl7YqXavVJiw72XLuoGsMoS1XZ4LA2u1O8HjACczscM2EucNBoRMijgyNc40uXRHu7xwObUPl1VLXcbW7oZ8JmMPVNQp1meDYYQfFq0yAHJJZva0lHYO26Uyzta7VF06nyHYIXePUvy2tsLboVGtr7rJQdVbobIeIazVWWTDncbNeV4sdkt+wNhMwWttuGX7+1utxydqc59PWtMd6PtbrOBzUW+tc6YT8R+zA1zwHa7/Wdpl9OmFnTpCewwnKVWWen8v6Ozdhcfax2v9IcGVmv3VrrcdVk864QfP5j21865yf+xyv3W49s7Q6O1C2/wFjoElH7OVZIbT1fLZsqVG48ZATuqat2jy8jvOPBNbXrO9Zp2/kPypkvv9CZSZ4doJjw/wdh6zvt8xr7fxDQ8j+R460EX/H43j+zvdx9utmbbn6Zt1yr/MapF9XAEBG0mtN1glveuTxSMk2593bawY/lBQp1dtnz4+Uss5fU/1hedLn0eYTdecYARi3zpsBYNoUFcl/2WYFbrlBvh3bnRvaTWeYbO3brn181eUK3Gw95rbN1jGc/zN0F4p3TgCYYWUD/fImRt8R+kedXTo8GNG/qq/VpxdU627rZPm3ahboDuvrd1ra9f+ePiOvx6O/b+vU09292mmt/19bO/SDjrP29js7u/Xr3n79j/azdskKs79/bO9SS8wpS/FKX7/dZ0Yn/5213WozinnUuA+pvK/HbWGuMyNvJ88NX7PUNZhQ1Al0nYCuSY1PZI1OPh8T3Gq5aoeDZxMoZoW2tbmji03AXHfJZvtxnLDTDSDtkaQjRi4PWF+rl2u11ZcOzJ3wLv14I0aemhHNqzZrdZUJD50L0UxAPZLzuOd9XbNHrI7i7iMnkLSUNqh+OPh2wlQn/DXlD3bqefP6Wtvl574O9ijcrJHFo5yrDvB4jm0864yDHdSfowa2PdJ89PL091s69DZy/j7sfySw+vLu2DLi+y93dLoTMNdfYvWlg//sf4RIG/n9cd7n7454zw75c2T+EQAAkJHweBXzOTeLHsmcpabcusaekhJ7hF3i+MnMaORspsZxMimZ0cqWZE+vUmZ+BLOlmQb9Yz8mAEwZ8ymKuloFrrnCDpPN6GBvwyL7vWzK+P32aGf/R692AuurLncC62lCiAwAM8ybTKiyd3RQa2odP9TSpv/ZcVarioIqsk6qn+zq0Q87u+xlRyNRPW+dEJ+Oxeyv5uZ6hyOR4ZDYjCx+zupvtebNzfl+3ddvj0BOMyfM74QH9GJvn/YMDOjRtk4lxxj3Ud1jRp4CLnu06412oGbKXJiw8/kncksHjJQpXeEygWJOKOcEvU6oa0JLEzC74a8J6UxQnDVS2A4B3cAvve86u88Juu1RzlmPZ4fg7sjTdFkDu88Oop0wL7vUxkjnDCjHKdz4lPtapaendDjrR8uUcnD6X1RbtVOiwi4RcQ72qFa7JIkT6tvbn6/EwhjOd2zGeNY5v/Pd2G56bnw36vvPDoDd0enpgLnW6bMzYRNoD/8jxOSc7x8gpuYffgDg4hHxeTUUGDtQsQPfdEkKN3RJHD1mfx0pZT5FV1QkT4kTIqc6zA35Rp/nGqa3tyhPMX8AmGr+gH3TPf/lW+W/6zYFP3GbfNs2yVM58cEFpkyFGW0cvOtWBe68Vf7Ltjg3z/P73TWmByEyAMyC2s6xxxGaUPet/rD+U8sZ/fBsl8LJ0SOWp8pAMmnfaC+bL5FQVa8ZLodC5pSwyOaMnHXqvJpAuVOHn80/Gja7dIVh9jcyPLNLDJhQ1x5Z7IzsNX1mdHGbPbI4a7SvW6LCBH7D+7b7zIhVd+RsdvAbMtuakadZZQ1Mnwmi251Rp+fKicc92vYcQll1cbOn3FIObn9OqYzzqN2e2Z8JlIfrKI/fOY/NNZ51zi+7DvVY8i0/99/P+Yz8/rOejUqrTL/5BupT2B4t7PSZf8iwR6bnHUGc5tTRtltHduUG7FlBfk7t5TGcbzkAFJqo32uPCh4r7rU/L2c+vWfCYJ/PromcPHZcHs/oT9KZUciesjInRLaWJ9s63AW5zOMMBAOKTHPQAgA5zPtWIGCHv961qxS46ToVffG3VPQ7v6XArTfKt+VSeZcudoJl6z3KLn3hbmP6zA1DfVsusUcbB63tgl/4rLWPa619rZbH1D029eDHem+cYoTIADALqnq6FIjNvbrDpl5zyeA5Ux9cdLLqB7tMCDd2uQejTlvMTfzyBoDpkcXurMzH/DWqZEZ6dPGRpsyo0XSt5COj6tOmRy7vydq3Uys5fGCf9YjZj2dJjzxtOpQpa5CulXwgu/TFSO4+JxX05duHU7bCLglil3IYccz26+Y2x6t2u3OjueHavuczjmMb1zrjYAf52XWKR8iz3C5NMqkRyiO//xzp0emN7sh0w/mHjH1OoD9yZHpWDWWbPTreKXnh1DnOCtftfwRwQun8fxeZ5QCAjLjXq+7ioF2jeMxxw8mkUwfZY26uV6FUzxjvo+46nlDIKXthuto78gYqHaEi63GnP2wBgDGZG+n7A3bNYs/ChfaI4sDtH1Pwt35DRf/iiyr+/d9V8f/2VRX/4ddU/L/8rt0X/NxvWOvcLJ8ZcWzKVZh6x2YfMxAcZyNEBoBZUDo4oFB47BuDzKaas50KxMa+4R4uXuHG1zPlKdr3qLG5RmvWOqGaM+oyd9Sxc4OwPEHsyNIVo+oju9ygt605a9SoWys5PLI+rcUJAZvUNjxC2akRHO4aK/B2l1nrO6NODbdchrX+qHq/w9yb5DW/mBOWjvUa5OfehM3ax2tHMnFi23tO2YrVJty0A9QmHRm53DSybi6YK6yju3fq+ZxRx2060niu5zPSOI5tXOuMg3ujx7ZXsl+3rOcwvDyrNMpAkxrN89myfsTf5wUYVTrFZX9vWd8/1vd2+tvN+YcM6/ttVKBvWMcy/Fpbx/2W9T2fdYO/sdg3Meyyfn6yXjfz85Qu/5JeDgDI1VFarIGA3w6RRwXJiaSSbmkKX0O9fQO9Ucyn61rOyGNG75lQxZLq6Rl15w+z74jfp3br8ZKEyABwwQiRAWAWmLrIS08fl2fMIRezw2udpK84eaFDITGXpUOr19IjSGvXa021KUWRG0bWbVmuVtNnPpr/SpfW3HbzcFhmRl1es6UrU4PX7Kt5rbZklWCw6/u6+xtVumK4fMBI7sjMnADPGQWrsQJqO3i1vmQFpvbIZctY9Y3HWmaPPB1xI8HsY7eZchG3bVd4uP7zTr3WWK0t924ff7Bp6khb+1BWXeHG7u26Jv2ameXXrs2pO9yoG51RxVkjvHP//kJaecNdWtNtbqyXPrYX1bbK2u5CSkyc79iMcawz6ntLo0cq1229b8T3zlM6XHWjbtnqvJLOcjnfj2b5s3sUuvZCS2bkGqt0imOM7y33Jn1jjrqv3q41Sr/Wucedl3nd7r1Roex60tk/T+5yAECuwYBfLWXOCOJRzCjjDucm0t7FDXaYbE6fPR5fzgi8VFeXUwvUDYdT4dx/kk0H1Caw7ikuGh1WAwDOy/PwIw/x/gngorfze4+5rbkjJY8aN12mjprxDu2bPibMXnPkkJafOur2YDpUNixzWxPzwP33u60pMtCk19zgbsvsfxsCc4L5h4VRwfo0ePTxx90WgAvV03LCbeFiEYgndPXJdlVEYvYI4nQ8nPJ6Fbj2GgU/8XEpGlN8z7vyX32lFI8r0XxUviVLpJJipU6dduomN9Tb2w38u79w6im7zH1ABgM+NS5aoM6Qtb7TPSn3PfhFtwUAhYGRyAAwSzzW6evqo00KxGJuz+wJhftV39bizgEAAAAzJ+b36e0ltXaNZBPwDoe8ZuRxf7/TDgbk33GF0/b75Vu7RiotsUcke5Yukad+kbNscFCprAA5va8TlWVTFiADQCEiRAaAWWTC22Unj7lzs8ObTGrd4Q8UjEXcHgAAAGBmmZHC79YvUDT7JnuplBLHjiv606ec6We/yLSfzGoPz/9cQ9/f6WxqTWYEcsIrnaoI6ciCCgJkAJgEylkAKAhzsZxFtv0btuhMXYNSM3yPD28ypQ1N+9XQesrtwXSac+UsAMwaylkAE0c5i4uXN5VSfd+g1nb2qizqlLaYKBN0RHw+na4o0aGFVUpM8c30KGcBoNAwEhkA5oB1Rw5qQVenOzdzlp9s1qK2VncOc13KurACMP/xswwAY0t6PGotL9WBuiq1u6Un0u+Y6VrJ55oMs74ZgdxXFFDTwgo11VROeYAMAIWIEBkA5oBALKot+/eqprNdnuT0hwveRNKux2wmbzJTMw5z28DgoNsCMJ/xswwA+SU9UkeoWO/XVev9RdV2GJwOhs2UHSyn2+nl5qsph9G8oNy+id7JypBi1jwAYPJ4NwWAOcKEuZs+aNTKE83ypM+Mp4G5kd+lh/Zp+cmjbg/mi7b2drcFYD7jZxkAzs2cCg8E/TpeWaY3ltZqz+KFaq0oUdTvG16eHSibkcbdJUHtr63SyyvqdWhhpT2f8DACGQCmCjWRARSEuV4TeaSz1TX6cPVGDZSGpqxOsql/XNHbrUsOva+SoQG3FzNpsjWRly1dqltuvNGdAzBfPf/iizpx8qQ7B+BCURMZcwE1kQEUGkYiA8AcZOojX9b4ltYd/kDFQxG3d+Iqenu06cC72vr+HgLkecyETidPcRNEYD4zP8MEyAAAAJhvCJEBYI4qika09PRxXfPWr7Xx0H5V9nSrKBKxRxSfjy+RUPHgoGrOduiyxrd15d7XVdvZJn8i7q6B+erVN95Qb1+fOwdgPjE/u+ZnGAAAAJhvKGcBoCDMt3IWY0l6vYoEixQpKlF/KKSBkpDVLrb6TW24lHyJuIqHhhQaCCs0GFbR0KCC0ag8dqU4zAWTLWeRVl5Wpus+8hHV19W5PQDmuta2Nr386qvq6+93ewBMFOUsMBdQzgJAoSFEBlAQLoYQGfPfVIXIaevXrtW6NWtUu3Ch2wNgrmnv6NCHhw/rUFOT2wNgsgiRMRcQIgMoNITIAAoCITLmgqkOkdOCwaBCpaXyeqlSBcwVyWRS4YEBRaNRtwfAVCFExlxAiAyg0BAiAygIhMiYC6YrRAYAoJAQImMuIEQGUGgYsgQAAAAAAAAAyIsQGQAAAAAAAACQFyEyAAAAAAAAACAvQmQAAAAAAAAAQF6EyAAAAAAAAACAvAiRAQAAAAAAAAB5ESIDAAAAAAAAAPIiRAYAAAAAAAAA5EWIDAAAAAAAAADIixAZAAAAAAAAAJAXITIAAAAAAAAAIC9CZAAAAAAAAABAXoTIAAAAAAAAAIC8CJEBAAAAAAAAAHkRIgMAAAAAAAAA8iJEBgAAAAAAAADkRYgMAAAAAAAAAMiLEBkAAAAAAAAAkBchMgAAAAAAAAAgL0JkAAAAAAAAAEBehMgACoLH+g+Y/+7Qnz72qHb+yJq+9WW3L+3L+qbpt6ZH/+IOtw8AAABTjWsLAIWIEBlAQQgUBd0WAAAAAEwc1xYAChEhMoCCECorc1sAAAAAMHFcWwAoRJ6HH3ko5bYB4KL11suvqvlQkzsHzI7KhmVua6JMOYvPaXPIap7arft+/7tOt82Us7hBS6xWeN8/6oE/edpqZa2fFj6gf/jiX+tJeyazjWNA+773Nf25s1Bf/dajutne4QHtal6hmzeXOo/7TK0effAS2Yex6wEd3OCuZ2Qf19f/SjtvXuy00/I8vjnmH+qT+pJ5DMPdz/AxZPVly1luyTx3AMDFqqflhNsCZseq9Wt15XUfcecAoDAwEhlAQairr3dbQKEYI0DOds839GhOgGyUavOD39Gf3uPOpoUucQLkMVRd/Z2cEFdLbtA3v+4076mrchrZrH196bFvaORDaFVWgGxY+3n0sfz7TteHzlluCW3+HDWhAQDAtOLaAkAhIkQGUBAali/lBhgoMItV7QbIZnTufZ9+wJncUcBfvd0ZSWyPDHaX7TplOkq1asfoENaMOLa3HzESOKRjzvbfO6Cw27dkg3PTvyf/5GuZxzXTrtN2v0IrdPmIFHms/YRC3do1oq+qzj22r9/gBuRm9HTu/kOrto0OqQEAAKaAuaYw1xYAUGgIkQEUhEAgoJXr17hzQCH4rg7aobDs0bk7f/Sodg6PAL5Dw4OEzchgs8ya0qN6Q9UjSlDotA5+222OcOp1tzTFk++qOZ30ptmjnZ1929PI0hZZws3vuvtpV7fdY8Lv3XrYNLL60jKjnM3o6RH7D1WKSzsAADAdzDWFubYAgEJDiAygYKy7dKPbAuarp9WWTlOranNH295Tq3Ss2t3m1AR++Pcf0D/sG7DbNjswNuUqMqOUxzRy3+EenXSb4/dlfdOtm2xCaHtEcXok8hRYWj12eQ1HleoYigwAAKYB1xQAChUhMoCCUVldrfWbL3XngPnpZJcbCocu0S3D9YGzylOMGDU8XFJiuCREqapXnFZXetRwVjmL4Wn4xneTMBxqmwD5j+wRxWPWSJ6g4dchu5zF8JS5OSAAAMBUMdcS5poCAAoRITKAgrJtxxWqrqlx54D558k/eUtulQotuTlTKiJdimK4BIQZCZwuI2GmrFHBB7/9tP789XR94kw5C2f6K33VWTJFFutmd985N86bpMzrkFXOwp0yN98DAACYGuYawlxLAEChIkQGUHB2XP8RBYuK3Dlgvvmu/uDT6Zvg5TI3v3vgT5xSFmPLjArWt/8o54Z1U+7Jv9YD2eUrzIjnKSxn4bwO/6h90/YEAAAAHObawVxDAEAh8zz8yEMptw0ABaPjTJtefv4FRSMRtweYfpUNy9wWAACYqJ6WE24LmH4mQL7ulpu0cFGd2wMAhYmRyAAKkjkJvOnO2yhtAQAAAGBM5lrBXDMQIAMAITKAAmZuinHrJ+/iZnsAAAAAcphrBHOtwI30AMBBiAyg4JkbZNz+qbu1av1aeaz/AAAAABQecy1grgnMtQE30QOAXNREBoAssVhMLcdPqq21Vd2dXQr39ysWiSpl/QdMFjWRAQCYPGoiYyqYwDhQFFSorExVNdWqq69Xw/KlCgQC7hoAgGyEyAAAzJBnnn7BbQEAgIm6/Y6b3BYAAJgplLMAAAAAAAAAAORFiAwAAAAAAAAAyIsQGQAAAAAAAACQFyEyAAAAAAAAACAvQmQAAAAAAAAAQF6EyAAAAAAAAACAvAiRAQAAAAAAAAB5ESIDAAAAAAAAAPIiRAYAAAAAAAAA5OV5+JGHUm4bAABMo2eefsFtTQ2/3681q1apftEilZeVyePxuEsAzLZUKqW+/n61njmjw83Nisfj7hIAk3X7HTe5LQAAMFMIkQEAmCFTGSJfumGDtm/bpkAg4PYAmKtisZj2vPuu9h886PbMH5tSSd2RTKjeumLoTKX0bDKpt4uK3aXA7CBEBgBg5lHOAgCAeeaaHTt01ZVXEiAD84T5WTU/s+Zndz65KpXQ1xIJ7UhKa1LSZcmUvtDbpysiQ+4aAAAAKBSEyAAAzCNbN2/WxvXr3TkA84n52TU/w/PBlZ6kvhxPqiElBd0+bzKpmkRCnwiH3R4AAAAUCkJkAADmifLycl2+bZs7B2A+Mj/D5md5Luu75BJ98JnfUmkwHR87NZ5jg4N2e0UsZn8FAABA4SBEBgBgnli/Zo3bAjCfzeWf5dTGFTp596f09pbt+ne/+VmFg0E7QI4ODCjhhsddPp/9FQAAAIWDEBkAgHliyeLFbgvAfDZXf5avXHVWf37ti1pe3q3BYJGe3XyZ/vgzn1VXLKZ4JGKGI8vckfvpUKmzAQAAAAoGITIAAPNEZUWF2wIwn83Fn2UTIH/lxiZtKjulvzn7l9oQOaKBQEBPLF6uf3PbJ9RvtU2A/GR5SK8UlzgbAQAAoGAQIgMAME/4+Ag5cFGYaz/L6QB5UUVEvoS0qfeE/qblb7SyvVG98bie3nip/ugTn9JPKsr0y5KQBjxcQgAAABQazgABAACAApUdICthXRoMlsiX9OqSwcP628Pf1PrBkxoKBnRosE/PlpSqz8vlAwAAQCHiLBAAAMy68JFdamx3Z6bKQJNee6/NnRlLmxqf2KnnR07n3GYea99jPb891rMGHGMFyEr6rSklX0dMW/ua9e3Tj2jzmy+o+oMD6mcEMgAAQMHiTBAAAMyugSY1Nna6M1MlrKNv7bH+HIu1bLcJjF+Urr1Pt9ybO23Ri3aY/NqRsbcGLgbnCpDVkbB+LpPyJpM6eCii6n0H5B8acrcEAABAISJEBgAABcQEyE/pcNWNTmBc63Znqdt6n265bbvU+NTUj44G5oDxBMgpq7nzWIN+ebJW3kjU3RIAAACFyvPwIw+ZGy0DAIBp9szTL7itiXng/vvd1kXElFh4pcmdsay6UbdsrbObbe/tVGOz3bTUaM1tN2tlqTtrjNy2eruuuWGtQnaZihezyjas1ZZ7t8vs1ZTNeO3kcnc9S/Y+zGM3nLLmu5zHCptlGt7WMWLfw49pMeUznt2jcNZzGF4/e72Rxz3iudnPWzfaI6Izz995Dsp+TbIeJ/28tiw9njWqO/O8bfbj5j4fe7usUeB1144drOdIP093Nuc1MM6zfCLP72L06OOPu62ZdSEB8s9PLVJfzFoGzDG333GT2wIAADPFd/c9d/6Z2wYAANPocNNRtzUxl23d6rYuIqEGrV5epLYjraq+9j5ds9qJGp0A2QSLt2jLxk1aXdOtt1/8tcI1m7TIrGIHoibsvVuXb7GWb1wp77GX1NhTq9WL6rTIzLd9qK6GG3XLjekAs00Hd7ep/vorVBdwAtSX3h4a3sei8OvW/ClrvSVauqVBoVCFtY/XdbbUfcx0IGzCzRuvsh5zk8p6ntc7r0VVttFaP7BAS2uiam48Lu/yVaqyHqPtvafU3G09j49vUrXZxajjtvYRfUsfvO3uw1olfGa/2pqPKbzsLt3wkcvc12e/Th7cn9v39ms6GVyppdVBxbqadfLYEbXFNuqaj1+vDfZ+f63G9LGZxx5oVfMJWa+N+zh2gKzMsVj7bH7x+eF9jskc/4v7nb+ry93jN6/BwSItWrFAQXd5cIt7nOm/l2PucmsXE3l+F6O9jdaLP8MIkHGxWLN2pdsCAAAzhXIWAABgbhlo0pFmMyo2axRt7XZtWSW1HWiyR7iG+7qsP6tVOjwyOaSVN9x3zpGr4SP71Fa9XLVmG7cOc921mRHAodWbncerLndD55BKq8xjOWNq7e3NiNmsx6jbeqO1jXW86frJ9nF26vBb1nG277FH1WY/j7aWJmnV5pwR1XUNa60/uzQw4Mw71mq1G6irtEH1JoGutvY9oi/cPzze11KjNVdmRvyOOrYcbTpiPf/Qlqszx1JqPbctNQo3HrKWjs05/htzRivb5T/skcZhHbX+fszy9D8G2H8vV25XqGuPjuSUBpnI88NkECADAABgMgiRAQDAnBJuPa6w1mrRiLIKdtja1WeHyKH65QqpSY1P7Bx33eJwf6dCS91RuHkew0ivkyus9pOd0qolmWDbVqdFq3LDzrq1Tmj6milZMVbg6obQZrS1uYFfbmkL13CQbThhtqoqxjiuLOmAfNjoYxvWfkptqlF9fe4endd1ZKCd1qYzzdY6ZfmOIiyT7Y9a7gbCbS1Z0fREnh8mjAAZAAAAk0WIDAAA5iAnILZD1vSUHbaWrtU195qRtlLbK+l1dunomOGnEdZAtxQqd2JKEyiPDoQd6XXG1Pxi7jFZU6aur8s6ttWrTKNGa9aOeART7mF4O1ML+T7dcq0ZiTwbOnX42dzn8nx2LeM8zvn6WM63HDOLABkAAABTgRAZAADMQaYe8n26ZdSUfZO7uqx1TKBsQtE9eUsxGE5pCidQHmWg11pSo0wGakbejhita+oh5xyPO2WX0XDLWNghrSlrYXcamXIPznYjbhQ45fI8z2FuiD3yuZznuNLlPfLJtzz/CGZMFwJkAAAATBVCZAAAMKeEyk2B3NElFcyN4J7fnR3KZqvTltu2n6MUg1sywea2u01onNHWZEbhZuost71nbqKXrl889jZ2MLx7p14brjvcpka3jMUt5ni69qhxeJlT7qGuIXd0sl1neCp0HVd7znMf+/FsIVNOolOj8l57pHS+ID4k81eTv05xnuUDLWo1ZS4YoTyjCJABAAAwlQiRAQDA3JK+OV32qOL0jfAucW4cZwfKI8JOOwQeVRc4w9RUDp9ssUNgp75y5mZvZn/26GG3Vq89371d14y8iZ6pdfxe5lHDR17X4a7MTeJybr43fKO6190yG07Imr45oC1r1PJ5BviOQ+7IZzsEr96u1WPUfU4fW9sr2SVAnAA8tGX9mGU+zPGvtF5/U9Ijuw515u8iszwTqod19C3z95LnODAtCJABAAAw1Xx333Pnn7ltAAAwjQ43HXVbE3PZ1q1u6yITWKBgdL+aG62prUiLVixQ9aJNKov+Wo2vWX0HrelIq6qvvW/4JnXB6lVaFDygd3a/5Sy3prbutdry8U0y45itNVRVGrX2ucdadkbe5atUVeVTeO9r6qrZpEW1Ddb2Z3TwbWf7rkUf0w1rU2r+cL9OWvMnQ1fplquWWXvJFtKijbUKv/ai9rmPebJtibakS2y079FLb59SaMs12lDtbBmsrpO37T0dfj+qso3LtWSFtb11DAfd7ZtPLNCW21YobD2/WNVKLbW2C5+xnstQg5Zar0P68e0+rdTqRenRvDF1H/tQXcVOX6yr2T6WNevOqNF9Tdo823XNDU7obhtotR5P1nNwbhzovIbNanw1/Roek7bcpWvcQNwwAfFLjQn778Q+llCDVi8vUvOLzw8/h5zXwF1+8tWX3OXWMTbcmPNaTuT5XYz2Nja6ralFgIxCsGbtSrcFAABmiufhRx6yTiMBAEYsFlPL8ZNqa21Vd2eXwv39ikWiSln/AZNV2bDMbU3MA/ff77YwYaZcwytNqssKpPNrU+MTzmjenDB2DjJh72uN1ZkwF3Peo48/7ramDgEyCkVPywm3BUycx/ovUBRUqKxMVTXVqquvV8PypQoEAu4aAIBsjEQGAEtPV5f2vbNXr//qJZ08dlzdnWc1NDioRMK66AamSHF5pduamIt2JPJMyhlJa0YHO6Nyc5k6x0/o7b3OyNwbLqsfMSJ57nFGIpcMjzLG3DfVI5F3rOrWV25o0qJKAmRc/CL9vW4LmBxzrm/O+c25/ynrGuDge+9rYCCsUHmZikus91EAwDBGIgMoeO+++bYO7dvvzgHTh5HIc8xAk1571txMb7TQiLIOcx0jkeefqRyJXFoc0L//lxu01PuYPPEBAmRc9BiJjJmwfvOl2rbjCncOAECIDKBgmdHHb770qro6O90eYHoRIgNIm8oQ+a5r1+nBu7fIGzkonf6hPLEoATIuaoTImCnVNTXacf1HVFnt3HEBAAqZ1/0KAAWl40ybXvjFswTImFdSJgkCMO9N5c9ycdBnh8heb8Ca2ah49SeVTBURIAPAFDDXCuaawVw7AEChI0QGUHDMCOSXn39B0UjE7QHmh4HBQbcFYD6byp/lj162QosWlNnteDSmmLdB0bLblIwWKZXyECADwCSZawZz7WCuIQCgkBEiAyg4poQFATLmo7b2drcFYD6bqp9lM6L52MlWxeMJxSODig2FrT6vEqUr1L/8du08sYQAGQCmgLl2MNcQAFDICJEBFBRzEz1KWGC+OnL0qNsCMJ9N1c/y4OCgXnv3iP7ykSfV39ujVDKpSCyh3fva9dfP9OrnJ2oJkAFgiphrCHMtAQCFynf3PXf+mdsGgIua+QjaG7tfdueAmVdcXum2Jqa3t1cLa2pUUVHh9gCYb06eOqW9773nzk1OZ2eHurt7tO/QcbV19SvhLdEPXjisNw916PTZQQ0lPO6awMUl0t/rtoCZ1dnWrqUrl6u4pMTtAYDCwUhkAAXjw/0fuC1g/nr1jTfU29fnzgGYT8zPrvkZngqDgwPq6+3V4NCQyiuqdbg9pR+/3KwPT/eqqz+iRJIbcQLAdOCaAkChIkQGUBBisZiOHjrszgHzV3hgQM/u2qXWNu4SDswn5mfW/Oyan+Gp0NvdrbKyMq1bt04NDQ2SL6CecFRJwmMAmFbmmsJcWwBAoSFEBlAQWo6fVMr6D7gY9PX36+lnn9Urr7+u9o4OtxfAXGR+Rs3PqvmZNT+7U2XBwoWqrVuk0tKQ/IGA2wsAmG7mmsJcWwBAofE8/MhDpCoALnpvvfyqmg81uXPA7KhsWOa2plYwGFSotFReL/82DMwVyWTSHnUcjUbdHgBTpaflhNsCZseq9Wt15XUfcecAoDAQIgMoCM/99Cn7jsrAbJquEBkAgEJCiIzZVl1To1s/eZc7BwCFgSFLAApCeAo/QgwAAACgcHFtAaAQESIDKAixCB8nBgAAADB5XFsAKESEyAAKAjfVAwAAADAVuLYAUIgIkQEAAAAAAAAAeREiAwAAAAAAAADyIkQGAAAAAAAAAORFiAwAAAAAAAAAyIsQGQAAAAAAAACQFyEyAAAAAAAAACAvQmQAAAAAAAAAQF6EyAAAAAAAAACAvAiRAQAAAAAAAAB5ESIDAAAAAAAAAPIiRAYAAAAAAAAA5EWIDAAAAAAAAADIixAZAAAAAAAAAJAXITIAAAAAAAAAIC9CZAAAAAAAAABAXoTIAAAAAAAAAIC8CJEBAAAAAAAAAHkRIgMAAAAAAAAA8iJEBgAAAAAAAADkRYgMAADmnXv+4jva+aNHremv9FW3DwAAAAAwPTwPP/JQym0DwEVr5/cec1vTK5lIKdwX02B/XENDccWiSSWsPocn52vKfLH/sL6YP0zTk72Ox+o3S9LruF/Tq9iy13e+Oo+WWSm9fnp78xApe7d5tkl3W0y/2c50+XweBQNSaZFUVipVlkle/inyglQ2LHNbE/fVbz2qm5e4M9nCB/QPX/xrPenOXuxMiPylzdY3ok5r16f/SA873QCAAtDTcsJtAbPnvge/6LYAoDBw+Q8AUyAylFDbybAO7+9S64l+9XRFFBlMZAXIRnbb5Rmjz2KHvPb6Jr5Nr+N8tTdJd1mc2ayOPLKy4Ux+bMu/bXo1s0Y8IQ0MSR090tFW6b0m6USrR0MRZx3MstAl+hKjcgEAAAAA04AQGQAmqbMlrBOHutRzNpJOdK3p/KFudnY7nOkOb+d8TY8RHskJga0/PNbbuNevlC+opL/InlJm8vnN0GF7xUxO7TRGPITNeXy3I6vfGD42d0F63syZQPnAUY9Ot2fWwgwxI48//YDus6Z/2Dfgdi7Whq+7TQAAAAAApgjlLAAUhOkoZxE1o49P9CkyGLfnk9n/LmdnqjnRbBbTP3KZGxfbi5xlI9cxZSVSnqAS/lIlg2VK+ouV8vqcyQTG1lf5vNa8tZ07mRHK3nhEvoFu+fq75Y1FhvdnHiZd4sJw2pn57GYye8Zqm7nhshpuo7RYWlGfUnGRPYsxTGk5i+zyFfd8Q48+eIlCpnvfP+qBN7cNz2eMKPvw9b/SzpsXuzOOU7se0B9822rkWXZwg/vYp3brvt//rt0/+nju0J8+9jltth7cPpY/edpeL1N+Im1A+773Nf25W38jpzzFLulm8/hZzzGnjIfVv6t5hW6mnAUAFCTKWWAuoJwFgELDSGQAmIChcEynD3cPB8hGzqhhu5k1P0rWMjeMzY5pjVTKjoCV9BQrHqhWtGS5IqEVihfXKekvsdfxJGPyxQfki/TJN9Qt32CX/EM98kbC8sSj8ng9SpRXaWjZBvVvvU79m69RdOlqJSqrlfIFzKPY+zGcxx/7mEcdm/s1myl18eEJj8KDbgdmzD07VgwHxt1tT0srKkcEyMZi3ZwudzFGSDzsHMtOdrkjnpesdctmfFkb0sGu9b15+T2msVjV9oMPqPlNEyCbUPnREQGyUarNDz6qb44aOW0d54jHH1UHOnSJGyADAAAAAGYCITIAXCAzArn1aK8SiaTb43BC5BHxqjU7MoDNNrws3bB3Yf7wKOkrVzSwSLFgneL+KqsnoUDkjIoGjqmoz5p6m63pqIK9pn1cwZ7jKuqypo5mlZz5UCWn9qvkWKNKD+9R6NDbKj75oT36OLJynQa2XqX+HdcqumyVPZL5fEYH5Flfs5i6yYdPUSd5Rtg1kB/VTmsaDmjDB/S8GUn87T+yy1wMT987oLC9glPu4p66KnvOGcWbWc+MQj7XsiffPObup0p1JjC+p9ZqWQ8bNuFyqapXZPoUPqZ3zBDir99gj0o2zGhmZ3//qH3OjrTk6m/Izp6zmBHM9npmFPI939DV6QDZjIAesT0AAAAAYPoRIgPABWo70ZMVIOcmqTlhq82dz+keI30d7vMq4SlV1FerhK/cRMnyJ3pVPHRCwcGT8sd65UlE7BHInpQ5hvR2I79aUilr3bi80Yh8g/0qOnNcocZXFdrzsgKtJ+zgenDTZvXfcKOiy5crFfCbroyxDtPIWcky4uaAiYR09MzIlTDd7OA1Xd5CX9Y33YDZnkaUtsiEwWZ0srNOekTwuZbpyXfVbC90AmNnBPSAmpu77cVLNnw5Mwq6u90+luxQ+qAJuG1P651md1RzqFJLnZYrPYLZNTyqekD7nnFKaORsDwAAAACYdoTIAHABOk/3KzIYs1r5EtYsZhU3Sx0uczzMLHT2kc5gk56A4r4qJXwVdngciHcqEGuTP95trZMum5GuYpy7rWH6M7PZ1Y5d7kJfuE/FH+5X6M1XFXrnTSkY0MCOK9V3282K19ZkVhwhE5BnLR97VQ0OSqe42d70MvWC3VHCZkrXHnbKR9wgZ/CuqTtsLR8eiex68q/1wKd365Q7ayy5+VHt/NaXz71MT6vNyYu1ZMM3dPmqUmfE8Zs9zv6ravVVNzQ+ddAJfJdWX2jZiW61uXWSjUwIDQAAAACYLYTIADBO0cG4utvDYwSnmY7sgNeWJ2TN5tQ9LlXCW2bP+xM9CsTb5UlFrP1lSmaMN5I1lZTTRm6TDp1NIOyJReU/06ryZ59R8YH9ShUF1ffxj2noii1225Z1/Ln7GvHERoxGNtq6RFmLWZGpSTx847oxayR/V3/gBtC70olxVa1bWiL/socPnnbnV2iV2akZcZweoRyq1AY7NM6MOh5e3y2l4bjDCaCNcI9OOq0xPZlOrVWqVTvucNtf1i3URAYAoKCY081gPKlQNK6KSEwVQ9ZkfS2zpuJ4Ql67JBwAYLoQIgPAOPV0ZH98Pv9J6qiSFukT2jE2SVprmwA5qSLrxDcif6JLvuSgs667XXYonJYd6Gbazujj7HnbGAFvNlMWo3j/Byp/+lkFzpzR4JVb1XfPx5QsHx3SjS7XcW5t3bnRM2aSc+M6u5zFiBvV3fMX38mUurCm9E3rws3vSudYZg8Q/naTM0o5VGoH086I4/QI5cVaYtbPDoa/vTtT/9iMaLb3+7lMneTX0yU48sjaPrT5c+726ZHWAADgYudPJFXXP6T1HT3a1HZWW1qdaVtrp7ZaX7ee6dJma7qkvVvLesIqjSXcLQEAU4kQGQDGIZlIqbdr0J2z2FlqdqCaaTuxadYyN0cdWdIiKZ81lVpreuRNDciXClvrOCOPs1c17dyBFekZ92vOMmc2ZzTyiOXpRbmPkZJ3cEihXS+r5K29StRVq++zH1ds+SJ3DceIp+BI73/kA1mznb3W88y9/yCm3Xf1BznlK05r18hyFmMwNZUzJTFy5S47ra7hnQ2o65jTyow4zgqcbU/rz7+YNaJ5mHPjPnPDvnMz24+4kd6p3fqHfdREBgDgYmZOLZf0DujKUx3acuasVnf1qaFvUDWDEVUPRVUZianK+rrAml/UP6gVXf12kHzlyXat6+xRkbnjMwBgyngefuShEVf9AHDx2fm9x9zWxPR3DenM8R53zmWnwiPjXod5YzVlKobZi7KqCqd8SnqKrZbHWmvI+jPpLDPrpZz9uF+sPqthFroptLOP9L7cldxVHM4yT3qZO+9w9+EuSldOth/C3sjMexRfuki9990qeT0q+6dnFTjZZq9nmG2y92e2sOfthrO/YdbsinppQUVmi0JW2bDMbQEAgInqaTnhtnAxMmeTJgA2o4vr+jODOMYzAs6ccabPOsPBgN6vq1JnafGoU9SpcN+DX3RbAFAYGIkMAOMw1B91W1ns1HXscNQ5Tx29zO5Pea0T2aDVTlpvwgPWV2eUxPC5bXpEb/bmo0580/HvGOvmNWonOT1uRm1JyX+yVWU/el6eeEz9v3OHYmsy5RCyI2QjZ26M0chZ5/4AAABAXl7r3LEmPKQdJ9vtANmcnprQwkwjzjJHMcvT65uvoWhMl7V0anlPP/WSAWAKECIDwDhEBuOjy0LYsjtHrpA1bzfNHx6lPH677VHujfOM7MewM10znz7pdb9kRhi766QNb+sEzOO5wV56o8x5dWabwLFWlf/gWXkSCQ3c9zG7xEVaJki2vmY2GdPAkNsAAAAAzmGBdeJoSlKUR2L2+Wv6HNacbnoCAfmuuEz+HVeMmnxXbJe3ftHwaWl622AiqY3W/lad7ZMveZ6TVgDAOREiA8A4xKN5aqrZn40b+4TUeYPNXWZKXJgA1quo9TUdIJt1Ru5jrH1mrz/6a/oke7SR6+fK3m5k29d6VmX//IJ8AZ9iv3mjUuUlw8uGpWeGd5/7ONGY2wAAAADyKI3GtaltdIA8rLJSwTs/ruDdd4yaiu65U/5LN2Z9ss7Z3kwmPF57tk8ru/ryDAoBAIwHITIAjEMi4d7wbtSJ58iO3Pns0g8ptxibU77iHHebM5u4J8DD58FmqLBduNiZHe4fIdOfftzMV3tZ9obpRa7h0cjD/c42/g9PqfSffqXg4oXyfuZG60x87F8dw7vOfgyL+9IBAAAAY/JbJ4xXnO6wS1DYp5LWiak5JU1Z579mMufBHr9PnqKgNRWNmmSmQMBa15SNc7ZxTmmd81lfMmmXtajhI3IAMGHcWA9AQZjsjfWO7D3jtszJrNtIs+fNH+kFuSuYysdG+kZ7Hk92oYm03G2dAc5u2/xhmuYE2pbVb0ufJLv96dXc/tE32BteYfS67rwbOVvcbayTdt/d16r4yg2K/fBFRfc22UuTWesNM80RL9L2Dc4jFzpurAcAwORxY72LixmksfpsrzZ09NinkWbyrlyhot/8lDylzqfgbF7rXNqExsPnxBkpMxoiHpdiWR+BS6YUfe5Xir/xllJJ5ybWLRWler+uWtE8gyIuBDfWA1BoJv/OCQAFzOPxKhAIqrikWGXlZdZ5bVD+gF8ec5I7zAlQTfkKu4SFNTvGqa/71WVmp+DzdiMfZ9T88EM4jcxo5OGG8yWeVOLJV1TS1a+637hBnmDA7s7sz1rP+n94fgqOHQAAABe/0lhMi/sG7Hb6XNJTWiqPdX6tkpLMZEYbW0xgPHKy+f2564dKpWJrHx5nSIWZFoSHVD0Y4VQVACaAkcgACsJUjkQ2Nl5+qbZdfZlWrV/l9lisM9P0yAhzMtvR2qGm/YfV39evD/cfUVdHl9VvL7ZPZke/+Q6fNtt/msG8futkuLyyXNFoTP39zsm1w13H/jPdTm/vbOsY/2jk9PbmKeSuk9mmdO1irfzi7RrYd1THfrxbyYQZ1ZFZL/tL9mhkRiI7GIkMAMDkMRL54mHC3BXd/Vrf0aNAMvMZN1VVyr/pEikYdDsmwNpf4nCzkqdOW4/jnIuaKmvHq8r0QW2V4t7MuepEMBIZQKEhRAZQEKYyRK5fVq/7f/9LevW5l/XWS28rkXBvumedh5aGyrTtmq26/NrLVRIqkdcdkZyIJ9TX268f/Ledaj/T6axsGf0GbPo9ChQF9Bv336U1G1bZwbRZ77mf7dZbr75r12c29ZWdsNesb5bmhsN2226m+03L2Xd6fnhd54vFWebm4FZ7eIHbtvZgnWxvfvBO1Syt1dv/9Un1tZ7NLWlh78CdMgdBiOwiRAYAYPIIkS8eAeu89pL2bi3tCY/6mHTK55O3fpE7d4FS1vlyX79S/eHhANkwrXDQr1eX1Sni9zmdE0SIDKDQECIDKAhTGSIvqK3WlqsvU2RoSK8+/6rba7HTVyc0NbzWie/6LRvUsLRel2zfqKoFVfYI5eZDx9T41j7t33tQ8XQAPcyjhmX1+uTn7tTg4JAalixSsCigWDSm3p5+u1TG33/nn9TV2eM+npvVuo87HPxaXzJv7m44bC8bvY1xIaORKxoW6K7f/4yOvr5fr/30ZXub7McyWwwH026DENlBiAwAwOQRIl88zI30trR2acFgZHSIbJ2Qhv7vP3XnLpB1nh558hdK7HnX7XCYM1Izvbp8kbpKJjHK2UKIDKDQUBMZAMYhOyY9296lF3/2q9wA2ZY+LXWYUg8f7D2gX1nrPvyXj+if/vs/2/2rN6zUJz//CX3lD78kX07tZKmopEh3f/bjam/tsG8AYgLkA+8d0n/4o2/r7775fRUVB62pKJPtDks/rvs1cxgjOAtGbe7K7s9dJ7PD3paz6nznkK7/yCaVlpXkvDaGmRuuM5fvgQAAAFDwgomUiuOJsU8ZUyl7NLEZ3ZAKDyh5usXutu89Yp1nJ1vPODfSM6MfzDpd3Ur1u+ubT+5199jrZ0s/Tlkk6rYAAONFiAwAEzTqhhwj5ssqylReWWG3U6mkDr3/of6f//ObeuYnz6uvp091DbX6X//0q9q6Y7O9jlFZXW5NFUpa669Ys0wv73pDP/n+U/L5vLrpjmt16nirznZ0uWs7nLG/jrEzW2d8sXUa7swOy8xnnovTyHzqb+Q2jnde2Kt3dr2tUKjYns88rru9/acx9vYAAACAL5mU35rySZ5utU9Mk0eaFfmnH0mxuP3JvlR3t6I/+4VSHaZMnCUaVeyV15X44JC9vqmHnOrrc5aNYM5bS2IjPw0IADgfQmQAmEqZ9FVX3Xil7v3SJ+Vz662ZE9ZIJKI3XnxL//U//p1OHj2lUHnILl1x+7032+tEh6KKDEW05fJL1fj2fv3qqZdUUV2h3/3DL2jT9g36wXefUDQ9ciKVPuEeGdQ68yND7pFB73hktkm3nW07O3r0/LNvq/2ME2iPHI0MAAAAnI/XOoU0Uz7J1lanEQwoNTRkNZyVU9GoUgODdlhszw8OKtXRYbdtyYS1PPum1Ll8WefsAIDxIUQGgHEaMygd8/wzJXMzvPqlDaqqrlR5Zbndmx3CDg1G9Q/ffly7f/lrxaNxXXnddt348evUfbZHp46dttfZeuUm/fHf/KH+xR98QR/sa9J//U+PWevG7GU289E99wQ4e99jS49DzqyTHRDb3EXp/tHn1lnbWivdedc1+sxv3qiSUfXk3PXSq48asg0AAABYp4vmxNOaRp2XupKnrfNi68TTW10tT0mxUvG4s2DkBpGokj298gTd81ITLmefN49g6i0DAC4MITIATEK+089AMGDXNw4WBRVMn8xast90k4mUdv/yZb303Cvy+ry6/vZrddnVW/T2q+/qrVf26j/+8bf0t3/6sP6ff/f/addTL6mvp9/d0pJOeEcdgFO6YlFDjZatqM9ZbNqZODfdyvRk1k3fXi9t5Dop++HLyku0fsNylZWV2r3jD9kBAAAA63zY41HMm/8zbcmubvurp6Jc1km1kqdOW+eXo9dORSJSZEgqLrZWtvY3MJgJnLOYLc005H5SEAAwfp6HH3mIS3wAF72d33vMbU1M817no3TOG+aIiDV31lZaHtL9X/uCqhZW6dkfPqv2tg71dvWpr7tXSXt7dyP7i0cfu+sGXXvL1erp7tNj3/lHdXf2qGFZvdpaOpSIJ4Yfo37JIq1cs0zBYieYNstOnTyj5g9PZJ18e7Rs1WLd/+VP6sc/eE4H3j9s9waDATVY25uAuaTU1DL26FjzKTUfbrFHFm/etk5nznTqTOtZe5nZX3qQRnas7LQ9uvGmy3TzrVfov/3Xn+rkiXZ7mfPcjMz6prl9vdsucJUNy9zW1PD7/VqzapXqFy1SeVmZ9feV9boDmFWmZmdff79az5zR4eZmxccIMwBMTE/LCbeF+a48EtOWM2dVPRjNPnvMqK5U6b/9Q7sW8uB/+658a9YoePvNdpmLyD/9WMWfuVeepUuUaD6m6E+eVJE17122VPG97ynygx8Nn8ummfNbM72xtFYd7r09Juq+B7/otgCgMBAiAygIUxUiGyPH6Rom5PUHAvbN9G7/zO1atnq5PQp5ZKhnQt+B8IBeeGq33n/ngOLWvFFWWaYvfO1zWlhXY9dBfuvlPfrSv/6cjhw8pud+tlsr1y7Tp7/wCbuGcrZUMqVEMqG/+9YPtOMjW5VMJvXzH7+giqpyPfDV37TrJ3/vv/xQd3/6Y9q0ZZ083tzjMaH1d//Lj+39fukrd+u//L//rG6r77Y7rtHlOy7Rz594SXv3HHIGfAw/Fydg3rJ1tX77/tv1d//9ZzrcdMpe4pyYZ9ZLfyFEdkxliHzphg3avm2bAtb3HYC5LRaLac+772r/wYNuz/RLeLyKe4utrwElvT4l3c/CeKw3dG8qIZ9i8iei8qfyf9z7YrApldQd1u/JeusXVKf13J+1fk++XTS54AizjxD54hFMJLWprUsNvQNjf0y6LKTSP/o3knXOO/R3f2+d+yZV+q++okRLS26I3HRE0V0vqvhTd8tTu1DRXz6v2Au7R52Lm3NVMwr5leWLNBiY3GhkQmQAhYZyFgBwwczpZxbr3PTKG67Sg3/4ZX31j7+qtZeuGy5hkbROeHu7exXuD9uBr7nJnqmRfPfn7tKXvv55Laitsrfv7w2r+eAxe5vtV29RoChg72PpygY1LFukz//uZzQUierNl/foxV++oud/9pJ+8eNd+tH3n9L3vv0D+2Z8azeu1LYdm7TtikvU3xe29tmvBTWV9vTCs6+r6dAxe2TckQ9P6I1X3tPuXW/p9VcaFQj49en7btY7b36gWDSuB3/3Xl13w2WKWI93/U3bVVpaYufHZiRzaWmxNRXZUzTqBOA1CypUUlJkT6XWFLKmnNP1ES8XJu+aHTt01ZVXEiAD84T5WTU/s+Znd7olPH4N+CvVH6jRkL9cUV+JYt4iJbxBe4r7ihSz+oZ85QoHq631qhW1ll+Mrkol9LVEQjuS0hrrd9Fl1u/hL/T26QrzkXcAc0LM61WfdY6ZyFfSImH9AJsb6vm88pSFlGp3Pv2Ww4x2sNbxlpfJOkm1zq2tfbW12V9HMo9x1jpXNSU0AAAXxnf3PXf+mdsGgIvW/r3vua2J6W7N1CN2TjkzJ543fuJjuuL6K9X4xrt66gdPafcvXtTbv35Lazets9f6nw//T+16cpdefvZVvfXSW2o+2KwlKxarbnGdvf3hA8327kpKS7Rx63oVlxZbx3tQmy+/RHHz0b3wkNZvWqOhgYi6OrvVeqrdLnNxvPmU2s+cVU9Xn2obFuqq6y6TzzrBXnfJSr3z+vuqXlip5auW6MTR0zp5/Iy2X3mpXQbjiR/u0vvvHVbz4ZM6eviUrr5um5Yur9cvnnxJ9973Ma1avUSnT7frH/7u57rqms16790P7QD8X/zeJ/WJT35UN9y03Z4u277OPv6Nl6ywS1tkTydPtqujo8da6rFfg/qF9qoFr7i80m1N3NbNm7Vl0yZ3DsB8srCmRslUSmdMuDENhnwhDfkrFPcGlfL6lfJ47RClKFikhdWVqiwrtWY9ili/W+yQxVqetNZLmJDZ47dHJeeJceadKz1JfSWWVL3VTo81TCUSCg4OamEyoRdLnHr+mJ8i/b1uC/OedaJoAuSF1nmuGZWcOcN2+XzybVhv10ROdXQqcfBDBW/9mFL9/Uq8/4H8l260w+X4+wfkiSfkv2SjvU3sV7uVCodz9mfe3cxjNVeXq7e4yH7sydi0fZvbAoDCwEhkABgHr2/ss0wzwGHBogX65//+T/r1M79Wd2eXPSrYnJV6zcKszVKppAbDg2o50aqjHzqjgk8fb3GXSsUlzkgw02/KXni8XvuGe4cPNuv5n+3WB42H7Bq4l25br09+7uP6g3/3u/rqv/kda36d6hbVyGut//7eg0pYJ+Cf+PTHdOZ0h70/U9ri1ruu0/KVi+3Rwl/+vc/o3/xfX9bNt1+touKg1m9codaWdl17/TatXrPULmfxz//zOS1aVK24dcFtjsWU3Xjj9f16/pk3nenZN/XyS+/a+//wwxN67tm39Nxzmamj3bkJimGdx2OKlJeX6/JtXLAA85n5GTY/y1PJlBEyo4+H/GVKeAN2OFxRVqo7b7xG/8fv3a+//re/pz/5+u/oj7/2Jf3ff/gv9Rd/8BX99j23asWSRdbWHiU9PsV8pQr7q5Ww2vNd3yWX6IPP/JZKs25sa363xgYH7faK2MVdwgOYb/qKguq0zlFNyJv9z1h2O5lUst05p/UuWWx/NZxhCu6JtvXznTrTLpmb5Vnnw3ZX/+gA2UxmFHJXafHw/UYAAONHiAwA4xAI5l5Up0dqWees2vWTZ3Xbb9yuBbUL7D7D67VObc3kcSaHs40paWHquf34sZ9q39v77T4TAK/f7IzsbWtpt2/AZD5l5/X6NDgwqMHBIW3evlFbrrhUK9YsU093r7737f+p40dO6obbrlF1jTPC9cB7TWo52aa1G1aqvLLM7rNOq+3ayOZ4fv3C2/q77+zUIw/9o1547k0VlwTtYNmUqti6fYMS8aR+9qMXFe4f1M237VBvT1jh8KAdIr/1xn7tev5Na3pLu557S6+83Gjv39RD3vXc2zlTZ2d6hFBK1q4xRdavWeO2AMxnU/mzbH6zDPgr7LIVKY/P/gfMW6+7Qn/6+w/qtz5xs5avW68zpYv0nmeB9miBmgILFWhYoY/feI2+8buf14OfuVNlpWZbj+K+oAYC1UqaEczzVGrjCp28+1N6e8t2/bvf/KzCwaAdIEcHBpRww+Mu/nUTmFOS1jlv84Iy6/3Hb7+nOWfMTkScSiaU7Oy0ZjzyLV2iwFVX2Ms9lRUKXHGZVGad71rny75L1sm3bq11ou2+f40oW2O2iVrLTpeXatCEzQCAC0aIDADjECwJWCef6VPaXD1ne/WrJ3fpE799j6668Sq79qU9itg6obVD5BHvtAN9YT3zo2d1cO8Bt0e66oYrtWzVEvvGeG++9I7TaW1rRkB7rYvdqz56uX742M/1k+8/pbde2au2U+26ZOs61dRWq7i4aHgU8+BgRM/97CX7pPvGW6+y+8529GjjptX2RfThQ8e1eGmdtly2Xtd8dJs9atlMK1Yttmsjt7S0W/us0ue+8HHVLlqg53/5uuLxpL0fIx2HG373ItxsP1L2x6FLL85Sm7NiyeLMCBwA89dU/ixHfKV2jWMz+jjg9+tffPZufeGTt6uotkE/7irWwyekfz6d0DNtCT3XntDPWhP6h1Mp/beWgI76a3TLdTv0b//lb2vRQvMPoR67FIYZ1TwfXbnqrP782he1vLxbg8EiPbv5Mv3xZz6rrlhM8UhE9mhFa72nQ5SyAOaacDCgxnrzaQjnLHL4TNL83Pa4gxOsn93gnbc77dJS+a/ZYYfJZuSFf9tW+davtc+fZf28p+LOvTuM9L5OV4R0pty8X7odAIALQk1kAAVhsjWRU4mUBnuG7JNQ5+NzaU67t6tXxz48qts/83Fdcf0OuwTEsjXL7XIUjW822jfOy7C2sf4PFgVVuaBCn/z8J7Tj+ivk8/l0ovmkXnz6ZXtk8LYdm+39vPfmPpWVl+qWu6+3axwvWrxIK9Ys1cq1y1VmnQx/eKBZsWhMS5bX6/Vf79Hpk2fsG/qtWrtMAwODevmFd3TDLTvs0c6XXXmJ1l+ySitWL9HiJbV69aW9Wrai3g6MjYrKMq3bsFzl1n5/9pPdOvB+8/DzNefkDqdRbR37jqsv1b7Gwzp9qtPucxfZzMerjboFHrkZd8GbbE3kq664wv57BDC/mRunvrdvnzs3cQn5NRisskcgm3+0/Mp9n9DHrrlcjdFi/ePJhA4PpNQdk4aSUtSdItY0kJC6rP4j1vL2uE8fXV6tS1Yt1Tv7Dto3cTV1kr3JpF0jeb4wAfJXbmzSyvJuXTa0X3sCW9USrNFBj19NJSFdf/iQAomEniwPaVdJqWKZX2qYh6iJfHEaCvg15Peprt8pPWP/lJqT73hcGhxSsvmYkidOOV/NdOyEkkfd9tHj1rw1We34G28p2ebcgC8dIHeWFum9+gVKTOF5FDWRARQaQmQABWGyIbI/6FdPWzoIdi48s/80IoMRHdh7wA5wP3LrtSoJldiBX2lZqeoaFmnxisVaunKpVm9crUuv2KSrb7paH73tWvsGe2YEcuNb+/T0D59VuH/ADpQ3XX6pXUZi7+uNOnLomPp6+1VeWa6FdQuUTCV17PBJvfnyu3r1xbfs2sULFlZZ7bftkcGtp9t1trNHjXsO6uTxVtUtWqC6+hr3SKUD+5r0k53PKzIU1bXXX2aH1IYZrdxyql2//Pkr2vfuYfsGUA732Q4/XY8WL16obdvX6c03D6ij3dxEz+7OYQLoFQ2mpIfbUeAmGyJTDxm4OJjfDXsbnZJAkzHoL1fc5/wr3cc+sl333XGT9g4E9KOWhDqiKdUEvbq8JqDB7i6d/fB9xc6cUmooLE9JuV2w3oTLbZGUOmIe3by8UgurKvTaXlNmyWPXRi5KDI58W5+T0gHyooqIvAmPFoYHtX3goF6NLdfxWJGOVi3QseoFGjp9TM+WhBTmH+PmPULki5cZkRwJ+FQZiclnnVOb96CUKUdz+Ig1NY9rStdQtvNn6+e9taxE71rnreamelOJEBlAofE8/MhD6YQAAC5aO7/3mNuauM7jPerrHLDrRmZLj7hNMx+Rq62v1W9/7X6FykN2fWNzQ7xMbWSHCY6HBofU19Ov53/6K/tmeyaATieuJnw2I5nNcofpd5bZb9ymaT3YcHt4/1nr2DwqKgnq2hudUax73/lA7WfO2v0r1yzRl/7Fp+z+f/6fz9jlLgYHo+aTg8PSH/lLP0/zMKZtRkvX1laprb1b0WjmI4PuarYFlV4tM7fGh62yYZnbmpgH7r/fbQGY7x59/HG3NTFJedVbVGe9R3sVKi3W3/6f/1qJsgX6z4fj6oqlVOb36I+3VKi6yKfu/gH9H//+Wzrb3WMK88tbWqaSzVcruGaz/bsp6JU+3eDTDVVJ/fv/8j+0Z/+H1iOkFIp2KZjMrSs612QHyEpYT2SwxHpx/EokPXqve6m+VvO7OlS0WJe+tlur9ryt/nlc7xkZPS0n3BYuRl7rPHRR/6BWdPVpwaC5YbVzepl1ipmXOYVNn8YOBP06URHS8aoyxdK1kqfQfQ9+0W0BQGFgJDKAgjDZkchGwDoR7esctE5MTYSafRqbe0pr5szI4A1bN6qouEjP/PMvdWDvfp1sPqkTR07aZS8ONR7S3tfe1au7XtNrv3pdne3dOcGtSWqj0Zh9Q7yM9OO4X+0v7pEML7IaZkfW13SXWWjKYjQ3ndKRD09oIOx8RNC4/uYrtWx5vbqtk/QXn39L/X0D7ol3ZutM02mYhzDMiOc+a/1kIn3g7oKsTZc3eOT3uzOY9Ejky7ZudVsA5rvJjkSOeosV8zufIvnY1dv1sY9crn88lVBT2HlPXuqN6r61VQr5PaoqCejVN95Wa0urUtEhJQf6FD9zUh5fQIG6JTJv46eGUrqhNqjqULF2v2l+Zzpv5nM5RM4XICuZkrcjrrpwty4fOKw9TdZrcOAD+3czLg6MRL64mQEMZkRyd2lQQwGfiuNJBa3zTvPuZibz7pT9NZuZN4HxyaqQDi+oUFt5qeLTECAbjEQGUGj4p3gAGKdAiV+VtaXZGalr5OmrU9rip489oR8/+iO9/84+7X/nfb3x4ht6+dmXrekVvfXSW3aQfLbtrJL2jT+y9uE+gGf0bocNH4O7Us661sLMbPbptfvV/WJGH1+6eY3d7rCOo7enz27nk/28s9v51FZ7VEwtZACYFnFv5g32uiu2qDuW0rs9SXs+lUzq0NM/1ofNx+z55hOnVWK9Ia9Y4n40JJVSMtyrwT0vKn62ze4ytZP3WNtv3bhGFWVOOG0eI/vXy1xyrgBZHdbv1YGkXdf54KGIqvcdkH9obo+oBpDLBMn9wYCaqyv0xrJa7Vlco9byEkX9Pvt9yUzmHS/dNqUquoqD+qC2Si8vX6QPFlbpbGmR9T42nrNWAMB4ECIDwAWoXlKhopKAdbJqTlcdY52amr7Otg4dPtBkjwI+H7cohcNuWn+M2nF6Hfdr1ibD7OHMHnncYc05+81iQufaumqF3KDgg/eblTIX3tb6zsNmtssE1E4jM2I63RixjfWlpFhaXDfWKwMAmAoJr/MxD/MPgutXLbNHIJsax0a8/ZR6jn2ov/z2o/r//dW39J//7gf6+pd+U9/4vS84K7iSA/2KHNprt807+P7ehIqLirRq2WKnz+O1+ufe5cJ4AmTzu2rnsQb98mStvDmf6gEwnySt00lzs72W8lK9s3ihnluzWD/fsExPjZieXrdUr6xYpCMLyu0yFlNd/xgAQIgMABesdnmVfKM+FucGqOdk1hl7vZHBbdro09/MOqOWZW8+xsKRj1G1oML+am6m13TouN1OG/24jpz+nMPNzFjn+Vpez68XAJhOSbe2b3moRKXFRWoZzLwPm1IVqXhcJ1vbtfdAkw42H9fBI8e078Mj7hoZsVNH3ZbU4g7WraupchqWpHduvZ9fSID881OL1BdzwnYAAABMDjWRARSEqaiJnOYLeFUcCmqgZ2h4VK4TruZGr/bcyDR2VGem7ewqa9moddNMn9OfWSW3SvNw4WK7P7vtfDWCRUFdec0Wuw7y8798zXr8dK3n9PpG1hbD3W7fiHnz1e/zaOUSr0qta3qMRk3kmdSmxiee0r6D+9UcrdXqRSG7N3xkl17a/ZaaD56Rd/kqVQXyr6uBJr321PM6aPW3BVdqaXXQ7m57b6dee81a92BUZRsb5KzN42UeD+Mx2ZrIQ/4y623Xq/JQqT512/Vq7E0O10OOnmhSvMUpZWH+odDcyPXA4aN670CThkaOyvUHVLLlartZ4pNurfNr7/4P9eHRk3ZfMD4gn/2h8dlHgIw0aiJjLqAmMoBCw1AxAJiA4rKgGtbWqKg0+wLVTZQnyIliR+9jOKvNMWK9nKLIrnTCPWqfznzLyTbtb2zSqRNnhvscY+wrj+xjKy2W1iz3KuRUyABmVfjIPjmVXi3NL6qx3TTadKSx0+6SOnX4rSaFrdbY61prN+2xlxvhxtd1dMBqDDTpSLPTJzWp8T1nSx4v83iYGZ6UE+z2DwzaIXF51q8jb8j5pEm29s5udY1R+94bKndbUpnPeVfvC5tvBke6PNJsI0AGAACYXYTIADBBwRK/Fq9fqMo6Z0TeWGHvqGzXns/uzLTN9qNqGI958T5yHferZfgYzHZmqLC7vdM/el9P7HxOTz+522o5yzK1nt3yF8M7tLiL0l3Dh2Z9rV3g1bqVPm6kBwAzxJty6u1HojGd6ezSytLMaX1wyRrJN74QtWjlRrclLS913uGPnx7+JwPrYiHutmYPATIAAMDsI0QGgElasLhcSzYsVHlNSVaJh/NJJ7C5cjY3q7gdYw00zrePHKOOJ7c28tBARGc7e+z2mIeeFWJnljv7MM+1utKr9av9aqjj1wnmltDqzapz21p1o7bUmkadVm+psbukGq25cq1dqmHsda211253SzlY62y5WivNKPvStVq9yumT1mrLVmdLHi/zeJgZ/pRTlsKUqzB1j1eVelTjVCSRr6xCxZt2ODPn4KupV9G6TJmcK6q8diB96kyHPe9Lxmb9YoEAGQAAYG7wPPzIQ+NIIQBgftv5vcfc1vRKJlIa6I1oqD+qyGBc8WhCiYR1gesuH2anzdmxbaaddCJaZ8Zmta3/R79ZZ9azl5lmyp23F7lta8YelGzPGenxzlnr2tKN3K92pWSr6fV6FAhKxcVelZV6VFHmlddnr4JxqmxY5rYm5oH773dbAOa7Rx9/3G1NTNwTUG9wofX+7NH6lcv01//2X+m5jqR+cMoZoZwY6NfAm79S5OA75heB3ZfNt3Cxyq6/W4G6xfb8upBH//u6oH70i136/k+ftfuKY30qSYwugTFTCJCRT0/LCbcFzJ77Hvyi2wKAwkCIDKAgzFSIDJwLITKAtMmGyOYf+PqCNUp4gwr4/fpffuc3dcXlW/VIc1zv9zn1kpMDfYq1HFekeb8SZ9uVSiTkK69QYOkaBVdulL9igfkXQpX6pD9Y41dFpE/f+I8Pq7O71w6ey6Pt8qdmp5wFATLOhRAZcwEhMoBCw+ePAQAAgHnGfKakONEvU84iFo/r+08+q56OTn1+mc8eVWx4S8sVXLFBZdfcrorbP6vKOz6nshs+qeJLrpS/aqEdIId80peW+bUkmNJ3//nnOuvefC+QHJSPABkAAAAuQmQAAABgHgokIgomI3a7tf2svvXYD6W+Ln15hV+31noVtM70PX6/vGWV8lUtlK+6Vr6KanmLiu1tLin36qurAro0lNTf//PP9fa+g3Yo7UklVRLvHy5uNJMIkAEAAOYmQmQAAABgHjKjkUvivfKm4nb4e7D5hP7Tf/9HnT7cpE/U+/S/rwnonnqvtlR4tbTYo8XWtD7k0U0LvfrXq/16YLlflZEuPfwPO/XC63sUicbs/QwORhRNpPQb1nb/ttZaZ4bq3xMgAwAAzF2+u++588/cNgBctPbvfc9tAbOnuLzSbU3MZVu3ui0A893exka3NTleJeVLxRT3BO0bs3b19mt/01G1tpzR4spiXba4Sluq/Lqiyqcd1T5dYU2Xlnvk6e7Ur195w76JngmfhyJRO0CODEUUj8f1+cqUfrPKq+VBr1YEPHovklQk5T7oNNixqltfuaFJiyoJkHF+kf5etwXMnk3bt7ktACgM3FgPQEHgxnqYC7ixHoC0yd5Yb6S4J6DBQKXi3qA9X1wUVFVFmSrLy7S0vlbVVtvj8So8OKhTZzrU2dWj3v6w+sIDdjjrSSU0MBhVIh7XA9Vx3V+dVJU7AjlmLX9vMKFvn42rJ+H0TaXS4oD+/b/coKXex+SJDxAg47y4sR7mAm6sB6DQUM4CAAAAmOf8qZhCsW4Vx3vtQNiMLDZ1kg81n9DLbzfq6d1v6Be7X9MLr+3RvkNHdLK1Xb39JkBOKZAIqyx6VqXJgVEBshHwSFtLfPr6gukpbXHT5Su1uGG9VPUFpaI1BMgAAABzECEyAADzhAl7AMx/0/WzbGojFycGVB49q5JYj/zJISmZ0OBQRP0Dg+oPD2rAaicSCfmSURXH+1QW7VSp9dWE0L+zIDEqQE4bDpJr/CqdwiuI4qBPd127Tl5vwJrZqHj1J5VMFREgAwAAzDGEyAAAzBMDg4NuC8B8Np0/y56UUyO5KDGoUKxH5dFOlcc6FYqetaeyaIcqIh0qM6OWE2EFklF5zTYe6bYy75gBcpodJBf7dGfZ1A1H/uhlK7RoQZndjkdjinkbFC27TclokVIpDwEyAADAHEGIDADAPNHW3u62AMxnM/Gz7FFS3lTCDpRNUBxIRtwpaveZUcsmcE4z1SP+R1dc/Ylzj5I2QfK1oam5hDAjso+dbFU8nlA8MqjYUNjq8ypRukL9y2/XzhNLCJABAADmCEJkAADmiSNHj7otAPPZbPwse5Syp3zMkneGkvpO5/mD5Aqvx21NzuDgoF5794j+8pEn1d/bo1QyqUgsod372vXXz/Tq5ydqCZABAADmCEJkAADmiRMnT+rkqVPuHID5yPwMm5/luSiaGl+QfCSaGcE8Gb29Peo8262dv3xTf/W95/X8ntP6m396V//8UrMOne5XX2wa7uIHAACACSFEBgBgHnn1jTfU29fnzgGYT8zPrvkZnstygmRT42KEAavvJ70Jd27iBgcH1Nfbq8GhIZVXVOtwe0o/frlZH57uVVd/RIkxHhsAAACzhxAZAIB5JDwwoGd37VJrW5vbA2A+MD+z5mfX/AzPdekg+ZvtMb03mFQkmbKnfaavI64ms8Ik9XZ3q6ysTOvWrVNDQ4PkC6gnHFWS8BgAAGBO8jz8yEOcqQG46O383mNuC5g9lQ3L3NbUWL92rdatWaPahQvdHgBzTXtHhz48fFiHmprcnvnD3ERvgc+jEnfYyWBSOptIKTYFVw+xWFQej1d+PzWPceF6Wk64LWD23PfgF90WABQGQmQABYEQGXPBVIfIacFgUKHSUnm9fMAImCuSyaQ96jgajbo9AKYKITLmAkJkAIWGEBlAQSBExlwwXSEyAACFhBAZcwEhMoBCw5AlAAAAAAAAAEBehMgAAAAAAAAAgLwIkQEAAAAAAAAAeREiAwAAAAAAAADyIkQGUBA81n8AAAAAMFlcWwAoRITIAApCoCjotgAAAABg4ri2AFCICJEBFIRQWZnbAgAAAICJ49oCQCEiRAZQEKpqqt0WAAAAAEwc1xYAChEhMoCCUFdf77YAAAAAYOK4tgBQiAiRARSEhuVLuQEGAAAAgEkx1xTm2gIACg0hMoCCEAgEtHL9GncOAAAAAC6cuaYw1xYAUGgIkQEUjHWXbnRbAAAAAHDhuKYAUKgIkQEUjMrqaq3ffKk7BwAAAADjZ64lzDUFABQiQmQABWXbjitUXVPjzgEAAADA+ZlrCHMtAQCFihAZQMHZcf1HFCwqcucAAAAAID9z7WCuIQCgkBEiAyg45iNo191yE0EyAAAAgHMy1wzm2oEyFgAKHSEygIK0cFGdbrrzNkpbAAAAABiTuVYw1wzm2gEACh0hMoCCZUYT3PrJu7jZHgAAAIAc5hrBXCswAhkAHITIAAqeuUHG7Z+6W6vWr5XH+g8AAABA4THXAuaawFwbcBM9AMjlefiRh1JuGwAKXiwWU8vxk2prbVV3Z5fC/f2KRaJKWf8Bk1XZsMxtAQCAieppOeG2gIkzgXGgKKhQWZmqaqpVV1+vhuVLFQgE3DUAANkIkQEAmCHPPP2C2wIAABN1+x03uS0AADBTKGcBAAAAAAAAAMiLEBkAAAAAAAAAkBchMgAA88hXv/Wodv7ImR79izvc3rQv65t5lwEAAAAAMDGEyAAAzFOhzZ/Un97jzkyBe/7iO05A/a0vuz0AAAAAABAiAwAwj5Vq82e/oanJke/Q5atK3TYAAAAAABmEyAAAzEfhAYXN19AluuXrds85DY8yHp6+kxnFfM839OiPPqfNIXd+yQ32OpmSGJkyGaO2BQAAAABc9AiRAQCYl47ph7tO260lN/+Vvmq3xnKH/vSxR/WlzSNHGZdq84OP6pvnC6DtgPkGLXFnHWZbgmQAAAAAKBSEyAAAzFff/iPtOmUai3VzvjrGX79heITxqV0P6L5Pm+kftc8exiwtufobuufJv9YDWX06tdte74E/eVpfvf0S2ZuHD+gf7G0fcB+zVKt2cPM+AAAAACgEhMgAAMxjDz9zwClrseSGMUcV31NX5bZO6+C33aae1jvNA04zVKmlTmsMd2h489Al+pJbzuJmd1hyqHqx0wAAAAAAXNQIkQEAmM+e/Gv9cJ8TCC+5eWTZCWlp9WRulrdY1ek6yWOpqp2im/oBAAAAAOYyQmQAAOa5J//kp5lSFCM8fNCpm2wC4Q3DI5Xv0OWr3HA53KOTTmsMp9WV3m9WOYvh6Yt/rSfdxQAAAACAixchMgAA897T+vN/cstajPTt3Zn6xzc75Sh2/uhzmTrJr6eD4KfV1m037NIYZr1H/0L689fdEDqrnIUznetmfgAAAACAiwkhMgAAF4Ossha5ntaffzF9M7xsp7Xr0w/oD4brJEsP//5ujVrt23+k+76XJ6AGAAAAABQEz8OPPJRy2wAAYBo98/QLbgsAAEzU7Xfc5LYAAMBMYSQyAAAAAAAAACAvQmQAAAAAAAAAQF6EyAAAAAAAAACAvP6XEfEAAEn4SURBVAiRAQAAAAAAAAB5ESIDAAAAAAAAAPIiRAYAAAAAAAAA5EWIDAAAAAAAAADIixAZAAAAAAAAAJAXITIAAAAAAAAAIC9CZAAAAAAAAABAXoTIAAAAAAAAAIC8PA8/8lDKbQMAgGn0zNMvuK2p4ff7tWbVKtUvWqTysjJ5PB53CQAAc0cqlVJff79az5zR4eZmxeNxd8nE3H7HTW4LAADMFEJkAABmyFSGyJdu2KDt27YpEAi4PQAAzH2xWEx73n1X+w8edHsuHCEyAAAzj3IWAADMM9fs2KGrrrySABkAMO+Y313md5j5XQYAAOYPQmQAAOaRrZs3a+P69e4cAADzk/ldZn6nAQCA+YEQGQCAeaK8vFyXb9vmzgEAML+Z32nmdxsAAJj7CJEBAJgn1q9Z47YAALg48LsNAID5gRvrAUAWc7OXluMn1dbaqu7OLoX7+xWLRJWy/gMmq7JhmduamE/edZcWVFe7c4WsTY1PvGj9uVZb7t2uOrfXEdbR3U/pcJc7W71d19ywViF3NsdAk157do/C51pnngkf2aXXGjsV2nKXrlmd+4zSyxw1WnPbzVpZ6s5Oh4vw9QUw9c52demnTz3lzo1PT8sJtwVMnMf6L1AUVKisTFU11aqrr1fD8qXccwIA8mAkMgBYeqwLmLdeflVP/I8f6PXdv1bzoSZ1dXYqGokQIGPOqKyocFtTyYSuO/XakbA7P7tM0Pn87ibrqCYqpJU33Kdb7r1P12ypcftghFbfbL8ut9y2fW4Euu179PwTe9TmzgIoTNPzuw04P3OOb871zTm/Ofc31wDmWsBcE5hrAwBALkJkAAXv3Tff1jM/+Zl98khgjLnM5/O5rUJXpy0mDB01CvkCla7VNWY/F9Eo2XRQPHIU8qy4CF9fAFOP322YS8y1gLkmMNcG5hoBAJBBiAygYJkRBs/99Ckd2rff7QEAAAAA2dcI5lqBUckA4KAmMoCC1HGmTS8//4L9ETZgpky2JvID99/vtpy6v61L79Lq/qfU2Ox2j6o9O6I+sCVTKzddV3gsI2sNj1x3rFrE5+IeR9WNumVreqvMczDH0/bezszzGKHu2vu0pda0Rjyf89TatWsAn1w+xjojns+q7OMaL2cfuvYulR/IOqZR+zrPa2fXDT6u+ttuVmlT5jUYq6bxOZnSEK80uTPZr9kYsh5zQjWR07WO3Vkj9/HO/frm1mbOlfu8z/X9C+Bi8ujjj7ut8aEmMmZSsKhI191ykxYuutBzBQC4uBAiAyg4ZjTBC794lgAZM26qQ2QTro0MhcPD82MEt274pzGCunSYO9rI/aZDwOoLCJLHOJY8j5s/+M01nvXGs44dXmviIbIJSof/DtzXNzQcqI7jtcsKZIf3YwfCXRO88Z3zmJq2EHkc+89yztfXfp7Wt+OY30fj/f4FcDEgRMZcZ4Lkm+68TZXc4BhAAaOcBYCC8+ZLrxIg4+Kw6sasMC2k8uzrmvZDOtxVozVrs+K50rXasqVG4ZMtdmg5HuEj+9RWvV1bskK70OrNqlOTzrS7HQUsZ2Ss9fquXiW1tThjcC/ktcvZT+0Sa51O9c2Nex2OKf0cp80Uff8CADAVzLWDuYYAgEJGiAygoJgbZJg7MAOFoVqlY4007eq7sBCua49ee2Knnh+essszYJTu3szrO87XLlSeCZrTNw4cz0jfmWeO7UbVNb+YeU7vTdd3wxR9/wIAMAXMNQQ32wNQyAiRARQMU8aCm+gBluryc5aKGMXUHr73Pt0yYpqbIeccUFWReX0vytfOCbmd5+IGytMWJI/hQr9/AQCYIuZaghvtAShUhMgACsaH+z9wW0ABsEsiNKkxO9wbsOYbO1V3SXaN4JBKq5S3RECofrlCXXvUeGQyYz+dx8iM0HXr3Y5xDRYyNTm6jqt9wO2YT9qt16k5U4Jhal67ua5Oi1a5zQsVMmFwnrIo4/7+BQBgZnFNAaBQcWM9AAUhFovpif/xA6Ws/4DZMuU31jvvjeoyN39Lqxvzhmgj11ube7OzrJu/ZYxY57xyH8PUAF7d/5SOlI2+SZp9M7Zmd8YyfMxjHodRk7kJ3XjWsW/o1uR057iQ5zT6tR1z+/O9du7yzM34JmbkazZsVfp75BzB/YXcqG6s52NGW2ffvPACXl/nRoOZEkO5xzLe718A8x031sN84rH+u/cLv6VAIOD2AEBhIEQGUBCOH27W67t/7c4Bs2PqQmTMPifgDF9IAAsAGBMhMuabq2/4qJavmehHcQBgfqKcBYCC0Nba6rYAAAAAYOK4tgBQiAiRARSE7k5ugAEAAABg8ri2AFCICJEBFIRwf7/bAoCpUKct995HKQsAAAoQ1xYAChEhMoCCEItE3RYAAAAATBzXFgAKESEygIKQsv4DAAAAgMni2gJAISJEBgAAAAAAAADkRYgMAAAAAAAAAMiLEBkAAAAAAAAAkBchMgAAAAAAAAAgL0JkAAAAAAAAAEBehMgAAAAAAAAAgLwIkQEAAAAAAAAAeREiAwAAAAAAAADyIkQGAAAAAAAAAORFiAwAAAAAAAAAyIsQGQAAAAAAAACQFyEyAAAAAAAAACAvQmQAAAAAAAAAQF6EyAAAAAAAAACAvAiRAQAAAAAAAAB5ESIDAAAAAAAAAPIiRAYAAAAAAAAA5EWIDAAAAAAAAADIixAZAOaJuKdIvf7FOl18mY6WXKvDoZt0KHSbPii7w55Mu8nqM8vMOmZdsw0AAAAAAMBkECIDwByWUFB9/nodLr1R71bcp0OhW3S6aIs6gmvU5V+mXmtZv6/Wnky72+ozy8w6Zl2zjdm2z1dv7wsAAAAAAOBCESIDwByUlE+ni7e5I4xvVVdguVLyuEvHz2xjtj1Udqs+KL9Dp4ovs/cNAAAAAAAwXoTIADCHpOSzQ9/Gik/rdNFWDfoqJxQej2T2MeitVEvRFr1n7bsrsMJ+LAAAAAAAgPMhRAaAOSLmKdbBstvUXHq93Z4ucWvfzaUftR8r5ilxewEAAAAAAMZGiAwAs8yMEu711etQ6Ha7tnFyBt6azWOYxzpUdpt6/Q1TMtoZAAAAAABcnAiRAWCW9fvq1FR2s126YqaZEhdNoY9Zx7DI7QEAAAAAAMhFiAwAs8jUJjYh7mze7M48dlPZTTobWOn2AAAAAAAAZBAiA8AsGfRV6VjJ1Up4Am7P7EkooOMlV2nAW+X2AAAAAAAAOAiRAWAWRLzl+jB0q+KeIrdn8vw+aUmVR7du9OuLVwf05Y8E9IWrArpni1/XrPJp+QKPyory1z42x9JUdquGvBVuDwAAADA3eFJSIJFUSSyhUDSusmjM+hpTaTShonhSXms5AGD6ECIDwCw4VXyZop4Sd25yigMeXbHcp2/cVqQ/uLlIH7/Ur61LfLqkwadtS326YZ1fn9ke0O/fVKRPbvXLc4576JljOm0dGwAAADAX+JNJ1QxEtLK7Txs6erSprUtbWs/a09bWLm1uO6uN7d1ac7ZX9X2DKo4n3C0BAFOJEBkAZpipg9wVWO7OTU5pUPrajQH91hUBVZWeIx2+AF2BZfYxAgAAALPFjDyu6x/S5jNd2mRNJkBe3t1v9Q2qZjCiBYNRa4qoNjykpb1hre3s0aXtXdrWelYrrPXMqGUAwNQhRAaAGRTzlupoyTVKTcHbb9Dv0QPXBNVQ4T3n6OILZY7taMlHFLWOFQAAAJhpwXjSHnG8tfWsGnoH7NIVvqRzBm0mc+o7cvKlZJe6qAkPaUN7j7a3dKpqMGqH0QCAySNEBoAZ1OVfroQn6M5NzkfXeLVq4fS8jZub/XX5GY0MAACAmVUWieny0x32qOOiREI+q288Z7wmKzZhslnXlMBYGB7S5S0dqhkcIkgGgClAiAwAMyRlnda2Bde7c5NTWezcQG86tRett48ZAAAAmAnlkZg2tXXbZSqM9JmonQF7vfIsqpOnftHoyfSHSp31zKrWZLYtjiV0+alO1YYHCZIBYJIIkQFghnQHlmvIV+nOTc7aOq8CvnMHvPGk9ZgDKbX1ZaaeIevseZwn0EPeCvuYAQAAgOlmSliYusc1A0PDI4qzeSorVPzA/Sr5ypdGTcVf/pL8l1+WM/zBtM1kRiWbOsl1BMkAMCmEyAAwA8yI3jNFl7hzk9dQee4AeTCW0qOvRvWfno/ob57NTD9vjI83Q7aZY2Y0MgAAAKaTN5XS+o4e+6Z59pmnNW/OWVMejz2ZG4B4iorkKSsbe6ool6e0dHh9ezL7sZj9mZvsre3sVXk05nQCAC4YITIAzABzQ72It9ydm7yK4vzBbiyR0ndejOrgmaSGJnmebI455g25cwAAAMDUq+8b1NLesDsneevrVfzbn1Xxg18Ynoo+dbfk89mB8qjJ4t+6OWf94ge+IP+mS+QxZTCs5RWRqJZYj2Fu0AcAuHCEyAAwA6Ke0JTdUM84VymLU90ptfZOzcmxOeaop9SdAwAAAKaWGSW8srvPHo1sAgpzluutrZFv7SprWjM8eVcstwPjlBmlPGIyPAuqc9b3rV8rT22tvY3ZpyllYUY6m7rLAIALR4gMADPA1EJOztBbbjg6daMrzDEP+qrcOQAAAGBq1QxEVBJLOGUsXKnwgJJnu5TqyprOnj3/lLO+NQ0MmL3Z+zT7D0XjWjgwJO/UnS4DQMHwPPzIQ7x9Arjo7fzeY25rdhwruVrtwfXu3OT9zjVBbV48dij9fktCj746dSMsaqMfasXga+4cJqOyYZnbmpgH7r/fbQEAcPF49PHH3db49LSccFuY78zo443t3VrZ1Z8z3MKEFJ6SEnnKJlhWzdpBKhqRwgNKJTIBddKaukqK9NaShYr5JjfA474Hv+i2AKAwMBIZAGbAVNZDnmnz+dgBAAAwdwUTSZXGEu5chgl9U0NDCtx0/cSmj35E3poFOQGyYdoVkZiK4qMfEwBwboTIADADYp4StzX/zOdjBwAAwNxlwtySWDwn6B2WSsm/+VL5L78sZwqMmB9z2nKpPEVFo/Zr5n3JpMqicacDADBuhMgAMAOSXr/bmn/m87EDAABg7vInk/Zo5HxS7R12aYrEwQ8VefwHUjxul7pI9fUr8sMnlGprd1a09hP/9atKNL5vh88pa5/J3l5n2RhCUW6uBwAXihAZAOawP7wlqP/wqeJR06aG/G/fl9b7xtzGTNuW+Ny1xo/C+QAAAJgOvqSZRp9tpnsSLWesP1NKDQ4qcaTZDouNVF+fkidPSdGoPS+z/NQp90Z6lmTCroc8FjMa+VzBNQBgbITIADADvMmJfWTO6/XI3PNj5OQZ8zN/DrNsrG3M1Dlw4SfMvgkeOwAAADAeY5WdMJKtZ+yTW09lpTxFxfYoY9uIDVJDEaW6e6RAwOlImOB5yGkDAKaE1/0KAJhGgdSg25o95py7s//CxxXPhWMHAADAxSfptSaPGWs8tmRbm/3VW10plRQp1dtnz4+UikaV6g/LUxR0OuIxu/RFPnEzugIAcEF45wSAGVCUHPuEdyb1DKY0OIHyb3Ph2AEAAHDxSXi8ivnGLrdmBhun3LrGnpISyVovcfykMzJiJFPj2JS6MKOVLcmeXqXc0hfZzJZmGvRfeIk3ACh0hMgAMANKE2fd1uw52T2x2m8liS63BQAAAEydiM+rocDYga4d+KZLUrhBc+LoMfvrSKlEXCoqkqfECZFTHeaGfGOPbza9vUVu2QsAwLgRIgPADChJ9FhvuLN7A48TXWOfSJ+LOWZCZAAAAEyHqN9rjwoe6yzVLnucSDhhsM9n10ROHjsuz1g3B0km5Skrc0Jka3myrcNdkMs8zkAwoIjf73QAAMaNEBkAZkAwNSBfyr179CyZyEhkc8zm2AEAAICpFvd61V0ctGsUjzncIZl06iDbN9erUKrHKW+Rw13HEwo5ZS9MV3uHvc1YOkJF1uOOvQwAkB8hMgDMgEAyPKHawn/7XETf+MnQqOn90/kD4f0tyTG3+fDMhYfIwWS/NYXdOQAAAGBqdZQWayDgd8pXOF0ZiaSSbmkKX0O9fQO9UZLWOi1n5AkGJL9TpiLV0+OMZM5i9h3x+9RuPV6SEBkALhghMgDMAI912roocsCdG7+kdbZr7gkychpzpIYrZf13odvkUxf5wD52AAAAYDoMBvxqKXNGEI9incSmOpx7i3gXN1gntOZM1wwy9uWMNE51dUmmRIUbDqfCuYMgzDZmMoF1T3ERZ7cAMAGEyAAwQ6pix1WcHOMjeHNUcbJPC2JH3TkAAABg6qU80vHKkH2zu3TYm5ZKmpHInXZg7F2yWEW/8Um737NwgYJ33ibPggV2veTgTdcrcOX24RvwKRpzvrrMPgcDPp2qKLXrMAMALhzvngAwQ8yI3trIQXdu7jPHyihkAAAATLeY36e3l9TaNZJzgmQz8ri/32kHA/LvuMJp+/3yrV0jlZbYAbNn6RJ56hc5ywYHlTI35HOl93WiskydoWLObgFgggiRAWAGVcePy5fKHRkxF/kUs471mDsHAAAATC8zUvjd+gWKZt9kL5VS4thxRX/6lDP97BeZ9pNZ7eH5n2vo+zudTa0paU0Jr3SqIqQjCyoIkAFgEgiRAWAGBZMDWj74+pwe4WuObfnA6/axAgAAADOlvaxY++uq1R8M2AGwkerqVuzV18c5vaFE02FnO2uK+Hw6VlmmfYuqleReegAwKYTIADDDamJHVRU74c7NPebYamLN7hwAAAAwM5Iej1rLS3WgrkrtbumJ9NALkwGfbzLM+iaA7isKqGlhhZpqKpVwb7gHAJg4QmQAmHEpLRnaq0Bq0J2fOwKpIfvYAAAAgNlgRgx3hIr1fl213l9UbYfB6WDYTNnBcrqdXm6+mnIYzQvK1bhogU5WhhSz5gEAk8e7KQDMguJkj9aFn5c/FXV7Zp/POhZzTObYAAAAgNliwuCBoF/HK8v0xtJa7Vm8UK0VJYr6fcPLswNlM9K4uySo/bVVenlFvQ4trLTnEx5GIAPAVCFEBoBZUpro1rLBN+bEjfZ8imv54JvWMXW5PQAAAMDsSnmkiN+nlvISvdOwUM+tWayfb1imp0ZMT69bqleWL9LRBeX2DfpMWQwAwNQiRAaAWZOyaw+vDb9gvRkn3L6ZZx57bf+vrGM5Ys2ZsRwAAAAAAAAZhMgAMMvKEme0NvwrFSd73Z6ZYx7ThNjmGAAAAAAAAMZCiAwAs8yjlCriLdrQ/4xCiQ7rjdlUeJte5jHMY20IP2s99mn7GAAAAAAAAMZCiAwAc0QgNWgHySsHXpE/FXF7p57Z9wrrMcxjBZIDbi8AAAAAAMDYCJEBYA4x9YkXxJq1tfdHqo/ss8tNTMUoYbMPs6/6yPv2vk0t5tmswwwAAAAAAOYPQmQAmIO8imvp0F5t7H9a68K7VBk/NaEw2WxjtjU1l82+lg7tsfcNAAAAAAAwXoTIADBnpezSE6ZmsQmSt/b9UGsHXlBDZJ96W5vUcvKE2s+cUWdHhz2ZtunraTlsr2PWNaOO0yG0UyKD2scAAAAAAODCeB5+5CESBQAXvZ3fe8xtAbOnsmGZ25qYB+6/320BAHDxePTxx93W+PS0nHBbwOy578Evui0AKAyMRAYAAAAAAAAA5EWIDAAAAAAAAADIixAZAAAAAAAAAJAXITIAAAAAAAAAIC9CZAAAAAAAAABAXoTIAAAAAAAAAIC8CJEBAAAAAAAAAHkRIgMAAAAAAAAA8iJEBgAAAAAAAADkRYgMAAAAAAAAAMiLEBkAAAAAAAAAkBchMgAAAAAAAAAgL0JkAAAAAAAAAEBehMgAAAAAAAAAgLwIkQEAAAAAAAAAeREiAwAAAAAAAADyIkQGAAAAAAAAAORFiAwAAAAAAAAAyIsQGUBB8Fj/AQAAAMBkcW0BoBARIgMoCIGioNsCAAAAgInj2gJAISJEBlAQQmVlbgsAAAAAJo5rCwCFiBAZQEGoqql2WwAAAAAwcVxbAChEhMgACkJdfb3bAgAAAICJ49oCQCEiRAZQEBqWL+UGGAAAAAAmxVxTmGsLACg0hMgACkIgENDK9WvcOQAAAAC4cOaawlxbAEChIUQGUDDWXbrRbQEAAADAheOaAkChIkQGUDAqq6u1fvOl7hwAAAAAjJ+5ljDXFABQiAiRARSUbTuuUHVNjTsHAAAAAOdnriHMtQQAFCpCZAAFZ8f1H1GwqMidAwAAAID8zLWDuYYAgEJGiAyg4JiPoF13y00EyQAAAADOyVwzmGsHylgAKHSEyAAK0sJFdbrpztsobQEAAABgTOZawVwzmGsHACh0hMgACpYZTXDrJ+/iZnsAAAAAcphrBHOtwAhkAHAQIgMoeOYGGbd/6m6tWr9WHus/AAAAAIXHXAuYawJzbcBN9AAgFyEyAFjMCIMrr/uI7v3Cb+nqGz5qnzyaj6+ZGmgEywAAAFPvO4884raAmWfO8c25vjnnN+f+5hrAXAuYawJGHwPAaJ6HH3ko5bYBAMA0eubpF9zWxPzO5z8vj4d/1AAAzH8mQH7Emva+/bb+/vvfd3vH5/Y7bnJbAABgpjASGQCAeWJgcNBtAQAwf6UD5HffeYffbQAAzBOEyAAAzBNt7e1uCwCA+Sk7QDb43QYAwPxAiAwAwDxx5OhRtwUAwPwzMkA28/xuAwBgfiBEBgBgnjhx8qROnjrlzgEAMH+MFSD/7d/+rf27DQAAzH2EyAAAzCOvvvGGevv63DkAAOa+sQLkb3372/r3/+E/2PMAAGDuI0QGAGAeCQ8M6Nldu9Ta1ub2AAAwd40VIP/nb35Tf/mXf2n/TgMAAPOD5+FHHkq5bQAAMI2eefoFtzU11q9dq3Vr1qh24UK3BwCAuau9o0MfHj6sQ01Nbs/E3H7HTW4LAADMFEJkAABmyFSHyGnBYFCh0lJ5vXzACAAw9ySTSXvUcTQadXsmhxAZAICZR4gMAMAMma4QGQCAQkKIDADAzGPIEgAAAAAAAAAgL0JkAAAAAAAAAEBehMgAAAAAAAAAgLwIkQEAAAAAAAAAeREiAwAAAAAAAADyIkQGAAAAAAAAAORFiAwAAAAAAAAAyIsQGQAAAAAAAACQFyEyAAAAAAAAACAvQmQAAAAAAAAAQF6EyAAAAAAAAACAvAiRAQAAAAAAAAB5ESIDAAAAAAAAAPIiRAYAAAAAAAAA5EWIDAAAAAAAAADIixAZAAAAAAAAAJAXITIAAAAAAAAAIC9CZAAAAAAAAABAXoTIAAAAAAAAAIC8CJEBAAAAAAAAAHkRIgMAAAAAAAAA8iJEBgAAAAAAAADk5Xn4kYdSbhsACl4sFlPL8ZNqa21Vd2eXwv39ikWiSln/AZNV2bDMbQEAgInqaTnhtoCJ81j/BYqCCpWVqaqmWnX19WpYvlSBQMBdAwCQjRAZACw9XV36cP8HOnroMIExpg0hMgAAk0eIjOliguWV69do3aUbVVld7fYCAAzKWQAoeO+++bae+cnP1HyoiQAZAAAAKFDmWsBcE5hrA3ONAADIIEQGULDM6OPnfvqUDu3b7/YAAAAAgOxrBHOtYK4ZAACEyAAKVMeZNr3wi2fV1dnp9gAAAABAhrlWMNcM5toBAAodITKAgmNGE7z8/AuKRiJuDwAAAACMZq4ZzLUDI5IBFDpCZAAF582XXiVABgAAADAu5trBXEMAQCEjRAZQUMwNMihhAQAAAOBCmGsIbrYHoJB5Hn7koZTbBoCLmvkImrnTMjBbKhuWua2p4fFIIb9XRT6v/GbG+h9jsM504qmUIomkwvGkrCYAzIqCed+e5vfdnpYTbguYebd/6m5VVle7cwBQOAiRARSMt15+Vc2Hmtw5YOZNZYhcHvCpIuiTl+D4giSts57eaEJ9sYTbAwAzo1Dft6fjfZcQGbNp1fq1uvK6j7hzAFA4KGcBoCDEYjEdPXTYnQPmt+oin6qsiQD5wpnXzLx25jUEgJlSyO/bvO/iYmOuKcy1BQAUGkYiAygIxw836/Xdv3bngNkxFSORzSi2SmtKK6uo1OIVq1VRVS2vj38bHksykVRvd5dOHzui/t4et1fqiSbs0XEAMJ0K8X17ut93GYmM2Xb1DR/V8jWr3DkAKAyEyAAKAqUsMBdMNkT2ez1qKA24c9KSlWu0cdvl7hzG44N339Gpo5lPJbQMxBQ3n7UGgGnA+/b0vO8SImO2UdICQCFiyBKAgtDd2eW2gPnL3IwprXphHQHyBJjXzLx2admvKQBMNd63ed/FxYlrCwCFiJHIAArCE9//J0UjEXcOmB2THYlcXxpQwC2oufXq61Rbv9hu52pT4xMvWn/ms1Zb7t2u4cv59j16/pUmqXq7rrlhrUIjt191o27Zmrn410CTXnt2j8LubGjLXbpmtbXVezvV2Gx1jFzfcq5lw4+fbcR64SO79Fpjp9Uaceyu4eX2c2hQ++6ndNi6tqu79j5tqXVXytLeelrvvf6y3Y4lU2odoK4hgOkxvvftLCPeY/O979ly3j9rtOa2m7Wy1J11nfP913qUo+775fmWp9/rjeF9GsO/O85tqt93GYmM2RYsKtK9n/+sOwcAhYF/BgZQEGKRqNsC5i/zsei06oVjpKPj0qTGJ/acI2QeoflUzrrh1uNZ4cbkmCBiVIBsNL+o55/YpaMDzmyofrkbUDTpTLvdyBJW+0kTMFvrLW04b5BhZL922a8pAEy1C3rfHhUgG/nfs9tast8/O9XaeqHvziHVLq1xmiPe620DLWq1B1vWqL4+/e7apjPpANnoOq529736XHjfxcWGawsAhYgQGUBBSFn/AfNd9mW335+psZmPGYl7y73Z043uaLaxwth8ujQwHBBkAtvJMqOH0yPZco8zfYydOvxWkxOmlDaovtruVFvLiJhjzJDj3LJfu/9/e3cWHNd153f8d28vQKMBEABJECQlbqIpkRJFyaIkyqItRzNeRp5RzeYk4xmn4po8zLzlJVV5SSWVqlSq8ua8OH5yVZy4ytHMlDNO7JnRWA5lrdYuUpRIcxHFHQSxA73ee3PO7dtAA0QDDaCbaKC/H/qq7729gGjJp0//+t//Q5QBoJGWM24PnosCZFvdO2/MvnBhfkBcDnM3q39vKQieunJ9XgC9tMU+pJv50LB3l7aWK5xvRWFz7371h+NybeE14y42Gt5bAGhFhMgAALSMtLqiMHZqYuk3/eleG0xUBgRTmogC23T0OCszqAthewrzMw4/N6/lRL8Ol4OTkfd0IQw1qlfLLRhyAMB61tMdBbv92nc4Cogn543ZM2HuLu3bHwXBNVYFz1H1Q7qFv+VRrn5O33NA+6JxeSXhNQAAWH8IkQEAaBUzVbtSumvpqt30PaVgYia8KIcWe3dpIDyxQtPjUeBQrXq4X9v2lvbKocZstdzCldG1trIAgGaV7ix/WDbb0ie979nStzTm95qfCXPN2DcTBK+ypcVoeWw2Fm1lUTo3My6vJLwGAADrDiEyAAAb1OBrL+gX/7tiK/fa7H1U+2ppqdwVVcNF1b9TpTJkpTu7w8sVm5qIgopedVSpHp4JU8oWCklW0MoCAJpVet+Tum/mWx63df7F0tj9RtVWFuY+4QeCs0HwqlpaVITBi7ayKI/dqwqvAQDAekOIDABACwn7D9ewkn5JuSLY9sosV/2uPLBNd64m6L0zJKGVBYCNJa09XzJj9Bf2R8clUyd/pl98WNFqYibM3a9t0QeCq6oKviMMXryVhfbuLLUcWmBcBgAAGxchMgAAG1R5wbpjUU9Nq5ZeyJXKFcFT18+Wqn7rEdimu6JQorI1xVxTk6UAo9LckIRWFgA2qK2PRguNPjdbmXzxVNjewpoJc3VOJ+d/02SVLS3CMHjRVhZG2G4jqpKO+tvT0gIAgI2PEBkAgA3O9tQ8HPUYthVtJ+etwL+YcnA7dfFcKaCYWfBprjvaT8yY0vRotFvWUX6MamHHbFjRv72iD2hltdy5KNSmlQWADWFwJhCeHaNtZXK00OiMijC3iqmTZ6NK5dpVfkh34dxirSyqua3z55b7UwEAwHpCiAwAQAvof3g2iBj8OAqEazET+JbMCXUrpLuicrmLJ+aG1LfO6nyplXLFYn792hdVR9tQe26/TxuknIjCitmvapdUVMuVQ+29D2kPrSwArHtplYfRyjF66sKpueFtRSuLw2G1csX2lUej8dq2IAp3alfxId3gxVJ1cf/B2dZHs60snpn7M802822XqH8+AADYmAiRAQBoCf06XO6zOfKeTt6xUFM15b7I1mbN5MDzbT0w87XrOQv6vRYFD/MW85tfHT1z+5kAebPu+8qj8yrwzP3K1XKRaqE2AKwvae05ODtGvxGNiTPtIqIPzO7sS1xhJgi2t5sX51a0oJizzfRanv2QrqTyQ7wq3w6JzI7LKwivAQDAuuF87/vfDaJ9ANiwXvjBD6O9xip6noZGxjQ6Pq6JqWllc/nwXBCs76HWcRzFYzG1tyXVle5QT3e3tvRuCs+hdpu23xvtrcy9ncloT2H118JmK3ltT+TDcyp5zbUfvqCTYRhgQ9pntWfqvVLQ2/uojoUL7t15/6kLL5WCjJnbTOnTl38WVhinDz+nY/tmY93Zx69gK9cerhL23op+fqXFbl/xs0uVePOD5tnrF/r9y2x4UnZ5Mh/tAUB91TZuV5g+pzdm+huXzI6zs+Pz/LG3bGa8jsZHLTQmV6ocbyt/duX5mXE6et2449sfFePyIuN3PcfdseuXoz1g7XzzO9+O9gCgNRAiA2gJjQ6Rp6Yzunzjpq7fur3uA+Na2WB5+9bNundgm9IdqegsFlPPEPnZ5/84/HeA5bP/H33pb/8qOiJEBtA4jNsl9R53CZHRDAiRAbQa2lkAwCqdu3RZb374ka4NDrVMgGzZ39X+zvZ3t88BGs+r+O9ranws2sNyVT53lc8pANQb43YJ4y4AAOsfITIArJCtPn7r5Gl9dv1mdKZ12efAPhf2OUHj5LzZN97XL1+K9rBclc9d5XMKAPXGuF3CuAsAwPpHiAwAKzA6Mal3T58J+x6vlv1ia7vjzGypim2hc/HS3RblmgdtM5f2S7T2snKbf84e1+PLtfa5sM+JfW7QGNNFP9qTPjt/VreuX42OUCv7nNnnrqzyOQWAemPcZtwFAGCjoCcygJZQz57IttrWhqWFYjE6szo2GP7X8ZS650S5dn/+8Fw69548vVDI3nFtpSOxhJ5yEtHR4jLy9WMvp2ydvl6aiMf1+UP30yd5AavtiWxtaY8rFZ/9DPi+gw/pnr37FU/U9u+7VRULBV25eE7nPz4VnTH/7Rd9DWXr8/9jAKimVcftRo679ERGM6AnMoBWQ4gMoCXUM0S2bRvqUYFcZiuN/zKe0kCN9cBDCvRfixnlFgl9j7hxHXdmF/NZTMbx9aM6hshWV7pDjx8+FB2hrB4hcsz899Kfiituy80rdHZvkuPwBaOFBIGvyXm9SIt+oMFMkd6cABquFcftRo+7hMhoBoTIAFoNITKAllCvENkuIFfvHsg2RP6zWJs+58SiM4uzXwL9b35Gl7zqXwd9JJbQ06qxErkBIbK1a/s27d+9+tB0I6lHiGzZIKKvLa62WG0fPGAu249zOFcMAw0AuBtafdyu97hLiIxmQIgMoNVQsgQANbJtLBq1iF4hcJRZtEHFLDtwf8lN1KWPcSPZ58o+Z6i/UjVXQSPmDXmeBYpqZp8r+5zZ544AGcDd1KrjNuMuAAAbB5XIAFpCPSqRP7nwqa4NDkVH9WMrkf8k1q5uBdpRYzWy50j/pTCt0SrVw81QiWzt6N+iB/btiY5Qr0rk+ew3pO3XpalLXpj9L9t+fZr8AkCz2OjjdqPHXSqR0QyoRAbQaqhEBoAaFD1P12/djo4aIVDW/LPW9cpd86ZsvxuPjpqXfc7sc4eSoAFBvWXfpBfMP/JsC272uTH/A4CmYcekjTxuN3LcbdRrKQAAWBwhMgDUYGhkrKFvWmwlkv12a6F0uCR7+/vd6lXLzfIGy/497HOHEr+4+hXpAQBoZbyWAgCwNgiRAaAGo+Pj0V7j2Eh4MKi9ane/uUeiyvdgm+kLsnfjuVsv/GKtHxMAAICF8FoKAMDaIEQGgBpMTE1He40Tk6MRP1CtMXKH2T4fW7jvcRB2I2wOd+O5Wy+K+Vy0BwAAVoLXUgAA1gYhMgDUIJvLR3uN5ChutrFltKI47iQUd1ZbddzYquW789ytD8Wc7XwNAABWitdSAADWBiEyANTgbiwOZ6Nc255iIqh1eT2px9xrywIhsLOsYLmxVcssrDfL94rmzW8mOgIAAMthX0PtaykAALj7CJEBoAZ3a6G6mBNo0vyoWn9a0my7Y3cusNdMK5c309+lGeQmJ6M9AACwHLyGAgCwdgiRAaCJuOaPr0CjywhejzoL90VGcyrmsypk6RMNAMBy2NdO+xoKAADWBiEyADQRNyj1Rb7m2yi5NrvM7be784bzxrY5xiplxkYV+LT5AACgFvY10752AgCAtUOIDABNJu5Idim65aw9/oR7ZzVyQJDctOyb4enRkegIAAAsxr5m8uErAABrixAZAJpMzHHkKNDUMlpa7HFiSixrMT2sNbs40PTocHQEAAAWYl8rWZQWlmOmxsmir3S+qO5cQd1Zs5nLTrO1Fz25rMMBAA1FiAwATcZGwQkzPA8FfulEDbY5jtLRvhUENoZmIt3sCpkpTY0MmX9ftf+7BgCgFdjXRvsaaV8r0drinq/+yawODI3pwcFhHb5R2o7cuK2HzeXDN0f0kNkO3hrVvWNT6ihQtQ4AjUCIDABNxobIcQWa8IOaW1rEAumLsWR0VBJ2VaY4uekVsxlN3rqpYo7FggAAsOxrYvjaaF4j0bps5fHO8WkdvTqkwzeHtW9kQtsnMtqcyak3m9emXEE95rLPHG+bzGj3yGQYJB+9ckufuz2mtiJhMgDUEyEyADQZ28zCtrRwzTa4jArVJ9242qOWFqVl+Ww1MtYD3ytqaviWpkduyyvYjtgAALQe+xpoXwvta6J9bURrsrNZ257isWtDOnL9dhgS20A4FgRhgLFQjYQ9Z69LeL468wV9bmhcxy7f0papbBhGAwBWjxAZAJpMaRLsK6FAY37tTSkS5ob3ubPDug2SS2Ey1otCdlqTQzc1eXtQuckJ82a6oID+fgCADcq+xtnXOvuaZ1/77GugfS1E63LNtGfzVFaPX7ml/snMTDhst6VmRPb68u3tZTpf0CPXb2vX2CT9kgGgDpzvff+7jKYANrwXfvDDaG9lXnrj7Wiv/mz18LdibUoFswGw5wTK+GYz+w/FYmornV7Sm0FRf1PM6UE3rmNOQgkzg3bNNHqxCoyM4+tHXk7ZBk6unz12NNrDspl/LW48bl6xzb/HqNIcAID1LPyA1Gx+sVhK+4CIrRy2LSm6coXwP43yfx52luokEoo9/KAcN1Y6WSHwfflXr8m/cXPOfezmuY7O9XXr096ucL9evvmdb0d7ANAaCJEBtIT1FiIHZn6bDXxNmjdYA66rnc7sdYsZNVPl/1yY1sEwRE4q4XiKK0aIDAAAgKbWkS/q8atDYQVxZYBs2Vmqs2WLUn/x53IS8dLJSmYeW3j5VRV+eaJ044jdtZtn5tPn+rp0oa87nGfXAyEygFZTWyoBALjLAtkai4SZPl/3fNW6LMgmc/sH4rHSZDnwzXza9kWumEkDAJrQTh35yvP6/X/x7TCUCLc/fEo6/vzs8Xee18zHcfc+pa/9Wen8H33zWR3ojs4DwDoVN/Nd2wO5HCDbUDgMgB0zl7XfxLLfyDJzXKctaba2OzbZLZEwt3Vn7lOaAQfh48V8P2xrsXmahYwBYKViv/t7v/Mfon0A2LBOv/9htLcyF69ci/bqL24muYfdeBgYl9m2Bb4TyA8c5czpbnNcXjRvMfYWPWby/Gnga7ti4WO75nFsS4tqiub6k4GnRi5fs/eeHdEeAKylQ3rmT7+uJ44e0YOP2u2gthYv6dLgnQtaHv3Db+vpY6XbHRgo6pNzt6Jr6m2n+VnPaH9/SrHK8o7csE5PpfXg5vbyCY2+f0b21ejAF57W7k2lr3M7yXa5kx/pUqP+egDQYPYbc3tHJrRjYjqcsdottnePUv/qXyr5219W8pnj4ZZ4/DEpmaza3it2z04ljz81c/vkF5+W8gUF166HoXTcLy3MN9zRXpe2Fvb1AQBaCZXIANCk7MIiNiKwdcWj8ksna7DdDO2bzOS6aO5jK5iXrkNe/SQaANanpPoPP6UD0VH9dar/wCN68uvf0HN/8i197Xh0utKRwzOBcK3OfvSZxgulfX/yhq5/VNoHgPWoo1AIA2SrPCt1OjrkpNqlVGp2s9XGhu2pPX8L2TUkKm+f7pDazWOYebF9XLv1TWXVm8kt2uoNALAwKpEBtIT1VokcMoe+AnlylTcT3W1ubZ/72ShiwkbHgWP27SbZYovS9PlOVCIDaB1btefhHUpXZrbxTvVsmdbZC8PRiZIdB4+oNyoC9ievr7ASeb+Ofv0R7ehJKRl3lRv+UOc/i66KpO8/rAN9yehoUldfeVF//4s3dfrjK9Ku+xesRNb4FZ3/8MPwte3j05d0O7weANYfG+bumMhoYDKjWFBqPWEFhYKCqSl5n34m7/zFlW2/OW8uLygYHw8f1272ZxRjbliN7FepaK4VlcgAWg2VyADQpOyk2g7SthI5Yya80+UqiyXY6fB+cy/f3DysRDYT5NrrmAGg9bTfe1hfuDc6uMt2dpQDZCM/qaHfzA2zAWAji/u+unP58HJOpDs6psIbb8k7e25l25mzKr77vvyr18ycenYObX/Gluls2CMZALA8zve+/93aUgkAWMde+MEPo72VeemNt6O9+rO9jr8Va1MqmPu5nl052pOvrO9o2lx2mWnv/bHavvJsp8XveUXZXsgpsyVdu1CfOVpgxM84vn7k5ZStMaReiWePzSwHBQBryPZEfkz9UW5byOeVSEYH4xf1yl+/ouulo7An8t5Npf3C9Xf0k787XTqwuvfqyJOHtXf7JiWiYdnPZzR++aTeevmMRs3xga//Mx3ZXhEQV8rf0Afvm7/NEwNKRKfmymvw1z/Wid7n9c3PRX8JjeniD/5W4auRXXBv3vmr/+QPdHxPZ3TO/Dq/eVF//8qNcD/9xDf09Qf7ouoR89hv/V+dODUZHgHAWrIL6R2+MaK+TO6OCjdbCJH+T/8+OlqmbFa5n/5c3nsfRCdK7GzXbq/v2qaRVJUxukZ2cVMAaCVUIgNAk7KBr62WiLmB4uZyzEx571z6aWF2cN/quvLMY3jmfqXajsaFxACwLt2+oVH7lQ2re5cePr4zOlhE9yE9843jOnDPbIBsucmUeu57Ql/+vcfUH527m67/8qRuZKIDo3v34ajX8359fl85QLaB+Em9TYAMoEkkzWS1veiFM9U7BIGCCTNeOY6CqWn5doE8w7Et3jxf/o2bZlArhNeHtxkZVTAZ3d5cH4yOhbevVP45nblaZ9UAgDJCZABoYraSOBaU+hxbtba0sHrNfW1Fchgim7sRIQPAfLf0wfmxcKy0I233vsd0dNEW7gM6+uwj6o/aFBcGT+vNv/6hfvbzkxrMls4lttyvh45IZ//ux3rhB+9osCKnGP/ND8NvxrzwP1/U2Y9e1E/M/gfXK25gK5Tt9T/4sU4se7G8c3r31A1F6+1JyQHtPT6g9LH7NZCKzhVu6dxrpzUVHQLAWrNtJWwri2r8azfCMNm/cFG5//U3ZhwrlhbTGx1V/v/8XMFQ1BU+n1fhtTflfXI2vL3MYwYTE6Xr5rFBcqpQ/gQRAFArQmQAaGpOOFC7TmmRvKGg9v5tKTNDtgvqhX2Roz8AgLkGX/21Lo1EYUJsk3Y//pjSpaM73XdI23vL/SuGdelX7+izcWnqxvv6+Ea5ujem7u2Hov27a+rU6zo3OBuMdN/zmL6wpy868nT79Cs6Zf6+ANAsXDM9tVs1/o1SWx4lEwqy9tO60o2DfF7BdCYMi8PjTEbB0FC4H/I9c/10dHAnu8AeAGB5CJEBoNk5NpIohcm3/SAMhWsRN/fpsyFy4Jj7OGFRxsJsPQYAtKobevudzzQVfUbn9t2vJz8/21t4ju2dioqQ7Q21/4++HfbEtNszFf2IEx3lfsV326ROvXdR4+UXilSfeqIqZH/4jN58lzYWAJqLXQPETkWrzUb9a9fMlWYe3NsrJ9WuoFgsXTH/Drm8/LFxOeU+9zZczs98N+MOtt8yAGB5CJEBoIlF82rFZBfGC+fQGlxG5cRO15Vv7lsM/PDr2uFE/Q5UYgBocZdf0XufzVYSbz74lNLrNV+49rrO35zf6zOvofPv0MYCQNPxzeS24DpVZ6P+iF2q1MyBu7ukZFL+1Wtm6nrnrYNcTsplpfb2cMJsq5RnAucK9p52y8YrmtoDAGpCiAwAzczMcl3zx4bHMfMPW5F8Vl7Uv3NpSXP7tLmfrUQOQ+SqU3QAaG1zFqZLDqi/O9qvxh/Wub+OehzP3/7m9ehGc8XcKhXO9XTvU7pvW1SJNyOp/oee1d7oCACaRT7mKlcl0LWf5QVT0cdf8UR44V24FF7OFxQ9KWFmvql2cxDIvzUUzqOrmUzaZasBAMtBiAwATc5OoO1gbafXdrsR+IrWb1qSve8m11HRzKI9M5EOQ+T1Wl0HAA11Tr86WbEw3UJGMrPXu33a/exxHbw36jm8Zaf2H3tWzz33VOl4Aemtj2jXUuH0qgzo6GN71V3OY8bHZquPUzt18Es7owMAaA42QM4k4tXz3kIxDIXlunLiCXkXP5Vjqyvm8zwzyKbl2Epkw795y/xz4Ue1P3MqWQqlAQC1I0QGgGYX5b62pYUdtKfMRPp8zZ2RpR5biWwew36hr+oEHQAgffSiTl+b3wqiwkcXdbtcrWwkevfqod/+Rqkv8u89q0cP7lR6pmmyNaxC5cN179WTto/yn35FB6JT9dT/9BPaXV74T3kNfvKSPqtYaC+95zEd3REdAEATKLiuJpIJedVaWni+ZBfUi7lyOtMKbtlweB4bMpvbuF2dUkeHmTibxxocDC/nsz9jONUWttAAACwPITIArAN2sLZVF/aLd3bK+wsvX3Mg3Gnu0WbuZGME39xpgTZyAIDI2ddParBqjnxO7566qmzNn+Pd0LnBu7SY3Y6n9Oh9m2Ym9/7wOb390aROfXh1tho5tkm7H39M6egQANaaXa/jVrpd2XiV9hK+L//W7XAC6w5sC3sd38Hcxrs5KKetbWZhPX94JLysZKfANqweND/Pc4lCAGC5GDkBYF1wZbsa26IJGyJfN5PlG8uoK77HTJSL5uZh7mEfAACwsPHTevvjW1V7z0+dekk//eX7ujqUUaEyTPbyyo5c1dn3T0YnSgZPnNCpS2MqlB/Qz2v0/GmdjQ7ro1NHHq9oY6FJXX83Wkjv8gmduz6birt9+3X0obvQmxkAajTRltTtVFs4s62c3Yb7YYg8FB67O2e/SuGEE9poUhsECmz7CttbOQqHg8mpOVPe8mPbKuSRjvYqi00DABbjfO/7360cpwFgQ7ILHa3GS2+8He3VX7vj6FuxNqWC6p/r2Ymub6a+NoR4XQWd9ot6Lt6mZ5zaFgWxrSxOep7azGXKdRSrmDlnHF8/8nLKNrBE+dljR6M9AAAAYK50vqDHrwypo1CsjIcVxFwlvnRcya/+ljQ1rfw//KOSf/C8ND2t4rsfKPbQITnd3Sp+8IGc9pRiDxwwd3Y0/e/+o5kAz37SZz/Hs4v4fby1R9e603UJkW0rIwBoJVQiA8A64ASlybRrdsqLiZzxbTRcG1ucZus77AJ7ftX6OgAAAODuswvdnRzolWfmueWq4ZCtMh4bL+2nO5T8na+W9js6FD/2uJxN3XaCrPiRhxU7sD8MkJXLKagIkMuPZcPjm10pqpABYIUIkQFgnbBf27PtLNyoYvizwNfY7BR7UXau3OfGVDB7vpk5M3kGAABAMxnuaNdH23rnhsh+IP/yFRVeOlHaXntzdv/lV1X45cul/f/3KxVOvBLu5/7qJ+Fd7WPY0gl7ebujTZ9s2aQivZABYMVoZwGgJaz3dhYhx/Y09vVq4OmkVwhPfTGe0O86pQVEluKZKfS7RU9dZvLcbvbd6HNE2lkAAACgGcT8QPeMT2n/7XG1mXnrTN3Dcuap0bf27D1saGwX0js10Gf261tFQTsLAK2Gj+EAYB2x1chOxST6Q6+obDhFXlrM3LfPTJ6LgU8lMgAAAJqOZ+aqlzd16nR/b7gInp3lhjNdx8yBa9jMP2buM52M63xfV1jdXO8AGQBaESEyAKwXZjZspsfhnzK78v7N0tS6JpsdN1xkL6h4DPuoAAAAQDPwzdT0RmdKpwZ6dWbrJk0mE+Fs17amKK/sUZ792sv5WyHm6lJvpz7c1mcuu8JjAMDqMZoCwDpiF9gL7D8ixSDQmaD2BfY6HCecfNv7zarcBwAAANaW/dacDY8v9nbr1/du1Xs7NutGV0r5eGwmLC73O7abrWAeaU/qk609enXXNn2ypUfDHW1UIANAHa2uJ3IQqOj54SbHNdvaD9Ax81dI2E8aea0AUGFD9ESOvKK8PvBmg+Nec/9/E+9QLDpeylm/qKIZ+dNuLAyl6YkMAAAALA89kQG0mhWHyL7va3B4Qm+duqgznw4p6NwjN9Gh2Bp+0uc6jnb0JfTlh7q1pStBkAxgxkYOke1Y9514ux6oMUaeVKALnq9u15VLiAwAAAAsGyEygFaz4nYWY5MZvfjqR3rtvfMaHp9SwQtkC5LzxWDNtmzB14WbuXDzGxiGAGg94UIdTaKyJ3LIDHfv+sXwq3y1SJvfJWku79Y42UzPHQAAAAAAWL4Vhch+4Ouz68M6c+mmOWq+sDab95vwbwVgPYvHam0W0XjBAuHvFd9XPtpfim1h0WlGf8+OlHch322m5w4AAAAAACzfikLkwA90a3hCnudFZwBgY2tvs7W7zWGhyt5h+boxs1710rrN8J9XcFc+cGum5w4AAAAAACzfittZFAmQAbSQrnRHtNcEFkh+bXHyL71CdLS0TscJ77NQVXO9NdVzBwAAAAAAlm3FITIAtJKe7u5ob+1Vqx/+2C9qtMbaYjv4b3Fj8u9CO4tmeu4AAAAAAMDyESIDQA229G5qmgXiFvt7nA1q/5ZIn3mcRneQt39X+9wBAAAAAID1qylCZPt16sD3zFaMNrN/F75iDQC1sovDbd+6OTpqXmfM+FmrhNnichoaI9vnjIX1AAAAAABY39YsRLZhcTE3pfz0sHITN5QZu6LMyOVwy45fU35yUIXMqLxChkAZQFO4d2BbtNe8zgWeijWO7Lae2XYrbuQIux6eMwAAAAAAsLi7HiLbKuPC9Igyo1c0PXxB00PnlBm+qNzYVeUmrodbdvSypm9f0JS5btpclx27omJugjAZwJpKd6S0a3sThKKLDIVZM06+6Rejo6X1OG7DQmT7XNnnDAAAAAAArG93NUT2i1llRi5pevhT5cavy7PBcNWwI1Dg5VXMjCprA+fbNmi+Jt+cA4C1sn/3vepK2/rdtVNtYb2yV4pm7Iz2l5I0W1tpt67sc2SfKwAAAAAAsP7dtRDZVhJPDp5VbnJQfjFjzswNQeziS22JhBLx+AKLRgXy8pPKjl0NQ2jb4gIA1sqh+/aGY1W9Bc68cNgcB2Y4tFvBbBlzPO74ykVXVzNhtnPyNGJuP2nul7ePYc5Vi567nPq+FNjnxj5HAAAAAABgY3C+9/3vLl7StgDP8/Ti66d14q0z4bETS6hz2yHFk+nweL5CdkxTt34TVhZX8xf/9Ksa2NJjHtvX6x+c1ctvn1a+uFAtnaN4qlfpzXvlxheunzt2oFNPH+xSzHWiMwBa3Qs/+GG0Vx+jE5M6eeacCguOU8uTdBx9xbU1wYEmzTZmtonAN/ul9hR5c2x/il0yz3b1qXXQtiOgax7bxt12S5kzHeZkt1z1mvFxs+NqU1BaWO/HXk65OrQMsgHy4fv3q6erMzoDAAAAbDzf/M63oz0AaA0Nr0Qu5ibDVhSLBcjW3p39SrUl1dnRrs2bOtWWTETXzBeomBlWZvRy2F8ZANaCDUk/f+j+urS2yAeBfu7l9DMzTp7wCnrfK+q87+um2cbMdZlAKpjNN9tyYl57W8/c34bDU2YbCnx9Zh7zlF/Ur4oF/aSQ038vZvU/zFaPANk+F/Y5IUAGAAAAAGBjaWiI7BfzYQsKv4b2E0XPj/ZsUBIsuYhefnIwbI2xvEgFAOrHLhr3+OFDdVlsz46AazGa2Z85O/qunH0O7HPBQnoAAAAAAGw8DQuRbQhcyAyrmBu3R6WTi3jno/M68+k1fXzhij69dkvZQiG6pjq74B79kQGsNbuA3JMPP6gd/VsW6Om+cdnf1f7O9ndnET0AAAAAADauxoXIxazy0yMKvKXDYOunJ97RC3//ul74hzf03scXVSwu3aoi8AvKjl2ze6UTALBGbAXuA/v26ItHH9Gh/fvCcNW2d1h4sdD1x/4O9nexv5P93ezvaH9X+ztTfQwAAAAAwMbWoIX1AuWnhjV9+7wCf/WLTi3GiSXVNfCgYonZEIOF9QDMV++F9QAAAAC0LhbWA9BqGlKJHPi+ivmphgfIlv0ZhexYdAQAAAAAAAAAqKcGhchFefnp6GhxB3Zv17NPHNZvPVnanjn6oO4Z2BxdW4MgkJediA4AAAAAAAAAAPXUmBA58MOeyEtJtSX19eOP6mtPH9FXv1Danvvio3rq4QNKp9qjWy0lkGd+ll3IDwAAAAAAAABQX41ZWC8I5NfQysJ13QUXnHLNObvVzAbIwdIL8QEAAAAAAAAAlqcxlcjmTy2KnqeRsUmNT2WiMytlfiKVyAAAAAAAAABQdw0JkcPq4hoqiXP5gk68fVo/e/nd6MxKOebHNaaoGgAAAAAAAABaWWNCZPPHjSWjo8Vdun5L731yMTpaGceNm40QGQAAAAAAAADqrTHJqxtTLF7rwnir5SiWSIWXAAAAAAAAAID6akwlshtXrC0dHTWY4yqe6o4OAAAAAAAAAAD11JgQ2XEVS6bl1FCNnIzHlWqb2/oiFnPV3pZQrIYWFTawTrT3REcAsDDbZgcAAAAAVov3FgBaUcMaCdsWE4l2WyFcfXCNx2L6468+pX/7578fnSl56HO79Jf//Gs68sAeuYsu0OeovXtAjhuLjgFgYYl5H1YBAAAAwErw3gJAK2pYiGwX1kukeuUsssBeWzKhrX3dap9fiey6Sre3qb+3e9EF82y1c1vXtugIAKpLd3ZGewAAAACwcry3ANCKGhYiW04sLneRKmHf98OtmqJX/TobTqd6doXtLABgKT2be6M9AAAAAFg53lsAaEUNDZH9Qk6+V4iO7pTLF/X6+2f0ynuf6NV528tvf6xPLl5dMGS2wXH7pp2KpzZFZwBgcf0DA9EeAAAAAKwc7y0AtKKGhchB4MsrZhX4xejMnXxzm/fPXNI/vn5SL74xd3vp1yd1dXDYPE4Q3bqkHCC3dW6Vs2i/ZACYtX3XPSyAAQAAAGBV7HsK+94CAFpN40JkryC/kLF7pRNVFD1PmVxOmey8LZe/M0COtSnVu0dt4WJ6tLEAULtEIqE9B+6LjgAAAABg+ex7CvveAgBaTcNCZN/Lyy9mo6P5bDVgeVuKI8eJKZHqU9e2g2rr6g+PAWC5PnfogWgPAAAAAJaP9xQAWlVD21kEvhcdlThOXG48FfYybuverkRHn2KJjrDC2IklwuricIslze3aFUt2Ktm1TeltDyjdf7857ogeCQCWb1Nvrw48dCg6AgAAAIDa2fcS9j0FALSihoXIsXibEqmeMDSOJdNKdGwOexmnt+5XZ//96ujbo86tB9RpA+LN9ynVs1vtPfeay11K9e1Weou53cBBc90+Jdo30f8YQF0cefwx9W7eHB0BAAAAwNLsewj7XgIAWlXDQmQ33qb2TTvU0bfbbPuU3nKf2nt2Kt7WNduOwnHCiuNER0/YpqK9e3vY77gtvVXx9m65Ln2GANTf4198Ssm2tugIAAAAAKqz7x3sewgAaGUNC5FtL+NSQNyneHsXC+EBaBr2K2hP/9aXCZIBAAAALMq+Z7DvHWhjAaDVNTBEBoDmtWVbv778O1+htQUAAACABdn3CvY9g33vAACtjhAZQMuy1QS//fxzLLYHAAAAYA77HsG+V6ACGQBKCJEBtDy7QMZXf/93tffAfjnmDwAAAIDWY98L2PcE9r0Bi+gBwFzO977/3SDar5nneXrx9dM68daZ8NiJJdS57ZDiyXR4vNaOHejU0we7FHMJgwAsT6FQ0PXPrmjwxg2N3h7R1OSkCrm8AvMHAAAAwMZgA+NEW1Lpzk71bO5V/8CAtu+6R4kEC/wDwEIIkQEAAAAAAAAAVW3IdhYO2TEAAAAAAAAA1MWGC5ETcUdbuxOiCBkAAAAAAAAAVm/l7SxeO60Tb59Vb1dK92zbrK6+HXJjSbnu2uXSiURMO7e0a+9Au9oTrBkIAAAAAAAAAKu14hD5pTc+0dWbI3r6yH6lU0m5ztqHtm3tCXV3pxSLESADAAAAAAAAQD2sOG3t25TW8SP71dOZUiIWCxexK2+2lcRqtloeq/I2lRv9kAEAAAAAAACgflZUiez7vgZvjSm2QAYdBIFyuVxYrbxSiUQi3OzPyWaz0dlZsVhMyeSdrTNsJXJnV/uattQAAAAAAAAAgI1kRWmr6zjq7GiPjuayIbINfm2QvNKtUCiEj2MvF7rebvZ6AAAAAAAAAEBjragS2cpm85oYy0RHs8rhr60iXql4PB5u9jHKgXIlW2lsr6cSGQAAAAAAAAAaa8Uhsuf5mpzIKJ8rRmfWXiqVVLqrTU4TLPIHAAAAAAAAABvBitPWmOuqs7NdqY6kYrFoQbs12uzPjidiSrbFCZABAAAAAAAAoI5WXIk8IwgUPsBa9yh2HNk/YbAMAAAAAAAAAKiL1Zft2vDWbq67tpstRyZABgAAAAAAAIC6ovcDAAAAAAAAAKAqQmQAAAAAAAAAQFWEyAAAAAAAAACAqgiRAQAAAAAAAABVESIDAAAAAAAAAKoiRAYAAAAAAAAAVEWIDAAAAAAAAACoihAZAAAAAAAAAFAVITIAAAAAAAAAoCpCZAAAAAAAAABAVYTIAAAAAAAAAICqCJEBAAAAAAAAAFURIgMAAAAAAAAAqiJEBgAAAAAAAABURYgMAAAAAAAAAKiKEBkAAAAAAAAAUBUhMgAAAAAAAACgKkJkAAAAAAAAAEBVhMgAAAAAAAAAgKoIkQEAAAAAAAAAVREiAwAAAAAAAACqkP4/BlyjyrILgPAAAAAASUVORK5CYII5rO6NVw3G9abOLzikc986y+7U+CgPHwOw4Wrf/NY38s84AFgy3ah8Nb7/0yer2NobrdXijxsjMda79N8mdODVST9pW+lT8IleO17otuNfDo3Gx2rzvxgvS0+dfb7TifE0HUsHe/Xs03S61o0/68zGzDqegveFTz1cxQAAALafiblWfPyd4zHeaufDcdFr1KP5zx6N4d/9rYjzF2Lu7/4+hv/wqxEXLkT7qV9F4/77ojY5Ge1f/Spqo2PR+NDB1LgWF/6n/yVCD6eo6O8UeujFC/t2x3uTE2syaKdbEQDAUnGmHYBty0+R1Rl3CvJS7+LH/F+KLqQYjvIpst2Lnj67Bkd1AAAAuCQ9GOLZA3uio/vRpfT8n0p1Ft2Zs2V8YjyGv/y7ZXx8PIY+9fGo7ZpMv4RrMfTgR6Jx8O5iwC5mZ8unyVbclwbr3t85xll2ADYFg3YAtrViwC4dhPk2xi93O+nAr4hekT5A9RRZ/W1Xh3gLD+bmDxsBAACwTk6Oj8bzN+xZOGjX7UX37Xei9f3Hy/CTn/XjP/hxtP7hB2X8H38Yrcd/VMRn/9+/LJqqD/0pVtMT4yPx4vW7os297ABsEi6PBbBiV/vlsYVaRDsdmv2k14lnO+WDKP6oORKfKO5ad2XT6ZDuuXYnJuu1Yp61auSOy2MBAAA2RqPbi1vOno+7T5yNkXRcNv931OUch+lsu0QtNEinB088d2Bvii/4q+yqcXksgOXgTwYAtr3ypsT9g7oftueik6UvZyy13ZEO8tqpeneJbQAAALB29HTXt3ftiEP79xQPjdARWXFUpj+oLiGk/823uTA8FK/u3VmcvbfWA3YAsFwM2gHY3tLRWXGJbHZt6+kUjpXRJbm+rktke+lffmDHQR4AAMBG6aZDryM7xuK5A3vipX27Ymq4WQzC6VJX33m4GMirpoOh1ajHm3t2xDM37E3TnUUaADYbn0QAtj09kKKn/1VavV683uvfiPhKdKadDgY7Cy7ByOMAAABYb/obrAbrXt8zGf9067745U3XxZGdYzE31JgfnPP96hR0ht6p0eF4cd/u+PFtN8SL1++Ok+MjnGEHYMtg0A4AkvzQTAdxT3ZbxXQpxlJoprD0FgAAAFgvOutuZqgRh3eOx1M3XR9/f9dN8R/vuTW+NxD+5oO3xE9uvyFe27uzuCxWg3gAsJUwaAcAi3in2413lzEId1O9Hp1UfeETZAEAAAAAWBkG7QBsmuLGv1tEbZF70D3ZnatiV7anXi/ujbdRD6PYStsOAAAAALD2GLQDsGmGGo0qtvl6C+5HV3q9242lDtvplng70ydqe5F+1sNW2nYAAAAAgLXHoB2ATTM6MlzFNt9iZ9odj26cXMaZczvSR6rua7cRl8hupW0HAAAAAFh7DNoB2DQ7J8ar2BawyEBbuxfx426rSl3ZrlqtaNPbgEtkt9S2AwAAAACsOQbtAGya3ZOTVWzzLXZ5rDzVbcfUEs+c0wWre+v16JbJdbWVth0AAAAAYO3Vbrn1g738hub64eq0pkp3u90i7nylG41GMXV9/+B1vcEfwE7X0w/axeoqFOmUP9hWbbwMoqnSpUsvu3hZHV/Ytqyn/judznyZ0rV6v1693ij6dpl5fvVsXp6v6Gwbpcu8cj7u0+uoMvfjPFHddrtdza9ap7RMrquc+XgKg/MW5ymortLaFq4vg+Vexjzf03z5B9s57TLluY3SnW65faXXLft0O9fTtNhqaap8h7yepGhBSZeZ+1Fep9Oeb6d8hU67M19Pr3mj0V+nfl75fnE/0k3Lb87X/DUdXAYry8p2ipdtekX/mrpdWa+/jgpaFuV5PxPli+p56rZOe+q2Wh9Rf+57kNuJyvN+lPayOT9fLtd3v643OB+nvRyS11VQXAbbelu4XFOlB+V91Grlfupldbxs238tldb+fdH+n83Dy+wy8/wUxP3bYLnXQ7yOWk7Xc57+30h1W/P7f8l13N98/9VnlfPNeZ6H0toWyvNylOVlv8rzMub5nubLP9jOaZcpz22c9mviPt3O9TTNyx3yeqK4uczcj/L8mrp/hf7+oNe8nbbHUOqjykufBYvv/1oG1Snn08/vr6vTOZc5rqC26l9Tt3O9j3zkfnVe9q/1SHl11a36UL6ofhUp+6zKlS4nZZ7Wcf7zx9u36mMB9ycqz/tJafVVzLPK93K99cZrMblrl2oqN954892intvlynT5HZivx/w8UijmkQy2VZt8G2vq7ZrL+/BU9S7e//ttlfb7wmVK5/W8zC4zz09B3L8Nlns9xOuoMtdznui1a7dbxdTyupL3PzhvcZ6C6iq9Ift/9Xmk73ntU8p3HXGf3U7K0zFNVU/5RbmOD1K++3Tbojz9pzIr+qj6FfejPH3Xu53ytfzz3//a11O8MZT2kdTHYJ64H3EdyfOLdR1YBnNZEU/lXlf1rz6KdtV6Oq5yL6/y8uVTvuTzdluni6ny0jbTa93/vCu3i/vIuT9R+Xz/aap0vpxSLFfqu3iNq/ruV/E8bU57OSSvq6C4DLbN35OiqdKDej3VKfdP19Xnnz7jy3jZx8Lvf38v6FhR8+mktPcRbzt/Xqtso/b//Pi/lNeVvP/BeYvzFFRX6Q3Z/9NUeW7jtMvdp/NcT9O83CGvJ4pb3q+4H+Vd/vu/jPt9PJgn7kdcR/J8TQeXwVzmuILaqn9N3c71XK6gZVFevnzKF9XzVNF8Hp667Zrs/9WyOT9fLtd3v643OB+nvRyS11VQXAbbelu4XNN8H7a8D0/1WTVUfZ53Uh/6rd6pPi9Fab/uZb9L/f7vL/P8vLJllMFyr4d4HVXmes4T1b30/l+m8/4H5y3Oczul9bq5vgyWF8uoz3vl6/uo+Ewty/PlX9Bu4PtBU9VzmyJd9SnKdx1NXU/TvNwhryeKm8vM/SjPr6n7V9DnfFlvkeP/LE/cjw5vtfzV4X8/P9F0cBnMZY4rqO1q9//G5K7r/tSNVFFcSdypO9TU+e5E7ZzvPvJy8ZtF8jqel6a6sXqxY1Xlnp/K3Fbcr6aq63quOzQ0tGDeijvtZXV/Srt/91VM0z8ts+iNqz7N7fM+8nQRH3gTa/ZeTk/Vrl++8ENBaQUp+q8OyET5+rDpqp+UVjvne55ep3x+i6VdV/PwG8TrI67v5ZLBN5L7c528rXSrHV80dXxQmV9udy9/rr9cveJ94vmKpo4rXzui0+qvzEt9Vnue0upPQa9vnqepgtprKvm6KSjtL3iXicscd9+itOqrnfsVf7goSN4+n3o9Fvbf3waiuNbTdZ0nfs1E5eY27jevpzKHfF5Oi9o5f3DZTPNbrI7n5WXOl8PzU57bivvVVHVdz3WHhpoL5q24015W96e0+3dfnnobKb7s/X8g7WVwXFO1y8v1ntZgnZbU9cX9W96PaPnVKLWYr+d1cj39IFmY7i+f6moe+fZ3met7WcX1RGXuL1+ffOrylFNMnT/I+e5/sF6+XCrv91u2dVz5eXv1N5intL6k1efS9v/yveD5qN7S9v+yvSit+pfa/2+4YX+R1gBbMU15VaSYFAN4Wi7PT/nqx/UkxT2oNj+Pqnx+cC9R+Ty3qfotBumKmIpSzKGal8qUf+b0qRgZHU3x8nU5c+bcJdddB0Jen7yO30ea+nWfXw6ta1XHbcX9aqq6rue6a/L9n6ZaHlF8I/b/wXVXSKXz/Vvej5QHnapf9lXmlevkeo4Ppl1X88i3v8tc38slricqc3+uM9+2OmZxuWjq+PybrFzN+fyi/+qHQK5YripP5Qv6zY63NPDl9ZdikEx5Az8cPJCnsjzPA2eqW5SlJsW6panyNC+lF+z/6lZVqzLXdd+iMtXXwKD6L6TJgu//lNYyiNfV+V6Pojyl3X9RT91VeVpPzcfzKNonxQ+Pqp7KzW0836Je2aQoc/A2cb771/o6v1j3JC8XzW+xOn4faao6fv+J55e/luJ+9bmtupqqvKzbGfj+L5fDaS9rObhXvlbuv+xrsf3fx/9lH56XgvT77G+bwbSXwXFN1S4vH1x3BXH/lvcjaifOF6+T6zk+mHZdzSPf/i5zfS+XuJ6ozP25Tt5WXC6aOj7I+e5/sF6+XCq/VL/Kz9urv8E8pdWfguJ5nqYKquuyfN0UlF7r738FydvnU6/Hwv4XbifFtZ6u6zxRvqnc3Mb95vVU5qD+3JfTonbOv9S6a36L1fG8tN+qjqYu97rlv+VS7ny/mqqul6uomz67ms3s+z81U9xpL2s9fWaqR6W1DGXepfb/xb7/y6m4T6cdz9NeBsc1Vbu8PH8NXF/cv3m7uNzb0P2K18n1HB9Mu67mUW7/Fez/1XeQ6+RtpSjP8hwf5Hz3P1gvXy6V5+urqePKz9urvzKv/z7yOiloe+Z5SqdoUVd5Mv+dXM1H9TZr/2/s3rPvT/OMIjPFRZW98oMb0XU1A5flcS9IvkLiPtQ2jw83m0Vc9fXjVWUuX2xahos3pKbqL6f8Sy2Hljcvy+NeRs3H6yP5PBRXH/n2KaZltKAfLO4rr2fOU/Dr4Dp5WwUvr6b6gS9K5/0Pvn5Kuz/PSzwVtVfI2zp4m6it6vjN6nmq3MuktOspLqnn+bikXos+Bj8IRR+mamuKe/7uW1U1aKm05+tyt1WdnOu63H1q6XKql/cjzkv/zc9Lyv7KeH++iy+/8sXbxnkKXhanxfUUlOc+XcfB5ZLXVSiXrx93vbyOX2+/nnme6pXbuz8111W/Lsvjy93/m9n+7z5cvth0sFzB66j+Um5RJsq/eDnKtOblARnJ63kZFZa9/2fyfSWvV0p9V3l6T6uuBuMV1xzytm7vbeRlLX5oqk7ad5Q/+PrlAyb5/D0VtVfI2zp4PmqrOsvd/6WM9+d76f2/v4+K4p6/+9bUwfN1udsqnnNdl+evec795svgPAXPS7xcks83b6u46ilfvG2cp+B+ikG7ql4xwKZ+Usj7LPqpQhFXvqaJ6jjP81gQVxv34fzq9W6k7VHMI8sr5qvlqKZFO0v1zpw5FWNj4ylalp09NzX/+ly8/5dt3cf8slbxtd//+5TfX46S22peeVke9zIqrN/+398nFfp1y+XI27q9ltFT0dRtlJ/vw04rLp6XeCpqr5C3dfB81FZ1rrj/px9ORZkGkyrKN8U1cDWUflyVGf1yr0v1dikO+D1/962p+vYPBc3X5arv+Lyqf39Oig/CC6pavWWKvrN+xHkKxYBWkTnwXsnmW8SVTHU0P83L28Lbpsir+iz6SfWdzuspqK37dB2HolxtVOy6apfqe30dL+rpv6qd8v16++w/hcH3TzGttru3k+t6+6ssj1+8/5eKPhK1zeMr2//9vijXTW0VV3855V9qOfJBAsm/F7yM6rM8E68/f89DcS2vl9l5uXxfyetZvr55XcnTCqrrbeTl1jTvf/D1U9r9eV7iqai9Qt7WwfNRW9W54v5f1VPcBuPqY3O//xe+H8z95svgPAXPS/I+8vnmbRVXPeWLt43zFNyP0+J6Cspzn67j4HLJ6yqo3zzuenkdv95+PfM81fP29tRcV/26LI+vbv8v27p84bRsN1iuUKxj9fmX0+9k/1Y2t9Xy5suYx72MCl4f0dTzUFx95NvHU8v3lbyeOU8hryt5WsGfV/lya5r3P/j6Ke3+8vl7KmqvkLd1KD8Ty4EwfWcU+3/1fVGWX2H/T5tqPp4ovjn7f7nM4nVKJUXayn61DOqzLCvzyuB5iZdL8vkutvzKF28b5ynk6zdYT0F57lPxxs7JvX+aL4jkaVVS2p2JO/LM/MbK5QuSU1qnfWrqNqq7YJ4KVf+el/vR1HXdh9/ITrvMbSRfB/ep6WA7T31wo/LiTVoNnonf2E7rR3b+oeD+NC1D/wVSvvoUt/cyKGg53bbUX28H8aCV+/BrkOepL/WttPM8b9dzuftW3O28nT0V1XGZ2wzKd3zPVzwf78RO5/3lf0VQvuLa/vly+gPUXSvucinrFdH5PPF6FftqxaPs6sPB3GfZx8IdSGXd9AHmdF4mfj28PmX9/jZTmesoXx9gbiuK5+ukNuK0y92Xp3l9Bc/T28z1xP2rTi5P532Y56f24vXIuSxvJ0pfaf8X9+95uR9NXdd9KK26TrvMbSRfh/I1Ud9u19/Onorqq7zc//vr6Pd33kb1zMvhZchDXtftvewKWs6iTorn8j7ydNFH+i//EnW/3i5KV1nz83Y9l+f9uZ2m4qmojsvcZpC3j/szb3dx2WB/ztNU+Ypfav83xV0urue4eb1KLu+/l3TAl/frPss+ym2ocqXz5XEdx8XvF+erfr7NlO86ytf+v3//vqJtQe20rJqmpNqU2WW6mKbyIj/FU6ScKiTz86nmWf7oLgqKtkWdqn99jqVIkSf5mXZF/aoPK+ad0mfPnonR0bH5bXr6zNliKs7rt+sv1+bv/2Wfmg6281SUr/LN2P+9n1jeR552H16+PM/bRWnned6u5/K8P7fTVDwV1XGZ2wzSZ5G4P9MBvwevXDbfn96f1Q+uoizVVb7yNMDnASin05xTh+oo/ZfyivUo3sfldvVyzc8/TYr1Sv24XZGtNuk/9aE2bif5oJfqzC9bmhZlWp9qWefLqmXwWXFFfvo3v47VPFTmz2zlawBTcZufR5WnNuK02nv7KF5MU9l8/Wp9vF2LbZbNW+vj/lUnV6SrzZD3YWqjfM1f8n3DXKZ6OaXXfv9fh+P/RPkq9yVTLtuY/f/i7eaQp93Hltr/q+3j/szzEZdpmvfnPE2Vr/j6fP+XXK76DuY+B/vVNF8e13Fc/Ho4X/XzbaZ811H+8o//y3VxX57m9RU8T28z1xP3rzq5PJ33YZ6f2ovXI+eyvJ0ofeX9v1xOL5/i7kdT13UfSquu0y7Lj6H9h3GZ/6O4P0Ozdp5K0UcqX/z7f+H7QvXM/Wk6GPK6bu9lUNC6uG3O5c533H14+fI8bxelned5u57L8/70ea98fw/o89VUR98bxXdC1WZQuX368zDPR1ymaTGv6vVxnqbKV3zt9v+yn9yC4/8iuLzfZ9FH8d/CZfN8XMdx8evhfNX3Orqe6yh/Oft/yi8XUh24QHnuXPIGzs871ExF+c6zxdKal+cr832mYKqnoHz177SU7ctTact0OWLr+o67vuPqx8sqXl4HL4eC1y//sBPlK0+UpzrNbIN7vXzQVPbRLtoMvvlEadfL0w7O0wdM3i5v47iD2+Z1vVwud1ttD9dz3uAy5vI+FbwtzPlqr+APSM9HIV9HU57rqJ3ruCxfnrydFPPJ2ipYPi8FpS1/L5jWx+09H8/fbT11vcXK1LeCLtUQ11W5g768lK/5eFmUdp7qeF9x0M6tqcq1rOpDaS+Dgtq4L0+9f+f1xFOXi/IUd9pTL5eC6rh/L7vynWeLpb1O5j4VTPUUlKf+nRa393zz9XUfef0yrtejUwRTXddT8DIoeP20jZ0nyvd7Xnmqk3/ger3cxn04uN9+f/3XpUwvfL86T+V5u7xN/oPNdfL2+iLycrncbbUNXc95g8uY6/dZ9u9tYc5XewelPR+FfB1Nea6jNq7jsnx58naisrytguXzUlDa8veCaX3c3vPx/N3WU9dbrEzLo6D3hriuyh0W2/9TRhGKZdXrpv0y1XUozppUXG30ntKP8ZQu2lR1fKbcguVLB1qp0YJ64mnxl8dqfYu8FPf6e1r0V+UXdcru5+ejfMdtsfTm7P/r9/2/uv2/fC3z9m6b11F53i5v43hex8HlXi6Xu622h+s5b3AZc3mfCt4W5nwfrxQDSintgR/F83W0/IeA2intcg8uOZ23E83D/RfzTMGKfjTfbN5W/CgZoP1J/cng/DV1WjyfxcrUt7atzyZ0XZU7tFtp//f2qd6XxXar8rSsGtjL26g/TVWuZVUfSquN63jQdH75Upny1MbLqiDeHtqH8vVV3GltOymWK9uO7t/L7v5zi6XXbv8v33tLO/6/0vd/+d5z8Prp/a3vT/erfL/n3Z79v8/5au+gtOejkK+jKc911MZ1XJYvT95OVJa3VbB8XgpKm9oM0vq4vefj+butp663WJn6Vlju97/SzlMdv9cd1J+mek/qd+X2OP4vXxP3pf1d7T3ffH3dh+L67Sma6rNL97LL72enuu7XbR28fno/OE+U7/e88lTnmtv/0+d/Ua/63M/N91l9D+g7KKc891+E6jvD81HI19GU5zpq5zouK5anSuftRGV5WwXL56VQnmFX8vsnp30qH8gTz19Tp8XzWaxMfSusx/5f3NOuqJ14xS3vyI0Xm4mozG9w96OQl4vLnO9pkZemg8vg+Tl4GVJJWaEalXc99yeuq6nb57y8Wjevj+vozdb/a2O5bu5H1K+CzrBTW39wiJfFvO5u72V03PVVrvnky6O462h5vMyDfWiq4OVwvvrU1NtVweXitoNTl4vTKhP3Ka6Xv24X9VHEy3bFepVNC0q7P089rzye9zffbzLYxvUUV5koLm6XL2veTrw85rpVcRX3+39h23w+ivu1c7m4juTz8Xrk9RX38pTzK5fHyySauq3zFVzf9fL3keOD8n7FfbiN55P3735Uttr9XwaXwfNz8DLklO96/bJ+XU3L9v3tLZfd/7N5KO9S+7/y1FZ9mPJdT1THU+W7b8eVVFzl7TQf39tTFC8OOqo2K9//+3VcLm47OHW5OK0ycZ/ievnrNtiH4+UfWsr1MqXdn6eqq2kedx/iqQy2cT3FVSaKi9uVy1qW5e30+aof2/5BK16vsm05VXD+fNskn4/i3s9cLq4jXj5RfP++6y/qrzjLTeuYpmVe+gFbzVs0KQfQ/BpX81edorysV1z+qn+pnuN9KZ6qXXRGXdWH2njwUPPRTFR25uzpGBkZKerqDzMnT50u2ufbzOvrg6V8u4mnnq/LTeXuS8Gvd075rpeXua6mbp/bOvt/WV/lmk++PH4Puc3K9//+a+JycdvBqcvFaZWJ+xTXy1+3fHBHbyC3VzuvlxX7W9Wfp6qr6Xx88LNLPybK2ffbpLy8XtFftR8Xx3Lpv6JdUixrFZ9vl5UV7ar+i8FA/dO89V/Vf5Gv+VTzVH3NU4r8FPfZdu5bijpVspiP4imrWI9Ut1gX9afslC6WR9tNPzZTtqb5ttbU22B+WdP8XN/L5rP61Kfj8xSt+na/4j6KNul95WVUHb+O7kdlfm96+RTycnGZ8z1VnuTrJip3Xwpe11JZT/mu1y/rvzc0LdtrGfp9l5e8lj+MyvUp5yF5P8pTXfcjKnffauv9TpTveqI6nirffTvu+iq/Jvb/gT4cVzuvlynt/jxVXU3zuPsQT2WwjesprjJRXNwuX9a8nXh5zHXz+grOz9vm81Hcr53LxXUkn4/XI6+vuJdHU9HU8041iqnbOl/B9d1X/j5yfFC/35L7cBvPJ+/f/ahsbfb/sg8rB9O9/3pdF76H3J+nVvw2T2lNy7ap36prTXSsreMWrZvXR/Uk70d5WjfNOy9XUJ7aqg/zspjX3e3dt+Our/Ir7/8Lz1J0XFMFL4fz1aem+WvicnHbwanLRVGXifuU+e9NfXdU8QV9VG31T+28Xqa0+/PU88rj8/0lnspgG9dTXGWiuJTt+u9P57mdlMvTfy0XbDf9V8Wdn7fN56O4XzuXi+uIl0+8Hnl9xb19NJVutxv/PwLf4wxFTrcKAAAAAElFTkSuQmCC;movable=0;resizable=0;rotatable=0;deletable=0;editable=0;connectable=0;" parent="1" vertex="1">
          <mxGeometry x="217" y="150" width="1195" height="760.61" as="geometry" />
        </mxCell>
        <mxCell id="cvI-DJmk5nsDpkG_RvR8-2" value="&lt;font color=&quot;#6e5d57&quot;&gt;&lt;span style=&quot;font-size: 15px;&quot;&gt;&lt;b&gt;NON-SENSITIVE DATA&lt;/b&gt;&lt;/span&gt;&lt;br&gt;&lt;div style=&quot;font-size: 15px; font-weight: bold; text-align: justify;&quot;&gt;&lt;div&gt;The &#39;Nome&#39; field will be the one that appears on the Home list.&lt;/div&gt;&lt;div&gt;&#39;Url Icon&#39; is the image that will be displayed in the list and is the same as the one at the top of the window, if this field is left blank a default image will be set. As it is a url, it is necessary to copy it from an image on the web.&lt;/div&gt;&lt;/div&gt;&lt;/font&gt;" style="rounded=1;whiteSpace=wrap;html=1;strokeColor=#6e5d57;strokeWidth=5;fillColor=default;gradientColor=none;spacingTop=0;spacingLeft=0;spacingBottom=0;spacingRight=0;spacing=20;" parent="1" vertex="1">
          <mxGeometry x="190" y="240" width="330" height="220" as="geometry" />
        </mxCell>
        <mxCell id="cvI-DJmk5nsDpkG_RvR8-3" value="" style="endArrow=classic;html=1;rounded=0;fontSize=15;fontColor=#6e5d57;strokeColor=#6e5d57;strokeWidth=3;exitX=1;exitY=0.25;exitDx=0;exitDy=0;" parent="1" source="cvI-DJmk5nsDpkG_RvR8-2" edge="1">
          <mxGeometry width="50" height="50" relative="1" as="geometry">
            <mxPoint x="760" y="382.74" as="sourcePoint" />
            <mxPoint x="650" y="390" as="targetPoint" />
          </mxGeometry>
        </mxCell>
        <mxCell id="cvI-DJmk5nsDpkG_RvR8-5" value="&lt;font size=&quot;1&quot; color=&quot;#6e5d57&quot;&gt;&lt;b style=&quot;font-size: 15px;&quot;&gt;SENSITIVE DATA&lt;br&gt;&lt;div style=&quot;text-align: justify;&quot;&gt;The &#39;Username&#39;, &#39;Password&#39; and &#39;Notes&#39; are your sensitive data and you will be the only one to see them, in fact they will be stored by ZiFiorino in encrypted form using your app access password that only you know as an encryption key (for more information on the security of sensitive data and access password, see the Technical Notes)&lt;/div&gt;&lt;/b&gt;&lt;/font&gt;" style="rounded=1;whiteSpace=wrap;html=1;strokeColor=#6e5d57;strokeWidth=5;fillColor=default;gradientColor=none;spacingTop=0;spacingLeft=0;spacingBottom=0;spacingRight=0;spacing=20;" parent="1" vertex="1">
          <mxGeometry x="190" y="480" width="330" height="230" as="geometry" />
        </mxCell>
        <mxCell id="cvI-DJmk5nsDpkG_RvR8-6" value="&lt;font color=&quot;#6e5d57&quot;&gt;&lt;span style=&quot;font-size: 15px;&quot;&gt;&lt;b&gt;SALVA BUTTON&lt;/b&gt;&lt;/span&gt;&lt;br&gt;&lt;span style=&quot;font-size: 15px;&quot;&gt;&lt;b&gt;Saves changes made to the element, in fact all fields, both sensitive and non-sensitive data, are editable&lt;/b&gt;&lt;/span&gt;&lt;br&gt;&lt;/font&gt;" style="rounded=1;whiteSpace=wrap;html=1;strokeColor=#6e5d57;strokeWidth=5;fillColor=default;gradientColor=none;spacingTop=0;spacingLeft=0;spacingBottom=0;spacingRight=0;spacing=20;" parent="1" vertex="1">
          <mxGeometry x="1100" y="770" width="300" height="95.93" as="geometry" />
        </mxCell>
        <mxCell id="cvI-DJmk5nsDpkG_RvR8-7" value="&lt;b style=&quot;border-color: var(--border-color); color: rgb(110, 93, 87); font-size: 15px;&quot;&gt;RIMUOVI BUTTON&lt;/b&gt;&lt;font color=&quot;#6e5d57&quot;&gt;&lt;br&gt;&lt;span style=&quot;font-size: 15px;&quot;&gt;&lt;b&gt;Remove the item from your list (this operation is irreversible if you do not have a backup)&lt;/b&gt;&lt;/span&gt;&lt;br&gt;&lt;/font&gt;" style="rounded=1;whiteSpace=wrap;html=1;strokeColor=#6e5d57;strokeWidth=5;fillColor=default;gradientColor=none;spacingTop=0;spacingLeft=0;spacingBottom=0;spacingRight=0;spacing=20;" parent="1" vertex="1">
          <mxGeometry x="220" y="770" width="300" height="95.93" as="geometry" />
        </mxCell>
        <mxCell id="cvI-DJmk5nsDpkG_RvR8-8" value="&lt;font color=&quot;#6e5d57&quot;&gt;&lt;span style=&quot;font-size: 15px;&quot;&gt;&lt;b&gt;Close the element&#39;s window&lt;/b&gt;&lt;/span&gt;&lt;/font&gt;" style="rounded=1;whiteSpace=wrap;html=1;strokeColor=#6e5d57;strokeWidth=5;fillColor=default;gradientColor=none;spacingTop=0;spacingLeft=0;spacingBottom=0;spacingRight=0;spacing=20;" parent="1" vertex="1">
          <mxGeometry x="1105" y="223" width="272" height="70" as="geometry" />
        </mxCell>
        <mxCell id="cvI-DJmk5nsDpkG_RvR8-9" value="&lt;b style=&quot;border-color: var(--border-color); color: rgb(110, 93, 87); font-size: 15px;&quot;&gt;SHOW AND COPY BUTTONS&lt;br&gt;&lt;/b&gt;&lt;div style=&quot;&quot;&gt;&lt;font color=&quot;#6e5d57&quot;&gt;&lt;span style=&quot;font-size: 15px;&quot;&gt;&lt;b&gt;Clicking on the magnifying glass (&#39;Show&#39; button) makes the &#39;password&#39; field visible. Clicking on the pencil (&#39;Copy&#39; button) copies the username or password directly to the clipboard.&lt;/b&gt;&lt;/span&gt;&lt;/font&gt;&lt;br&gt;&lt;/div&gt;" style="rounded=1;whiteSpace=wrap;html=1;strokeColor=#6e5d57;strokeWidth=5;fillColor=default;gradientColor=none;spacingTop=0;spacingLeft=0;spacingBottom=0;spacingRight=0;spacing=20;align=center;" parent="1" vertex="1">
          <mxGeometry x="1100" y="484" width="350" height="140" as="geometry" />
        </mxCell>
        <mxCell id="cvI-DJmk5nsDpkG_RvR8-11" value="" style="endArrow=classic;html=1;rounded=0;fontSize=15;fontColor=#6e5d57;strokeColor=#6e5d57;strokeWidth=3;exitX=1;exitY=0.75;exitDx=0;exitDy=0;" parent="1" source="cvI-DJmk5nsDpkG_RvR8-2" edge="1">
          <mxGeometry width="50" height="50" relative="1" as="geometry">
            <mxPoint x="520" y="409.9999999999999" as="sourcePoint" />
            <mxPoint x="640" y="460" as="targetPoint" />
          </mxGeometry>
        </mxCell>
        <mxCell id="cvI-DJmk5nsDpkG_RvR8-12" value="" style="endArrow=classic;html=1;rounded=0;fontSize=15;fontColor=#6e5d57;strokeColor=#6e5d57;strokeWidth=3;exitX=1;exitY=0.25;exitDx=0;exitDy=0;" parent="1" source="cvI-DJmk5nsDpkG_RvR8-5" edge="1">
          <mxGeometry width="50" height="50" relative="1" as="geometry">
            <mxPoint x="530" y="415" as="sourcePoint" />
            <mxPoint x="640" y="530" as="targetPoint" />
          </mxGeometry>
        </mxCell>
        <mxCell id="cvI-DJmk5nsDpkG_RvR8-13" value="" style="endArrow=classic;html=1;rounded=0;fontSize=15;fontColor=#6e5d57;strokeColor=#6e5d57;strokeWidth=3;exitX=1;exitY=0.5;exitDx=0;exitDy=0;" parent="1" source="cvI-DJmk5nsDpkG_RvR8-5" edge="1">
          <mxGeometry width="50" height="50" relative="1" as="geometry">
            <mxPoint x="530" y="557.5" as="sourcePoint" />
            <mxPoint x="640" y="595" as="targetPoint" />
          </mxGeometry>
        </mxCell>
        <mxCell id="cvI-DJmk5nsDpkG_RvR8-14" value="" style="endArrow=classic;html=1;rounded=0;fontSize=15;fontColor=#6e5d57;strokeColor=#6e5d57;strokeWidth=3;exitX=1;exitY=0.75;exitDx=0;exitDy=0;" parent="1" source="cvI-DJmk5nsDpkG_RvR8-5" edge="1">
          <mxGeometry width="50" height="50" relative="1" as="geometry">
            <mxPoint x="530" y="615" as="sourcePoint" />
            <mxPoint x="640" y="690" as="targetPoint" />
          </mxGeometry>
        </mxCell>
        <mxCell id="cvI-DJmk5nsDpkG_RvR8-15" value="" style="endArrow=classic;html=1;rounded=0;fontSize=15;fontColor=#6e5d57;strokeColor=#6e5d57;strokeWidth=3;exitX=1;exitY=0.5;exitDx=0;exitDy=0;" parent="1" source="cvI-DJmk5nsDpkG_RvR8-7" edge="1">
          <mxGeometry width="50" height="50" relative="1" as="geometry">
            <mxPoint x="530" y="662.5" as="sourcePoint" />
            <mxPoint x="630" y="800" as="targetPoint" />
          </mxGeometry>
        </mxCell>
        <mxCell id="cvI-DJmk5nsDpkG_RvR8-16" value="" style="endArrow=classic;html=1;rounded=0;fontSize=15;fontColor=#6e5d57;strokeColor=#6e5d57;strokeWidth=3;exitX=0;exitY=0.5;exitDx=0;exitDy=0;" parent="1" source="cvI-DJmk5nsDpkG_RvR8-8" edge="1">
          <mxGeometry width="50" height="50" relative="1" as="geometry">
            <mxPoint x="970" y="397.9649999999999" as="sourcePoint" />
            <mxPoint x="1000" y="275" as="targetPoint" />
          </mxGeometry>
        </mxCell>
        <mxCell id="cvI-DJmk5nsDpkG_RvR8-17" value="" style="endArrow=classic;html=1;rounded=0;fontSize=15;fontColor=#6e5d57;strokeColor=#6e5d57;strokeWidth=3;exitX=0;exitY=0.25;exitDx=0;exitDy=0;" parent="1" source="cvI-DJmk5nsDpkG_RvR8-9" edge="1">
          <mxGeometry width="50" height="50" relative="1" as="geometry">
            <mxPoint x="540" y="837.9649999999999" as="sourcePoint" />
            <mxPoint x="890" y="520" as="targetPoint" />
          </mxGeometry>
        </mxCell>
        <mxCell id="cvI-DJmk5nsDpkG_RvR8-18" value="" style="endArrow=classic;html=1;rounded=0;fontSize=15;fontColor=#6e5d57;strokeColor=#6e5d57;strokeWidth=3;exitX=0;exitY=0.75;exitDx=0;exitDy=0;" parent="1" source="cvI-DJmk5nsDpkG_RvR8-9" edge="1">
          <mxGeometry width="50" height="50" relative="1" as="geometry">
            <mxPoint x="1110" y="543.9824999999998" as="sourcePoint" />
            <mxPoint x="930" y="590" as="targetPoint" />
          </mxGeometry>
        </mxCell>
        <mxCell id="cvI-DJmk5nsDpkG_RvR8-19" value="" style="endArrow=classic;html=1;rounded=0;fontSize=15;fontColor=#6e5d57;strokeColor=#6e5d57;strokeWidth=3;exitX=0;exitY=0.5;exitDx=0;exitDy=0;" parent="1" source="cvI-DJmk5nsDpkG_RvR8-6" edge="1">
          <mxGeometry width="50" height="50" relative="1" as="geometry">
            <mxPoint x="1110" y="591.9475" as="sourcePoint" />
            <mxPoint x="1000" y="800" as="targetPoint" />
          </mxGeometry>
        </mxCell>
        <mxCell id="JHcuL86eXNCalNwc0vVq-1" value="&lt;font color=&quot;#6e5d57&quot;&gt;&lt;b style=&quot;font-size: 15px;&quot;&gt;ELEMENT&#39;S WINDOW&lt;/b&gt;&lt;br&gt;&lt;div style=&quot;&quot;&gt;&lt;span style=&quot;font-size: 15px;&quot;&gt;&lt;b&gt;In this window, which can be reached by clicking on the item in the Home list, sensitive and non-sensitive data of the item can be viewed and edited.&lt;/b&gt;&lt;/span&gt;&lt;br&gt;&lt;/div&gt;&lt;/font&gt;" style="rounded=1;whiteSpace=wrap;html=1;strokeColor=#6e5d57;strokeWidth=5;fillColor=default;gradientColor=none;spacingTop=0;spacingLeft=0;spacingBottom=0;spacingRight=0;spacing=20;align=center;" parent="1" vertex="1">
          <mxGeometry x="649.5" y="130" width="330" height="130" as="geometry" />
        </mxCell>
      </root>
    </mxGraphModel>
  </diagram>
</mxfile>
